<svg width="371" height="207" viewBox="0 0 371 207" fill="none" xmlns="http://www.w3.org/2000/svg">
<g opacity="0.1">
<mask id="path-1-outside-1_66_2162" maskUnits="userSpaceOnUse" x="-4" y="38" width="117" height="137" fill="black">
<rect fill="white" x="-4" y="38" width="117" height="137"/>
<path d="M4.31507 148.014V114.356L55.2329 46.1781H91.4795V118.671H104.425V148.014H91.4795V167H58.6849V148.014H4.31507ZM33.6575 118.671H58.6849V85.0137L33.6575 118.671Z"/>
</mask>
<path d="M4.31507 148.014H-3.62041V155.949H4.31507V148.014ZM4.31507 114.356L-2.04296 109.608L-3.62041 111.72V114.356H4.31507ZM55.2329 46.1781V38.2426H51.2551L48.8749 41.4297L55.2329 46.1781ZM91.4795 46.1781H99.4149V38.2426H91.4795V46.1781ZM91.4795 118.671H83.544V126.607H91.4795V118.671ZM104.425 118.671H112.36V110.736H104.425V118.671ZM104.425 148.014V155.949H112.36V148.014H104.425ZM91.4795 148.014V140.078H83.544V148.014H91.4795ZM91.4795 167V174.935H99.4149V167H91.4795ZM58.6849 167H50.7495V174.935H58.6849V167ZM58.6849 148.014H66.6204V140.078H58.6849V148.014ZM33.6575 118.671L27.2896 113.936L17.8679 126.607H33.6575V118.671ZM58.6849 118.671V126.607H66.6204V118.671H58.6849ZM58.6849 85.0137H66.6204V61.0429L52.317 80.2786L58.6849 85.0137ZM12.2506 148.014V114.356H-3.62041V148.014H12.2506ZM10.6731 119.105L61.5909 50.9265L48.8749 41.4297L-2.04296 109.608L10.6731 119.105ZM55.2329 54.1135H91.4795V38.2426H55.2329V54.1135ZM83.544 46.1781V118.671H99.4149V46.1781H83.544ZM91.4795 126.607H104.425V110.736H91.4795V126.607ZM96.4892 118.671V148.014H112.36V118.671H96.4892ZM104.425 140.078H91.4795V155.949H104.425V140.078ZM83.544 148.014V167H99.4149V148.014H83.544ZM91.4795 159.065H58.6849V174.935H91.4795V159.065ZM66.6204 167V148.014H50.7495V167H66.6204ZM58.6849 140.078H4.31507V155.949H58.6849V140.078ZM33.6575 126.607H58.6849V110.736H33.6575V126.607ZM66.6204 118.671V85.0137H50.7495V118.671H66.6204ZM52.317 80.2786L27.2896 113.936L40.0255 123.406L65.0529 89.7488L52.317 80.2786Z" fill="#0F1829" mask="url(#path-1-outside-1_66_2162)"/>
</g>
<g opacity="0.1">
<mask id="path-3-outside-2_66_2162" maskUnits="userSpaceOnUse" x="259" y="38" width="117" height="137" fill="black">
<rect fill="white" x="259" y="38" width="117" height="137"/>
<path d="M267.315 148.014V114.356L318.233 46.1781H354.479V118.671H367.425V148.014H354.479V167H321.685V148.014H267.315ZM296.658 118.671H321.685V85.0137L296.658 118.671Z"/>
</mask>
<path d="M267.315 148.014H259.38V155.949H267.315V148.014ZM267.315 114.356L260.957 109.608L259.38 111.72V114.356H267.315ZM318.233 46.1781V38.2426H314.255L311.875 41.4297L318.233 46.1781ZM354.479 46.1781H362.415V38.2426H354.479V46.1781ZM354.479 118.671H346.544V126.607H354.479V118.671ZM367.425 118.671H375.36V110.736H367.425V118.671ZM367.425 148.014V155.949H375.36V148.014H367.425ZM354.479 148.014V140.078H346.544V148.014H354.479ZM354.479 167V174.935H362.415V167H354.479ZM321.685 167H313.749V174.935H321.685V167ZM321.685 148.014H329.62V140.078H321.685V148.014ZM296.658 118.671L290.29 113.936L280.868 126.607H296.658V118.671ZM321.685 118.671V126.607H329.62V118.671H321.685ZM321.685 85.0137H329.62V61.0429L315.317 80.2786L321.685 85.0137ZM275.251 148.014V114.356H259.38V148.014H275.251ZM273.673 119.105L324.591 50.9265L311.875 41.4297L260.957 109.608L273.673 119.105ZM318.233 54.1135H354.479V38.2426H318.233V54.1135ZM346.544 46.1781V118.671H362.415V46.1781H346.544ZM354.479 126.607H367.425V110.736H354.479V126.607ZM359.489 118.671V148.014H375.36V118.671H359.489ZM367.425 140.078H354.479V155.949H367.425V140.078ZM346.544 148.014V167H362.415V148.014H346.544ZM354.479 159.065H321.685V174.935H354.479V159.065ZM329.62 167V148.014H313.749V167H329.62ZM321.685 140.078H267.315V155.949H321.685V140.078ZM296.658 126.607H321.685V110.736H296.658V126.607ZM329.62 118.671V85.0137H313.749V118.671H329.62ZM315.317 80.2786L290.29 113.936L303.025 123.406L328.053 89.7488L315.317 80.2786Z" fill="#0F1829" mask="url(#path-3-outside-2_66_2162)"/>
</g>
<g opacity="0.1">
<mask id="path-5-outside-3_66_2162" maskUnits="userSpaceOnUse" x="123" y="34" width="124" height="145" fill="black">
<rect fill="white" x="123" y="34" width="124" height="145"/>
<path d="M185.274 140.247C195.63 140.247 205.986 129.89 205.986 106.589C205.986 83.2877 195.63 72.9315 185.274 72.9315C174.918 72.9315 164.562 83.2877 164.562 106.589C164.562 129.89 174.918 140.247 185.274 140.247ZM185.274 170.452C156.795 170.452 131.767 145.425 131.767 106.589C131.767 67.7534 156.795 42.726 185.274 42.726C213.753 42.726 238.781 67.7534 238.781 106.589C238.781 145.425 213.753 170.452 185.274 170.452Z"/>
</mask>
<path d="M185.274 148.182C193.319 148.182 200.801 144.093 205.997 136.732C211.102 129.499 213.922 119.322 213.922 106.589H198.051C198.051 117.158 195.692 123.809 193.031 127.58C190.46 131.222 187.585 132.311 185.274 132.311V148.182ZM213.922 106.589C213.922 93.8563 211.102 83.679 205.997 76.446C200.801 69.0847 193.319 64.996 185.274 64.996V80.867C187.585 80.867 190.46 81.9563 193.031 85.5985C195.692 89.3689 198.051 96.0204 198.051 106.589H213.922ZM185.274 64.996C177.229 64.996 169.747 69.0847 164.551 76.446C159.446 83.679 156.626 93.8563 156.626 106.589H172.497C172.497 96.0204 174.856 89.3689 177.517 85.5985C180.088 81.9563 182.962 80.867 185.274 80.867V64.996ZM156.626 106.589C156.626 119.322 159.446 129.499 164.551 136.732C169.747 144.093 177.229 148.182 185.274 148.182V132.311C182.962 132.311 180.088 131.222 177.517 127.58C174.856 123.809 172.497 117.158 172.497 106.589H156.626ZM185.274 162.517C162.072 162.517 139.703 141.994 139.703 106.589H123.832C123.832 148.855 151.517 178.388 185.274 178.388V162.517ZM139.703 106.589C139.703 71.1837 162.072 50.6615 185.274 50.6615V34.7905C151.517 34.7905 123.832 64.3231 123.832 106.589H139.703ZM185.274 50.6615C208.476 50.6615 230.845 71.1837 230.845 106.589H246.716C246.716 64.3231 219.031 34.7905 185.274 34.7905V50.6615ZM230.845 106.589C230.845 141.994 208.476 162.517 185.274 162.517V178.388C219.031 178.388 246.716 148.855 246.716 106.589H230.845Z" fill="#0F1829" mask="url(#path-5-outside-3_66_2162)"/>
</g>
</svg>
