<svg width="15" height="15" viewBox="0 0 15 15" fill="none" xmlns="http://www.w3.org/2000/svg">
<g clip-path="url(#clip0_1_2010)">
<path d="M7.35069 0.628784C5.75228 0.628784 4.43393 1.6705 4.25897 3.01H10.4424C10.2671 1.6705 8.94878 0.628784 7.35069 0.628784Z" fill="#FF7400"/>
<path d="M9.07196 9.16913V9.67873C9.07196 10.606 8.29609 11.3674 7.35115 11.3674C6.4062 11.3674 5.63033 10.606 5.63033 9.67873V9.15771C3.55341 10.2226 0.560913 10.0792 0.560913 13.1473V14.8991H14.1176V13.1473C14.1176 10.0907 11.1482 10.2223 9.07164 9.16913H9.07196Z" fill="#FF7400"/>
<path d="M4.1717 4.11496H4.1952C4.16615 4.28081 4.14852 4.4641 4.14852 4.6531V6.02113C4.14852 7.6641 5.58928 9.89056 7.35089 9.89056C9.11251 9.89056 10.5477 7.66378 10.5477 6.02113V4.6531C10.5477 4.4641 10.536 4.28113 10.5069 4.11496H10.5304C10.787 4.11496 10.787 3.18201 10.5304 3.18201H4.1717C3.91514 3.18201 3.91514 4.11496 4.1717 4.11496ZM7.35089 9.71869C5.77598 9.71869 4.51018 7.81251 4.34077 6.34142C5.46655 6.93664 6.50485 7.0971 7.35089 6.23265C8.19661 7.0971 9.23491 6.93664 10.3551 6.34142C10.1919 7.81251 8.92613 9.71869 7.35089 9.71869ZM4.81929 5.51724C4.81929 5.23691 5.25667 5.01366 5.79916 5.01366C6.34165 5.01366 6.77903 5.23691 6.77903 5.51724C6.77903 5.79757 6.34165 6.02081 5.79916 6.02081C5.25667 6.02081 4.81929 5.79186 4.81929 5.51724ZM7.92276 5.51724C7.92276 5.23691 8.36014 5.01366 8.90263 5.01366C9.44512 5.01366 9.8825 5.23691 9.8825 5.51724C9.8825 5.79757 9.43924 6.02081 8.90263 6.02081C8.36602 6.02081 7.92276 5.79186 7.92276 5.51724ZM4.37015 4.11496H10.332C10.361 4.28081 10.3728 4.45839 10.3728 4.64739C9.30542 4.30967 5.39703 4.30967 4.32347 4.64739C4.32347 4.45839 4.3411 4.28113 4.37015 4.11496Z" fill="#FF7400"/>
</g>
<defs>
<clipPath id="clip0_1_2010">
<rect width="13.5566" height="14.2702" fill="white" transform="translate(0.560852 0.628662)"/>
</clipPath>
</defs>
</svg>
