<svg width="104" height="105" viewBox="0 0 104 105" fill="none" xmlns="http://www.w3.org/2000/svg">
<g filter="url(#filter0_d_31_7)">
<rect x="77.6065" y="18.2412" width="50.8129" height="50.881" rx="7.67802" transform="rotate(90 77.6065 18.2412)" fill="#EEEEEE"/>
<rect x="77.0581" y="18.7896" width="49.716" height="49.7841" rx="7.12959" transform="rotate(90 77.0581 18.7896)" stroke="white" stroke-width="1.09686"/>
</g>
<g clip-path="url(#clip0_31_7)">
<path d="M67.6476 42.528V39.6884C67.6476 39.1774 67.211 38.7391 66.6801 38.7391H66.6716C66.1407 38.7391 65.7178 39.1774 65.7178 39.6884V42.0023C65.6167 41.994 65.5774 41.9627 65.5089 41.9627H64.8051V40.0345C64.8051 38.8478 63.7982 37.8606 62.5653 37.8606H59.8221C59.769 36.7861 58.7912 35.8087 57.5926 35.8087H55.8733V35.1248H56.7894C57.7381 35.1248 58.5121 34.5265 58.5121 33.7585V33.4157C58.5121 32.6477 57.7364 32 56.7894 32H50.2773C49.3286 32 48.5683 32.6477 48.5683 33.4157V33.7585C48.5683 34.5265 49.3303 35.1248 50.2773 35.1248H51.3081V35.8087H49.678C48.4793 35.8087 47.5015 36.7861 47.4484 37.8606H44.7052C43.4723 37.8606 42.4791 38.8478 42.4791 40.0345V43.9174H41.1606V39.7839C41.1606 39.1676 40.6349 38.6435 39.9945 38.6435H39.9808C39.3403 38.6435 38.8283 39.1676 38.8283 39.7839V42.0023C38.1177 42.0946 37.6108 42.6615 37.6108 43.3488V47.3668C37.6108 48.0541 38.1177 48.621 38.8283 48.7133V51.1278C38.8283 51.7442 39.3421 52.2188 39.9808 52.2188H39.9945C40.6349 52.2188 41.1606 51.7442 41.1606 51.1278V46.8477H42.4791V50.8773C42.4791 52.0639 43.4723 53.0016 44.7052 53.0016H54.1267C55.0805 53.0016 57.3819 50.0713 58.8803 50.0713H62.567C63.7999 50.0713 64.8068 49.1336 64.8068 47.9469V44.8947H65.5106C65.5791 44.8947 65.6185 44.9128 65.7195 44.9046V47.2185C65.7195 47.7294 66.1424 48.1184 66.6733 48.1184H66.6818C67.2127 48.1184 67.6493 47.7294 67.6493 47.2185V44.3788C67.6493 43.9866 67.3925 43.652 67.0329 43.5185C67.0329 43.4971 67.0346 43.4773 67.0346 43.4559C67.0346 43.4345 67.0346 43.413 67.0346 43.3916C67.3925 43.2581 67.6493 42.9236 67.6493 42.5313L67.6476 42.528ZM60.4351 47.8233H57.56C57.1251 47.8233 55.9487 48.8089 55.3836 49.2819C54.3647 50.1356 53.6284 50.752 52.8065 50.752H46.7344C46.1453 50.752 45.6693 50.2922 45.6693 49.7269C45.6693 49.1616 46.147 48.7018 46.7344 48.7018H52.714C52.976 48.6045 53.5787 48.0755 53.9846 47.7343C55.137 46.7686 56.3288 45.7715 57.56 45.7715H60.4351C61.0242 45.7715 61.5002 46.2313 61.5002 46.7966C61.5002 47.3619 61.0224 47.8217 60.4351 47.8217V47.8233Z" fill="#0F1829"/>
</g>
<defs>
<filter id="filter0_d_31_7" x="0.400877" y="0.691444" width="103.53" height="103.462" filterUnits="userSpaceOnUse" color-interpolation-filters="sRGB">
<feFlood flood-opacity="0" result="BackgroundImageFix"/>
<feColorMatrix in="SourceAlpha" type="matrix" values="0 0 0 0 0 0 0 0 0 0 0 0 0 0 0 0 0 0 127 0" result="hardAlpha"/>
<feOffset dy="8.77488"/>
<feGaussianBlur stdDeviation="13.1623"/>
<feComposite in2="hardAlpha" operator="out"/>
<feColorMatrix type="matrix" values="0 0 0 0 0 0 0 0 0 0 0 0 0 0 0 0 0 0 0.15 0"/>
<feBlend mode="normal" in2="BackgroundImageFix" result="effect1_dropShadow_31_7"/>
<feBlend mode="normal" in="SourceGraphic" in2="effect1_dropShadow_31_7" result="shape"/>
</filter>
<clipPath id="clip0_31_7">
<rect width="30.0402" height="21" fill="white" transform="translate(37.6072 32)"/>
</clipPath>
</defs>
</svg>
