<svg width="21" height="12" viewBox="0 0 21 12" fill="none" xmlns="http://www.w3.org/2000/svg">
<path d="M19.8381 9.73085H19.368C19.368 9.73085 19.3745 9.32337 19.3745 9.1066C19.3745 7.879 18.3572 6.86977 17.1197 6.86977C15.8822 6.86977 14.8649 7.87321 14.8649 9.1066C14.8649 9.32337 14.8697 9.73085 14.8697 9.73085L5.95126 9.71863C5.95126 9.71863 5.94867 9.32337 5.94867 9.1066C5.94867 7.87321 4.93716 6.86977 3.69385 6.86977C2.45053 6.86977 1.43902 7.8745 1.43902 9.1066C1.43902 9.32337 1.4361 9.73085 1.4361 9.73085H1.26557C0.889499 9.73085 1.09083 9.26934 0.828549 8.52802C0.703408 8.17392 1.04123 7.79827 1.0195 7.57765C1.00978 7.47955 0.925486 7.33258 0.992271 7.25957C1.05906 7.18656 1.18225 7.21808 1.18225 7.21808C1.18225 7.21808 1.55314 5.53057 1.92727 5.36784C2.14222 5.27457 2.5546 5.67948 2.85514 5.58589C3.1628 5.49037 3.54244 4.79215 3.88026 4.70467C4.20025 4.62201 4.23786 5.12888 4.53191 5.0607C4.75496 5.00892 5.06328 4.48243 5.24515 4.44288C5.66953 4.35025 5.95224 4.29429 5.95224 4.29429C6.88432 3.46613 8.71055 1.99314 10.3072 1.33287C11.854 0.693499 16.789 0.640433 19.2805 1.79052C19.5927 1.93461 20.3397 4.79086 20.5413 6.46776C20.7083 6.46776 20.8286 6.50281 20.8957 6.69514C20.9689 6.90419 21.0944 9.73085 19.8381 9.73085ZM10.3643 1.49464C9.72141 1.76029 7.92014 3.02906 6.85417 3.85143C6.76436 3.92057 6.72902 4.03893 6.76598 4.14538C6.80294 4.25216 6.90409 4.32356 7.01789 4.32356H12.0145C12.1383 4.32356 12.2456 4.23897 12.2735 4.11933L12.9715 1.13218C11.8177 1.18557 10.7961 1.31614 10.3646 1.49464H10.3643ZM13.4945 1.12961C13.4925 1.12961 13.4715 1.29717 13.4715 1.2991L13.1839 4.0325C13.1761 4.10679 13.2004 4.18108 13.251 4.2364C13.3016 4.29204 13.3732 4.32356 13.4488 4.32356H18.2058C18.2187 4.32356 18.2291 4.31327 18.2291 4.3004C18.2291 1.86739 18.1753 1.63711 17.8787 1.57826C16.5313 1.25311 14.5303 1.10291 13.4948 1.12929L13.4945 1.12961Z" fill="#FF7400"/>
<path d="M5.64715 9.10642C5.75965 10.1694 4.93099 11.0313 3.79628 11.0313C2.66158 11.0313 1.64812 10.1446 1.5327 9.05079C1.41729 7.95698 2.24595 7.09505 3.38357 7.12593C4.5212 7.1568 5.53465 8.04349 5.64715 9.10642ZM3.45749 7.82511C2.72771 7.80871 2.1957 8.36189 2.26962 9.06076C2.34353 9.7593 2.99388 10.3286 3.72269 10.3321C4.4515 10.3356 4.98319 9.78246 4.91057 9.09645C4.83794 8.41045 4.18759 7.8412 3.45749 7.82511ZM3.68411 8.10009C3.69805 8.23196 3.63191 8.44422 3.52266 8.44229C3.4134 8.44036 3.30187 8.22424 3.28793 8.09205C3.27399 7.95987 3.36283 7.9618 3.47208 7.96405C3.58134 7.9663 3.67017 7.96823 3.68411 8.10009ZM3.04576 8.16442C3.1388 8.27312 3.22342 8.49761 3.1414 8.55711C3.05937 8.61693 2.84183 8.48893 2.74879 8.3799C2.65574 8.27087 2.7222 8.22263 2.80423 8.16313C2.88625 8.10363 2.95271 8.05539 3.04576 8.1641V8.16442ZM2.61554 8.58059C2.75235 8.62368 2.95498 8.77388 2.93164 8.87229C2.90829 8.97103 2.66774 8.98132 2.53092 8.93854C2.39411 8.89545 2.41324 8.81536 2.43658 8.71631C2.45992 8.61757 2.47873 8.53717 2.61554 8.58059ZM2.55783 9.19004C2.68589 9.15049 2.92937 9.16753 2.97346 9.26723C3.01755 9.36661 2.84605 9.51166 2.71799 9.55122C2.58993 9.5911 2.55427 9.51005 2.50985 9.41035C2.46576 9.31065 2.42945 9.2296 2.55751 9.19004H2.55783ZM2.89435 9.75609C2.9647 9.64931 3.15598 9.5271 3.25065 9.58917C3.34564 9.65124 3.30836 9.87412 3.23768 9.98057C3.16733 10.0873 3.0905 10.0372 2.9955 9.9751C2.90051 9.91303 2.82368 9.86286 2.89403 9.75609H2.89435ZM3.49607 10.0597C3.48213 9.92751 3.54794 9.71363 3.6572 9.7146C3.76646 9.71556 3.87766 9.9304 3.8916 10.0623C3.90554 10.1941 3.81703 10.1935 3.70778 10.1928C3.59852 10.1922 3.51001 10.1919 3.49607 10.0594V10.0597ZM4.13378 9.987C4.04073 9.87991 3.95644 9.65703 4.03814 9.59721C4.12016 9.53739 4.33738 9.66282 4.43042 9.76991C4.52347 9.87701 4.45701 9.92558 4.37498 9.9854C4.29296 10.0455 4.2265 10.0944 4.13378 9.98733V9.987ZM4.56399 9.57019C4.4275 9.52838 4.22488 9.38076 4.24822 9.28299C4.27156 9.18522 4.51212 9.17461 4.64893 9.21674C4.78542 9.25887 4.76662 9.33799 4.74295 9.43544C4.71961 9.53289 4.70081 9.612 4.56399 9.57019ZM4.62267 8.96877C4.49461 9.00737 4.25114 8.99032 4.20705 8.89159C4.16296 8.79285 4.33478 8.65038 4.46284 8.6121C4.5909 8.57383 4.62656 8.65359 4.67066 8.75233C4.71475 8.85074 4.75073 8.9305 4.62267 8.9691V8.96877ZM4.2868 8.4082C4.21612 8.51305 4.02485 8.63301 3.92985 8.57062C3.83486 8.50822 3.87247 8.28695 3.94315 8.18211C4.01382 8.07726 4.09066 8.12807 4.18565 8.19047C4.28064 8.25286 4.35748 8.30335 4.2868 8.4082ZM4.06213 9.08488C4.08806 9.33123 3.89808 9.52903 3.63775 9.52613C3.37741 9.52356 3.14496 9.31998 3.1187 9.07201C3.09244 8.82405 3.28242 8.62625 3.54308 8.63076C3.80374 8.63526 4.03619 8.83852 4.06213 9.08488Z" fill="#FF7400"/>
<path d="M19.0599 9.10662C19.0599 10.1696 18.191 11.0315 17.1195 11.0315C16.048 11.0315 15.1792 10.1699 15.1792 9.10662C15.1792 8.04337 16.048 7.18176 17.1195 7.18176C18.191 7.18176 19.0599 8.04337 19.0599 9.10662ZM17.1195 7.87098C16.4316 7.87098 15.8739 8.42416 15.8739 9.10662C15.8739 9.78909 16.4316 10.3423 17.1195 10.3423C17.8075 10.3423 18.3651 9.78909 18.3651 9.10662C18.3651 8.42416 17.8075 7.87098 17.1195 7.87098ZM17.3063 8.13824C17.3063 8.2685 17.2226 8.47948 17.1195 8.47948C17.0164 8.47948 16.9328 8.26817 16.9328 8.13824C16.9328 8.00831 17.0164 8.00799 17.1195 8.00799C17.2226 8.00799 17.3063 8.00799 17.3063 8.13824ZM16.6968 8.21447C16.7739 8.31963 16.8313 8.5393 16.748 8.59944C16.6647 8.65958 16.4718 8.53737 16.3946 8.4322C16.3174 8.32703 16.3852 8.27814 16.4685 8.218C16.5518 8.15786 16.6196 8.10898 16.6968 8.21447ZM16.2487 8.63128C16.3735 8.67148 16.5502 8.81556 16.5181 8.91301C16.4864 9.01014 16.2581 9.02397 16.1333 8.98377C16.0085 8.94356 16.0344 8.86477 16.0662 8.76732C16.098 8.67019 16.1239 8.59108 16.2487 8.63128ZM16.1333 9.2298C16.2581 9.1896 16.4864 9.20311 16.5181 9.30056C16.5499 9.39768 16.3735 9.54209 16.2487 9.58229C16.1239 9.62249 16.0983 9.5437 16.0662 9.44625C16.0344 9.34912 16.0085 9.27 16.1333 9.2298ZM16.3946 9.78137C16.4718 9.6762 16.6643 9.55399 16.748 9.61413C16.8313 9.67427 16.7739 9.89393 16.6968 9.9991C16.6196 10.1046 16.5522 10.0557 16.4685 9.99556C16.3852 9.93542 16.3174 9.88686 16.3946 9.78137ZM16.9328 10.0753C16.9328 9.94507 17.0164 9.73409 17.1195 9.73409C17.2226 9.73409 17.3063 9.94539 17.3063 10.0753C17.3063 10.2053 17.2226 10.2056 17.1195 10.2056C17.0164 10.2056 16.9328 10.2056 16.9328 10.0753ZM17.5423 9.9991C17.4651 9.89393 17.4077 9.67427 17.4911 9.61413C17.5744 9.55399 17.7673 9.6762 17.8444 9.78137C17.9216 9.88686 17.8538 9.93542 17.7705 9.99556C17.6872 10.0557 17.6194 10.1046 17.5423 9.9991ZM17.9903 9.58229C17.8655 9.54209 17.6888 9.398 17.7209 9.30056C17.7527 9.20343 17.9809 9.1896 18.1057 9.2298C18.2306 9.27 18.2046 9.3488 18.1728 9.44625C18.1411 9.5437 18.1151 9.62249 17.9903 9.58229ZM18.1057 8.98377C17.9809 9.02397 17.7527 9.01046 17.7209 8.91301C17.6891 8.81588 17.8655 8.67148 17.9903 8.63128C18.1151 8.59108 18.1408 8.66987 18.1728 8.76732C18.2046 8.86445 18.2306 8.94356 18.1057 8.98377ZM17.8444 8.4322C17.7673 8.53737 17.5747 8.65958 17.4911 8.59944C17.4077 8.5393 17.4651 8.31963 17.5423 8.21447C17.6194 8.1093 17.6869 8.15786 17.7705 8.218C17.8538 8.27814 17.9216 8.32671 17.8444 8.4322ZM17.5646 9.10662C17.5646 9.35041 17.3656 9.54788 17.1198 9.54788C16.8741 9.54788 16.675 9.35041 16.675 9.10662C16.675 8.86284 16.8741 8.66537 17.1198 8.66537C17.3656 8.66537 17.5646 8.86284 17.5646 9.10662Z" fill="#FF7400"/>
</svg>
