<svg width="26" height="13" viewBox="0 0 26 13" fill="none" xmlns="http://www.w3.org/2000/svg">
<path d="M23.9876 11.216H23.4083C23.4083 11.216 23.4163 10.7058 23.4163 10.4343C23.4163 8.89724 22.1626 7.63357 20.6375 7.63357C19.1125 7.63357 17.8587 8.88999 17.8587 10.4343C17.8587 10.7058 17.8647 11.216 17.8647 11.216L6.87384 11.2007C6.87384 11.2007 6.87064 10.7058 6.87064 10.4343C6.87064 8.88999 5.62408 7.63357 4.09186 7.63357C2.55963 7.63357 1.31307 8.8916 1.31307 10.4343C1.31307 10.7058 1.30947 11.216 1.30947 11.216H1.09932C0.635852 11.216 0.883965 10.6381 0.560738 9.70989C0.406517 9.26651 0.822835 8.79616 0.796066 8.51991C0.78408 8.39709 0.6802 8.21305 0.762505 8.12164C0.84481 8.03023 0.996634 8.06969 0.996634 8.06969C0.996634 8.06969 1.45371 5.95673 1.91477 5.75296C2.17967 5.63618 2.68788 6.14318 3.05825 6.026C3.43741 5.90639 3.90527 5.03213 4.32159 4.9226C4.71593 4.81911 4.76228 5.45376 5.12466 5.36839C5.39954 5.30355 5.7795 4.64433 6.00365 4.5948C6.52664 4.47883 6.87504 4.40876 6.87504 4.40876C8.02371 3.37181 10.2743 1.52744 12.242 0.700702C14.1482 -0.0998643 20.23 -0.16631 23.3004 1.27374C23.6852 1.45415 24.6057 5.03052 24.8542 7.1302C25.06 7.1302 25.2082 7.17409 25.2909 7.4149C25.3812 7.67666 25.5359 11.216 23.9876 11.216ZM12.3123 0.903259C11.5201 1.23589 9.30023 2.82454 7.98655 3.85424C7.87588 3.94082 7.83233 4.08901 7.87788 4.22231C7.92343 4.356 8.04808 4.4454 8.18832 4.4454H14.346C14.4986 4.4454 14.6309 4.33949 14.6652 4.18969L15.5254 0.449417C14.1035 0.516265 12.8445 0.679761 12.3127 0.903259H12.3123ZM16.1699 0.446195C16.1675 0.446195 16.1415 0.656002 16.1415 0.658418L15.7871 4.08096C15.7775 4.17398 15.8075 4.267 15.8698 4.33627C15.9322 4.40594 16.0205 4.4454 16.1136 4.4454H21.976C21.992 4.4454 22.0047 4.43251 22.0047 4.41641C22.0047 1.36999 21.9384 1.08165 21.5728 1.00796C19.9124 0.600832 17.4464 0.412772 16.1703 0.445793L16.1699 0.446195Z" fill="#0F1829"/>
<path d="M6.49929 10.434C6.63793 11.7649 5.61671 12.8441 4.21833 12.8441C2.81994 12.8441 1.57099 11.7339 1.42875 10.3643C1.28652 8.99471 2.30774 7.91547 3.70972 7.95413C5.11169 7.99279 6.36065 9.10303 6.49929 10.434ZM3.80081 8.8296C2.90145 8.80906 2.24581 9.5017 2.3369 10.3768C2.428 11.2514 3.22947 11.9642 4.12763 11.9686C5.02579 11.9731 5.68104 11.2804 5.59154 10.4215C5.50204 9.56251 4.70057 8.84973 3.80081 8.8296ZM4.08009 9.17391C4.09727 9.33901 4.01576 9.6048 3.88112 9.60238C3.74647 9.59996 3.60903 9.32935 3.59185 9.16384C3.57467 8.99833 3.68415 9.00075 3.81879 9.00357C3.95343 9.00638 4.06291 9.0088 4.08009 9.17391ZM3.2934 9.25445C3.40806 9.39056 3.51234 9.67164 3.41126 9.74614C3.31018 9.82105 3.04209 9.66077 2.92742 9.52426C2.81275 9.38774 2.89466 9.32734 2.99574 9.25284C3.09682 9.17834 3.17873 9.11793 3.2934 9.25404V9.25445ZM2.76321 9.77554C2.93182 9.8295 3.18153 10.0176 3.15276 10.1408C3.12399 10.2644 2.82754 10.2773 2.65893 10.2237C2.49033 10.1698 2.5139 10.0695 2.54267 9.94548C2.57143 9.82185 2.59461 9.72118 2.76321 9.77554ZM2.69209 10.5387C2.84991 10.4891 3.14996 10.5105 3.2043 10.6353C3.25864 10.7597 3.04728 10.9414 2.88946 10.9909C2.73165 11.0408 2.6877 10.9393 2.63296 10.8145C2.57862 10.6897 2.53388 10.5882 2.69169 10.5387H2.69209ZM3.10681 11.2474C3.19351 11.1137 3.42924 10.9607 3.54591 11.0384C3.66297 11.1161 3.61702 11.3952 3.52992 11.5285C3.44322 11.6622 3.34853 11.5994 3.23147 11.5216C3.1144 11.4439 3.01971 11.3811 3.10641 11.2474H3.10681ZM3.84836 11.6276C3.83118 11.462 3.91228 11.1942 4.04693 11.1955C4.18157 11.1967 4.31861 11.4657 4.33579 11.6308C4.35297 11.7959 4.2439 11.7951 4.10925 11.7943C3.97461 11.7935 3.86554 11.7931 3.84836 11.6272V11.6276ZM4.63425 11.5365C4.51958 11.4024 4.4157 11.1234 4.51638 11.0485C4.61747 10.9736 4.88516 11.1306 4.99982 11.2647C5.11449 11.3988 5.03259 11.4596 4.9315 11.5345C4.83042 11.6098 4.74851 11.671 4.63425 11.5369V11.5365ZM5.16443 11.0146C4.99623 10.9623 4.74652 10.7775 4.77528 10.655C4.80405 10.5326 5.10051 10.5193 5.26911 10.5721C5.43732 10.6248 5.41414 10.7239 5.38498 10.8459C5.35621 10.9679 5.33304 11.067 5.16443 11.0146ZM5.23675 10.2616C5.07893 10.3099 4.77888 10.2886 4.72454 10.165C4.67021 10.0413 4.88196 9.86293 5.03978 9.815C5.1976 9.76708 5.24154 9.86695 5.29588 9.99058C5.35022 10.1138 5.39457 10.2137 5.23675 10.262V10.2616ZM4.82283 9.55969C4.73573 9.69097 4.5 9.84118 4.38294 9.76306C4.26587 9.68493 4.31222 9.40788 4.39932 9.2766C4.48642 9.14532 4.58111 9.20894 4.69817 9.28707C4.81524 9.36519 4.90993 9.42841 4.82283 9.55969ZM4.54595 10.407C4.57791 10.7154 4.34378 10.9631 4.02295 10.9595C3.70212 10.9563 3.41566 10.7013 3.38329 10.3909C3.35093 10.0804 3.58506 9.83272 3.90629 9.83836C4.22752 9.844 4.51399 10.0985 4.54595 10.407Z" fill="#0F1829"/>
<path d="M23.0286 10.434C23.0286 11.7649 21.9578 12.8441 20.6373 12.8441C19.3169 12.8441 18.2461 11.7653 18.2461 10.434C18.2461 9.10263 19.3169 8.0238 20.6373 8.0238C21.9578 8.0238 23.0286 9.10263 23.0286 10.434ZM20.6373 8.88679C19.7895 8.88679 19.1023 9.57943 19.1023 10.434C19.1023 11.2885 19.7895 11.9811 20.6373 11.9811C21.4851 11.9811 22.1724 11.2885 22.1724 10.434C22.1724 9.57943 21.4851 8.88679 20.6373 8.88679ZM20.8675 9.22143C20.8675 9.38452 20.7644 9.64869 20.6373 9.64869C20.5103 9.64869 20.4072 9.38412 20.4072 9.22143C20.4072 9.05874 20.5103 9.05834 20.6373 9.05834C20.7644 9.05834 20.8675 9.05834 20.8675 9.22143ZM20.1163 9.31687C20.2114 9.44855 20.2821 9.7236 20.1795 9.7989C20.0768 9.87421 19.8391 9.72118 19.744 9.5895C19.6489 9.45782 19.7324 9.39661 19.8351 9.3213C19.9377 9.246 20.0212 9.18479 20.1163 9.31687ZM19.5642 9.83877C19.718 9.88911 19.9357 10.0695 19.8962 10.1915C19.857 10.3131 19.5758 10.3305 19.4219 10.2801C19.2681 10.2298 19.3001 10.1311 19.3392 10.0091C19.3784 9.8875 19.4103 9.78843 19.5642 9.83877ZM19.4219 10.5882C19.5758 10.5379 19.857 10.5548 19.8962 10.6768C19.9353 10.7984 19.718 10.9792 19.5642 11.0296C19.4103 11.0799 19.3788 10.9812 19.3392 10.8592C19.3001 10.7376 19.2681 10.6385 19.4219 10.5882ZM19.744 11.2788C19.8391 11.1471 20.0764 10.9941 20.1795 11.0694C20.2821 11.1447 20.2114 11.4198 20.1163 11.5514C20.0212 11.6835 19.9381 11.6223 19.8351 11.547C19.7324 11.4717 19.6489 11.4109 19.744 11.2788ZM20.4072 11.6469C20.4072 11.4838 20.5103 11.2196 20.6373 11.2196C20.7644 11.2196 20.8675 11.4842 20.8675 11.6469C20.8675 11.8096 20.7644 11.81 20.6373 11.81C20.5103 11.81 20.4072 11.81 20.4072 11.6469ZM21.1583 11.5514C21.0632 11.4198 20.9925 11.1447 21.0952 11.0694C21.1979 10.9941 21.4356 11.1471 21.5307 11.2788C21.6258 11.4109 21.5423 11.4717 21.4396 11.547C21.3369 11.6223 21.2534 11.6835 21.1583 11.5514ZM21.7105 11.0296C21.5567 10.9792 21.3389 10.7988 21.3785 10.6768C21.4176 10.5552 21.6989 10.5379 21.8527 10.5882C22.0065 10.6385 21.9746 10.7372 21.9354 10.8592C21.8963 10.9812 21.8643 11.0799 21.7105 11.0296ZM21.8527 10.2801C21.6989 10.3305 21.4176 10.3136 21.3785 10.1915C21.3393 10.0699 21.5567 9.88911 21.7105 9.83877C21.8643 9.78843 21.8959 9.88709 21.9354 10.0091C21.9746 10.1307 22.0065 10.2298 21.8527 10.2801ZM21.5307 9.5895C21.4356 9.72118 21.1983 9.87421 21.0952 9.7989C20.9925 9.7236 21.0632 9.44855 21.1583 9.31687C21.2534 9.18519 21.3365 9.246 21.4396 9.3213C21.5423 9.39661 21.6258 9.45741 21.5307 9.5895ZM21.1859 10.434C21.1859 10.7392 20.9406 10.9865 20.6377 10.9865C20.3349 10.9865 20.0896 10.7392 20.0896 10.434C20.0896 10.1287 20.3349 9.88145 20.6377 9.88145C20.9406 9.88145 21.1859 10.1287 21.1859 10.434Z" fill="#0F1829"/>
</svg>
