<svg width="16" height="18" viewBox="0 0 16 18" fill="none" xmlns="http://www.w3.org/2000/svg">
<path d="M11.474 7.12144C11.4806 7.11318 11.4872 7.10548 11.4932 7.09722C11.4855 7.09447 11.4779 7.09172 11.4702 7.08897C11.4718 7.09942 11.4729 7.11043 11.474 7.12144ZM1.42278 12.6094C1.42278 12.6094 3.46572 14.7844 3.67035 16.0227L3.93915 16.9962L6.52575 17.1151L6.58884 16.5587C6.58884 16.5587 7.31681 15.2296 7.1259 14.0486C7.1259 14.0486 7.34534 13.9209 6.11321 11.8015C6.11321 11.8015 5.13343 9.46094 5.21298 8.86492C5.21298 8.86492 4.86737 7.34928 4.37583 7.27278C4.37583 7.27278 3.52716 7.13409 3.98743 9.28208L4.15859 11.3249C4.15859 11.3249 3.26768 10.6849 3.22928 9.55945L2.79809 6.76261C2.79809 6.76261 3.50028 3.22612 2.27912 3.15897L1.17537 6.75491C1.17537 6.75491 1.03493 7.32836 1.02395 8.40043L0.69919 11.3706C0.69919 11.3706 0.592216 11.8522 1.42278 12.6094ZM5.15812 7.12144C5.15921 7.11043 5.16031 7.09942 5.16196 7.08897C5.15428 7.09172 5.1466 7.09392 5.13892 7.09722C5.14495 7.10548 5.15153 7.11318 5.15812 7.12144ZM9.50568 14.0475C9.31477 15.2285 10.0427 16.5576 10.0427 16.5576L10.1058 17.114L12.6924 16.9951L12.9612 16.0216C13.1659 14.7833 15.2088 12.6083 15.2088 12.6083C16.0394 11.8511 15.9324 11.3695 15.9324 11.3695L15.6082 8.39933C15.5972 7.32726 15.4568 6.75381 15.4568 6.75381L14.3519 3.15732C13.1308 3.22502 13.8329 6.76096 13.8329 6.76096L13.4018 9.5578C13.3634 10.6827 12.4724 11.3233 12.4724 11.3233L12.6436 9.28043C13.1044 7.13189 12.2552 7.27113 12.2552 7.27113C11.7642 7.34763 11.4186 8.86327 11.4186 8.86327C11.4982 9.45929 10.5184 11.7999 10.5184 11.7999C9.28625 13.9198 9.50568 14.0469 9.50568 14.0469V14.0475ZM5.29088 4.29488C5.29197 4.28442 5.29362 4.27342 5.29472 4.26296C5.28704 4.26571 5.27881 4.26846 5.27168 4.27121C5.27771 4.27947 5.28484 4.28718 5.29088 4.29543V4.29488ZM7.13249 2.20138C7.13249 2.46719 7.34698 2.68238 7.61195 2.68238H9.17653C9.44149 2.68238 9.65599 2.46719 9.65599 2.20138V2.17276C9.65599 1.90695 9.44149 1.69176 9.17653 1.69176H7.61195C7.34698 1.69176 7.13249 1.90695 7.13249 2.17276V2.20138ZM7.27018 2.18707C7.27018 2.05499 7.37661 1.9119 7.50827 1.9119H9.08162C9.21273 1.9119 9.31971 2.05499 9.31971 2.18707C9.31971 2.31915 9.21328 2.46224 9.08162 2.46224H7.50827C7.37716 2.46224 7.27018 2.3186 7.27018 2.18707ZM5.76102 3.34279H10.9177V2.10012C10.9177 1.5883 10.4772 0.976318 9.9632 0.976318H6.70678C6.20043 0.976318 5.76102 1.57949 5.76102 2.10012V3.34279ZM6.09017 2.10012C6.09017 1.72148 6.34197 1.19646 6.70678 1.19646H9.9632C10.3379 1.19646 10.6435 1.72754 10.6435 2.10012V3.06762H6.09017V2.10012ZM6.65192 4.82871H7.13249V5.27889L7.44463 5.50453L7.13249 5.55736V6.05377L7.56039 6.62283L7.13249 6.77417V7.3069L7.53241 7.64921L7.13249 7.83853V8.89739L8.31195 10.1362L9.49142 8.89739V4.82871H9.90834C10.4322 4.82871 10.8629 4.98171 10.8629 4.47869V3.78306H5.70616V4.47869C5.70616 4.99932 6.14722 4.82871 6.65192 4.82871ZM6.65192 4.71864C6.28492 4.71864 6.09017 4.86173 6.09017 4.47869V4.22334H10.6435V4.47869C10.6435 4.84247 10.2935 4.71864 9.90834 4.71864H9.27198V8.79668L8.31195 9.76032L7.35192 8.79668V8.00198L7.81713 7.7125L7.35192 7.18913V6.95633L7.79244 6.7483L7.35192 5.96737V5.7742L7.90984 5.65532L7.35192 5.14681V4.71809H6.65192V4.71864ZM8.74424 8.38832C8.74424 8.40208 8.74204 8.41474 8.73985 8.42795C8.74204 8.42354 8.74424 8.41914 8.74424 8.41364V8.38832ZM8.06509 5.10058V8.38832C8.06509 8.54737 8.25654 8.516 8.41509 8.516H8.45788C8.6027 8.516 8.7212 8.46867 8.7404 8.32889C8.73546 8.33824 8.72559 8.40593 8.71462 8.40593H8.62081C8.60435 8.40593 8.72339 8.43015 8.72339 8.41309V5.15231C8.72339 5.13525 8.6038 5.15892 8.62081 5.15892H8.71462C8.73107 5.15892 8.83366 5.1358 8.83366 5.15231V5.10003C8.83366 4.94153 8.61642 4.77313 8.45843 4.77313H8.41564C8.25709 4.77313 8.06564 4.94098 8.06564 5.10003L8.06509 5.10058Z" fill="#FF7400"/>
</svg>
