<svg width="176" height="176" viewBox="0 0 176 176" fill="none" xmlns="http://www.w3.org/2000/svg">
<g filter="url(#filter0_d_7_12)">
<rect x="136.396" y="27" width="96.3964" height="96.3964" rx="11.4369" transform="rotate(90 136.396 27)" fill="#FF7400"/>
<rect x="135.579" y="27.8169" width="94.7626" height="94.7626" rx="10.6199" transform="rotate(90 135.579 27.8169)" stroke="#EEEEEE" stroke-width="1.63384"/>
</g>
<path d="M74.0452 77.6735H68.4885V99.3795H74.0452V77.6735Z" fill="#0F1829" stroke="#EEEEEE" stroke-width="1.0593" stroke-miterlimit="10" stroke-linecap="round"/>
<path d="M83.6027 73.7865H78.046V99.3934H83.6027V73.7865Z" fill="#0F1829" stroke="#EEEEEE" stroke-width="1.0593" stroke-miterlimit="10" stroke-linecap="round"/>
<path d="M92.5214 69.0496H86.9647V99.3794H92.5214V69.0496Z" fill="#0F1829" stroke="#EEEEEE" stroke-width="1.0593" stroke-miterlimit="10" stroke-linecap="round"/>
<path d="M79.0183 44C66.8631 44 57 53.8917 57 66.0961C57 78.3005 66.8631 88.1782 79.0183 88.1782C91.1736 88.1782 101.051 78.2866 101.051 66.0961C101.051 53.9056 91.1875 44 79.0183 44ZM78.8516 84.0405C68.9608 84.0405 60.9452 76.0017 60.9452 66.0822C60.9452 56.1626 68.9608 48.1378 78.8516 48.1378C88.7425 48.1378 96.7442 56.1765 96.7442 66.0961C96.7442 76.0156 88.7286 84.0544 78.8516 84.0544V84.0405Z" fill="#EEEEEE"/>
<path d="M118.888 102.918L115.915 105.9C115.095 106.722 113.775 106.722 112.956 105.9L89.3538 82.2014L95.2716 76.2664L118.888 99.9507C119.707 100.773 119.707 102.096 118.888 102.918Z" fill="#EEEEEE"/>
<path d="M78.1152 51.6626C83.5608 51.6626 88.2979 54.6998 90.7428 59.1719" stroke="#EEEEEE" stroke-width="1.0593" stroke-miterlimit="10" stroke-linecap="round"/>
<defs>
<filter id="filter0_d_7_12" x="0.787838" y="0.858599" width="174.821" height="174.821" filterUnits="userSpaceOnUse" color-interpolation-filters="sRGB">
<feFlood flood-opacity="0" result="BackgroundImageFix"/>
<feColorMatrix in="SourceAlpha" type="matrix" values="0 0 0 0 0 0 0 0 0 0 0 0 0 0 0 0 0 0 127 0" result="hardAlpha"/>
<feOffset dy="13.0707"/>
<feGaussianBlur stdDeviation="19.6061"/>
<feComposite in2="hardAlpha" operator="out"/>
<feColorMatrix type="matrix" values="0 0 0 0 0 0 0 0 0 0 0 0 0 0 0 0 0 0 0.15 0"/>
<feBlend mode="normal" in2="BackgroundImageFix" result="effect1_dropShadow_7_12"/>
<feBlend mode="normal" in="SourceGraphic" in2="effect1_dropShadow_7_12" result="shape"/>
</filter>
</defs>
</svg>
