<svg width="104" height="103" viewBox="0 0 104 103" fill="none" xmlns="http://www.w3.org/2000/svg">
<path d="M60.8113 32.4999C60.4108 32.0999 47.9608 32.3332 41.7858 32.4999L41.2852 32.5V55H60.3106C60.4775 55 60.9114 54.8 61.312 54C61.8126 53 61.312 32.9999 60.8113 32.4999Z" fill="white"/>
<g filter="url(#filter0_d_148_6)">
<rect x="77.0166" y="17.4553" width="50.4369" height="50.5045" rx="7.62121" transform="rotate(90 77.0166 17.4553)" fill="#EEEEEE"/>
<rect x="76.4722" y="17.9997" width="49.3481" height="49.4157" rx="7.07684" transform="rotate(90 76.4722 17.9997)" stroke="white" stroke-width="1.08874"/>
</g>
<path d="M47.8491 50.1951H58.9169V49.0436H47.8491V50.1951ZM58.9169 43.4323H47.8491V44.5839H58.9169V43.4323ZM58.9169 37.5334H47.8491V38.8288H58.9169V37.5334ZM44.441 39.8446C44.5167 39.9205 44.6185 39.9625 44.7228 39.9625C44.742 39.9625 44.7611 39.9607 44.7802 39.958C44.9046 39.9393 45.0134 39.8633 45.0751 39.7508L46.5947 36.976C46.7043 36.7768 46.6356 36.5275 46.4408 36.4149C46.4121 36.398 46.3816 36.3819 46.3503 36.3819H46.1311C46.0319 36.5257 45.9441 36.4739 45.8902 36.5731L44.628 38.8753L43.6112 37.8568C43.4511 37.6969 43.1954 37.6996 43.0397 37.864C42.884 38.0284 42.8875 38.291 43.0475 38.4509L44.441 39.8446ZM60.6549 31.4898H59.6763C59.6885 31.6336 59.7015 31.5345 59.7137 31.5765L59.7737 31.7507L59.7946 31.8079L59.7981 31.8034C59.8024 31.8195 59.8042 31.8329 59.8085 31.8489L60.233 33.3025C60.714 33.5803 61.0193 34.0868 61.0193 34.6899L61.0192 52.6732C61.0192 53.5907 60.3712 54.5555 59.4787 54.5555H51.3757H43.2727C42.3803 54.5555 41.6844 53.5907 41.6844 52.6732L41.6845 34.689C41.6845 34.1217 41.9263 33.6375 42.3525 33.3516L42.8822 31.5273C42.8892 31.5032 42.8762 31.6336 42.8831 31.4898H42.1081C41.0852 31.4898 40.284 32.2242 40.284 33.2765L40.2839 54.0722C40.2839 55.1246 41.0851 56.1377 42.1089 56.1377H60.7009C61.7255 56.1377 62.4188 55.1246 62.4188 54.0722L62.4189 33.2765C62.4189 32.2242 61.6795 31.4898 60.6549 31.4898ZM44.441 51.2163C44.5167 51.2922 44.6185 51.3342 44.7228 51.3342C44.742 51.3342 44.7611 51.3324 44.7802 51.3297C44.9046 51.311 45.0134 51.235 45.0751 51.1225L46.5947 48.3486C46.7043 48.1484 46.6356 47.8956 46.4408 47.783C46.2468 47.6705 45.9998 47.742 45.8902 47.9412L44.628 50.2452L43.6112 49.2276C43.4511 49.0686 43.1954 49.0713 43.0397 49.2357C42.884 49.4 42.8875 49.6627 43.0475 49.8226L44.441 51.2163ZM44.441 45.572C44.5167 45.6479 44.6185 45.6899 44.7228 45.6899C44.742 45.6899 44.7611 45.6881 44.7802 45.6854C44.9046 45.6667 45.0134 45.5907 45.0751 45.4782L46.5947 42.7034C46.7043 42.5032 46.6356 42.2504 46.4408 42.1379C46.2468 42.0253 45.9998 42.0968 45.8902 42.296L44.628 44.6L43.6112 43.5824C43.4511 43.4225 43.1954 43.4261 43.0397 43.5905C42.884 43.7549 42.8875 44.0175 43.0475 44.1774L44.441 45.572ZM44.5828 34.9427H57.994C58.5246 34.9427 59.1092 34.3522 58.9552 33.7983L58.3828 32.016C58.2193 31.4416 57.9523 31.0574 57.4217 31.0574H53.4717C53.3752 29.762 52.4331 29 51.2884 29C50.1437 29 49.2017 29.762 49.1051 31.0574H45.1551C44.6245 31.0574 44.3592 31.3817 44.194 31.9588L43.6216 33.8626C43.4729 34.3611 44.0522 34.9427 44.5828 34.9427ZM51.2884 29.98C51.9069 29.98 52.4201 30.6259 52.5114 31.0574H50.0645C50.1576 30.6259 50.6699 29.98 51.2884 29.98Z" fill="#0F1829"/>
<defs>
<filter id="filter0_d_148_6" x="0.382349" y="0.0354166" width="102.764" height="102.697" filterUnits="userSpaceOnUse" color-interpolation-filters="sRGB">
<feFlood flood-opacity="0" result="BackgroundImageFix"/>
<feColorMatrix in="SourceAlpha" type="matrix" values="0 0 0 0 0 0 0 0 0 0 0 0 0 0 0 0 0 0 127 0" result="hardAlpha"/>
<feOffset dy="8.70995"/>
<feGaussianBlur stdDeviation="13.0649"/>
<feComposite in2="hardAlpha" operator="out"/>
<feColorMatrix type="matrix" values="0 0 0 0 0 0 0 0 0 0 0 0 0 0 0 0 0 0 0.15 0"/>
<feBlend mode="normal" in2="BackgroundImageFix" result="effect1_dropShadow_148_6"/>
<feBlend mode="normal" in="SourceGraphic" in2="effect1_dropShadow_148_6" result="shape"/>
</filter>
</defs>
</svg>
