<svg width="104" height="104" viewBox="0 0 104 104" fill="none" xmlns="http://www.w3.org/2000/svg">
<g filter="url(#filter0_d_28_5)">
<rect x="77.6063" y="17.9429" width="50.8129" height="50.881" rx="7.67802" transform="rotate(90 77.6063 17.9429)" fill="#EEEEEE"/>
<rect x="77.0579" y="18.4913" width="49.716" height="49.7841" rx="7.12959" transform="rotate(90 77.0579 18.4913)" stroke="white" stroke-width="1.09686"/>
</g>
<g clip-path="url(#clip0_28_5)">
<path d="M53.3295 35.2802L53.3513 34.3458C53.3513 34.2697 53.373 34.2045 53.4056 34.1393L55.2862 30.2169C55.4275 29.9344 55.384 29.6193 55.1775 29.3912C54.971 29.1521 54.6666 29.0652 54.3731 29.1521L51.5794 30.0214C51.2532 30.1191 50.9054 30.13 50.5793 30.0322L47.0246 29.0326C46.7311 28.9457 46.4376 29.0326 46.2419 29.2716C46.0463 29.4998 45.9919 29.804 46.1224 30.0757L47.829 33.9655C47.8617 34.0307 47.8725 34.0959 47.8725 34.1611V35.2802H53.3404H53.3295Z" fill="#0F1829"/>
<path d="M50.6445 50.1548C53.3621 50.1548 55.5688 47.9492 55.5688 45.2328C55.5688 42.5165 53.3621 40.3108 50.6445 40.3108C47.9269 40.3108 45.7202 42.5165 45.7202 45.2328C45.7202 47.9492 47.9269 50.1548 50.6445 50.1548ZM50.1444 42.0493V41.3648C50.1444 41.0931 50.3727 40.865 50.6445 40.865C50.9163 40.865 51.1445 41.0931 51.1445 41.3648V42.0493C52.0577 42.2449 52.7534 42.9837 52.7534 43.8638C52.7534 44.1354 52.5251 44.3636 52.2533 44.3636C51.9816 44.3636 51.7533 44.1354 51.7533 43.8638C51.7533 43.3857 51.2641 42.9946 50.6554 42.9946C50.0466 42.9946 49.5574 43.3857 49.5574 43.8638C49.5574 44.3419 50.0575 44.733 50.6662 44.733C51.4924 44.733 52.2425 45.1676 52.5794 45.8304C52.8077 46.265 52.8295 46.7648 52.6555 47.2212C52.4599 47.721 52.0359 48.123 51.4815 48.3294C51.3728 48.3729 51.275 48.3946 51.1663 48.4164V49.1009C51.1663 49.3725 50.938 49.6007 50.6662 49.6007C50.3945 49.6007 50.1662 49.3725 50.1662 49.1009V48.4272C49.5574 48.2969 49.0248 47.9274 48.753 47.3842C48.6661 47.2212 48.6117 47.0473 48.59 46.8735C48.5465 46.6019 48.7313 46.3411 49.003 46.2976C49.2748 46.2542 49.5357 46.4389 49.5792 46.7105C49.5901 46.7866 49.6118 46.8518 49.6553 46.9278C49.8944 47.395 50.5793 47.6123 51.1445 47.395C51.4272 47.2864 51.6446 47.0908 51.7315 46.8626C51.8076 46.6779 51.7968 46.4715 51.6989 46.2868C51.5359 45.9608 51.1228 45.7326 50.6771 45.7326C49.514 45.7326 48.5682 44.896 48.5682 43.8638C48.5682 42.9837 49.2531 42.2557 50.1771 42.0493H50.1444Z" fill="#0F1829"/>
<path d="M50.6445 57C53.623 57 56.1884 56.1742 57.9495 54.6748C57.319 53.8708 56.9494 52.8494 56.9494 51.7629V46.3194C56.9494 46.1672 57.0146 46.026 57.1342 45.9391C57.2538 45.8413 57.3951 45.8087 57.5473 45.8304C58.7104 46.0477 59.6561 45.8304 60.3627 45.4827C59.4822 41.43 56.9059 37.8009 53.8187 36.3015H47.4812C43.6222 38.1704 40.611 43.4075 40.611 48.2751C40.611 54.7074 45.7963 56.9891 50.6445 56.9891V57ZM51.8294 55.9569C51.8294 55.9569 51.7207 56.0438 51.6663 56.0656C51.6011 56.0873 51.5467 56.109 51.4815 56.109C51.3511 56.109 51.2206 56.0547 51.1228 55.9569C51.025 55.8591 50.9815 55.7396 50.9815 55.5984C50.9815 55.5332 50.9923 55.468 51.025 55.4028C51.0467 55.3485 51.0902 55.2833 51.1337 55.2398C51.2532 55.1203 51.4272 55.066 51.5794 55.0986C51.612 55.0986 51.6446 55.1203 51.6772 55.1312C51.7098 55.142 51.7424 55.1638 51.7642 55.1746C51.7968 55.1964 51.8185 55.2181 51.8402 55.2398C51.8837 55.2833 51.9163 55.3376 51.949 55.4028C51.9707 55.468 51.9924 55.5332 51.9924 55.5984C51.9924 55.7288 51.9381 55.8591 51.8511 55.9569H51.8294ZM50.6445 39.3112C53.9165 39.3112 56.5689 41.9732 56.5689 45.2328C56.5689 48.4924 53.9056 51.1544 50.6445 51.1544C47.3833 51.1544 44.7201 48.4924 44.7201 45.2328C44.7201 41.9732 47.3833 39.3112 50.6445 39.3112ZM41.959 49.981C42.2199 49.8941 42.5025 50.0353 42.5895 50.2961C42.883 51.1436 43.6222 52.7299 45.3506 53.8925C47.0898 55.066 48.8617 55.142 49.764 55.0877C50.0575 55.0877 50.2749 55.2833 50.2966 55.5549C50.3184 55.8265 50.101 56.0656 49.8292 56.0873C49.6879 56.0873 49.5357 56.0982 49.3618 56.0982C48.2639 56.0982 46.5246 55.87 44.807 54.7183C42.8395 53.3927 41.9916 51.5782 41.6655 50.622C41.5785 50.3613 41.7198 50.0788 41.9807 49.9919L41.959 49.981Z" fill="#0F1829"/>
<path d="M59.0257 54.3706C59.2431 54.5879 59.4931 54.7726 59.7648 54.9247C59.9279 55.0117 60.1018 55.0986 60.2758 55.1638C61.3411 55.5549 61.9498 55.87 62.3085 56.0982C62.6564 55.8592 63.276 55.5441 64.3413 55.1638C64.4609 55.1203 64.5805 55.066 64.6892 55.0117C65.8849 54.4249 66.6567 53.1428 66.6567 51.7412V46.8844C64.45 47.0799 62.9716 45.9717 62.3085 45.3089C61.6454 45.9717 60.1671 47.0908 57.9603 46.8844V51.7521C57.9603 52.7625 58.3517 53.6969 59.0257 54.3597V54.3706Z" fill="#0F1829"/>
</g>
<defs>
<filter id="filter0_d_28_5" x="0.400694" y="0.393105" width="103.53" height="103.462" filterUnits="userSpaceOnUse" color-interpolation-filters="sRGB">
<feFlood flood-opacity="0" result="BackgroundImageFix"/>
<feColorMatrix in="SourceAlpha" type="matrix" values="0 0 0 0 0 0 0 0 0 0 0 0 0 0 0 0 0 0 127 0" result="hardAlpha"/>
<feOffset dy="8.77488"/>
<feGaussianBlur stdDeviation="13.1623"/>
<feComposite in2="hardAlpha" operator="out"/>
<feColorMatrix type="matrix" values="0 0 0 0 0 0 0 0 0 0 0 0 0 0 0 0 0 0 0.15 0"/>
<feBlend mode="normal" in2="BackgroundImageFix" result="effect1_dropShadow_28_5"/>
<feBlend mode="normal" in="SourceGraphic" in2="effect1_dropShadow_28_5" result="shape"/>
</filter>
<clipPath id="clip0_28_5">
<rect width="26.0348" height="28" fill="white" transform="translate(40.611 29)"/>
</clipPath>
</defs>
</svg>
