<svg width="24" height="25" viewBox="0 0 24 25" fill="none" xmlns="http://www.w3.org/2000/svg">
<path d="M23.9497 22.0638C23.9497 22.597 23.742 23.0986 23.3648 23.4758C22.9877 23.853 22.4862 24.0607 21.9528 24.0607C21.4194 24.0607 20.918 23.853 20.5409 23.4758L18.5658 21.5008L16.8854 19.8206L12.6187 15.5539C13.1759 15.189 13.6961 14.7657 14.1753 14.2866C14.5281 13.9338 14.8506 13.5587 15.1417 13.1628C15.2463 13.0211 15.3464 12.8767 15.4426 12.7297L18.0769 15.364L23.0217 20.3088L23.3648 20.6519C23.6052 20.8923 23.7767 21.1832 23.8695 21.5005C23.9223 21.6811 23.9497 21.8703 23.9497 22.0638Z" fill="white"/>
<path d="M17.457 7.73361C17.4239 7.53379 17.3833 7.33489 17.3358 7.13785C17.2878 6.93757 17.2324 6.73891 17.1696 6.5421C16.7692 5.28476 16.0712 4.10252 15.0756 3.10713C14.5658 2.59737 14.0067 2.16528 13.414 1.81177C13.0296 1.58227 12.6311 1.3857 12.2222 1.22204C11.2022 0.813356 10.1187 0.609131 9.0357 0.609131C7.95267 0.609131 6.88355 0.810575 5.86959 1.21369C5.46091 1.37619 5.06219 1.57115 4.67784 1.79925C4.07721 2.15531 3.51113 2.59135 2.99534 3.10713C1.9997 4.10275 1.30171 5.28476 0.901605 6.5421C0.838552 6.73891 0.783148 6.9378 0.735395 7.13785C0.687641 7.33512 0.647306 7.53379 0.614157 7.73361C0.519809 8.30062 0.482719 8.87528 0.502886 9.44855C0.509841 9.64837 0.523749 9.84819 0.544844 10.0471C0.555276 10.1463 0.56733 10.2453 0.581239 10.3443C0.595148 10.443 0.610679 10.5418 0.628065 10.6403C0.719632 11.1614 0.859879 11.6753 1.04857 12.1753C1.09795 12.3065 1.15104 12.4368 1.20737 12.5659C1.62185 13.5182 2.21784 14.4098 2.99557 15.1873C3.24825 15.4399 3.51298 15.6734 3.78791 15.8876C4.16716 16.1836 4.56611 16.4427 4.97966 16.6657C6.24096 17.3454 7.63856 17.6853 9.03593 17.6853C10.4333 17.6853 11.8462 17.3417 13.1131 16.6544C13.5266 16.4302 13.9256 16.1692 14.3048 15.8713C14.5723 15.6618 14.8299 15.4337 15.0763 15.1873C15.8672 14.3963 16.4704 13.4881 16.8854 12.5175C16.934 12.4044 16.9799 12.2901 17.0233 12.1753C17.212 11.6756 17.3522 11.1614 17.444 10.6403C17.4614 10.5418 17.4769 10.4432 17.4909 10.3443C17.5048 10.2455 17.5168 10.1463 17.5272 10.0471C17.5377 9.94763 17.5465 9.84795 17.5534 9.74804C17.5569 9.6982 17.5599 9.64813 17.5625 9.59829C17.565 9.54846 17.5674 9.49838 17.569 9.44855C17.5891 8.87528 17.5518 8.30062 17.4575 7.73384L17.457 7.73361ZM9.0357 15.512C5.52048 15.512 2.67057 12.6624 2.67057 9.14696C2.67057 5.63155 5.52025 2.78213 9.0357 2.78213C12.5511 2.78213 15.4008 5.63178 15.4008 9.14719C15.4008 12.6626 12.5511 15.5123 9.0357 15.5123V15.512Z" fill="white"/>
</svg>
