<svg width="104" height="104" viewBox="0 0 104 104" fill="none" xmlns="http://www.w3.org/2000/svg">
<g filter="url(#filter0_d_148_3)">
<rect x="77.0166" y="17.7803" width="50.4369" height="50.5045" rx="7.62121" transform="rotate(90 77.0166 17.7803)" fill="#EEEEEE"/>
<rect x="76.4722" y="18.3246" width="49.3481" height="49.4157" rx="7.07684" transform="rotate(90 76.4722 18.3246)" stroke="white" stroke-width="1.08874"/>
</g>
<g clip-path="url(#clip0_148_3)">
<path d="M66.2724 42.9973H69.1083C68.9956 42.4642 68.7863 42.027 68.5019 41.6138C68.4429 41.5285 68.3812 41.4512 68.3168 41.3712C68.2926 41.3419 68.2685 41.3126 68.2444 41.2832C68.1773 41.2059 68.1102 41.1313 68.0378 41.0566C68.0163 41.0353 67.9948 41.0167 67.9734 40.9953C67.9117 40.9367 67.8473 40.878 67.7829 40.8221C67.7587 40.8007 67.7319 40.7794 67.7078 40.7581C67.6273 40.6914 67.5414 40.6301 67.4556 40.5715C67.4287 40.5528 67.4019 40.5368 67.3751 40.5182C67.2919 40.4648 67.2087 40.4142 67.1229 40.3662C67.1095 40.3582 67.0961 40.3502 67.08 40.3422C66.9834 40.2889 66.8814 40.2436 66.7795 40.1983C66.7526 40.1876 66.7258 40.1743 66.699 40.1636C66.5943 40.121 66.4897 40.081 66.3824 40.049C66.3636 40.0437 66.3421 40.0383 66.3234 40.033C66.2241 40.0037 66.1221 39.977 66.0175 39.9557C65.996 39.9503 65.9746 39.945 65.9558 39.9424C65.8404 39.9184 65.7251 39.9024 65.607 39.889C65.5802 39.8864 65.556 39.8837 65.5292 39.881C65.4058 39.8704 65.285 39.8624 65.159 39.8624L60.1901 39.5851L57.5689 37.4339C56.7452 36.7594 55.8303 36.2156 54.8564 35.8211C54.7169 35.7651 54.5398 35.7118 54.4003 35.6611C53.2681 35.2559 52.152 35.0213 50.8105 35.0213V35H39.0699L33.5671 39.8144L33.5 41.1313H35.5176V42.9973H33.4142L33.2747 45.6924C33.2747 46.7454 34.3639 47.5985 35.8396 47.8597C35.8825 45.8604 37.5298 44.1756 39.5501 44.1756C41.5704 44.1756 43.266 45.9297 43.266 47.7957H58.5267C58.5267 45.9297 60.1928 44.1036 62.2426 44.1036C64.2924 44.1036 65.9585 45.9297 65.9585 47.7957H69.3202V44.5968H67.4851L66.2724 42.9973ZM50.8829 37.1326C52.8522 37.1326 54.7705 37.7271 56.2891 38.9747L57.0779 39.5318H47.8592V37.1326H50.8829ZM45.7129 37.1326V39.5318H39.7191C40.6045 38.7321 41.5006 37.9324 42.3994 37.1326H45.7102H45.7129Z" fill="#0F1829"/>
<path d="M39.55 44.8207C37.8356 44.8207 36.4404 46.2069 36.4404 47.9104C36.4404 49.6138 37.8356 51 39.55 51C41.2644 51 42.6595 49.6138 42.6595 47.9104C42.6595 46.2069 41.2644 44.8207 39.55 44.8207ZM39.55 49.142C38.8658 49.142 38.3105 48.5902 38.3105 47.9104C38.3105 47.2306 38.8658 46.6788 39.55 46.6788C40.2341 46.6788 40.7895 47.2306 40.7895 47.9104C40.7895 48.5902 40.2341 49.142 39.55 49.142Z" fill="#0F1829"/>
<path d="M62.2426 44.8207C60.5282 44.8207 59.1331 46.2069 59.1331 47.9104C59.1331 49.6138 60.5282 51 62.2426 51C63.957 51 65.3522 49.6138 65.3522 47.9104C65.3522 46.2069 63.957 44.8207 62.2426 44.8207ZM62.2426 49.142C61.5585 49.142 61.0031 48.5902 61.0031 47.9104C61.0031 47.2306 61.5585 46.6788 62.2426 46.6788C62.9268 46.6788 63.4821 47.2306 63.4821 47.9104C63.4821 48.5902 62.9268 49.142 62.2426 49.142Z" fill="#0F1829"/>
</g>
<defs>
<filter id="filter0_d_148_3" x="0.382349" y="0.360368" width="102.764" height="102.697" filterUnits="userSpaceOnUse" color-interpolation-filters="sRGB">
<feFlood flood-opacity="0" result="BackgroundImageFix"/>
<feColorMatrix in="SourceAlpha" type="matrix" values="0 0 0 0 0 0 0 0 0 0 0 0 0 0 0 0 0 0 127 0" result="hardAlpha"/>
<feOffset dy="8.70995"/>
<feGaussianBlur stdDeviation="13.0649"/>
<feComposite in2="hardAlpha" operator="out"/>
<feColorMatrix type="matrix" values="0 0 0 0 0 0 0 0 0 0 0 0 0 0 0 0 0 0 0.15 0"/>
<feBlend mode="normal" in2="BackgroundImageFix" result="effect1_dropShadow_148_3"/>
<feBlend mode="normal" in="SourceGraphic" in2="effect1_dropShadow_148_3" result="shape"/>
</filter>
<clipPath id="clip0_148_3">
<rect width="36.0482" height="16" fill="white" transform="translate(33.2747 35)"/>
</clipPath>
</defs>
</svg>
