<svg width="21" height="21" viewBox="0 0 21 21" fill="none" xmlns="http://www.w3.org/2000/svg">
<g clip-path="url(#clip0_66_102)">
<path d="M10.4687 0.244019C8.15236 0.244019 6.24182 1.75366 5.98828 3.69482H14.9492C14.6952 1.75366 12.7847 0.244019 10.4687 0.244019Z" fill="#0F1829"/>
<path d="M12.9625 12.6203V13.3588C12.9625 14.7026 11.8381 15.8059 10.4687 15.8059C9.09929 15.8059 7.97492 14.7026 7.97492 13.3588V12.6038C4.96508 14.1469 0.628418 13.9392 0.628418 18.3854V20.924H20.2744V18.3854C20.2744 13.9558 15.9713 14.1465 12.962 12.6203H12.9625Z" fill="#0F1829"/>
<path d="M5.86137 5.29586H5.89542C5.85332 5.53621 5.82778 5.80183 5.82778 6.07573V8.05825C5.82778 10.4392 7.9157 13.6657 10.4686 13.6657C13.0215 13.6657 15.1014 10.4387 15.1014 8.05825V6.07573C15.1014 5.80183 15.0843 5.53667 15.0422 5.29586H15.0763C15.4481 5.29586 15.4481 3.94385 15.0763 3.94385H5.86137C5.48957 3.94385 5.48957 5.29586 5.86137 5.29586ZM10.4686 13.4167C8.18627 13.4167 6.35189 10.6543 6.10639 8.5224C7.73784 9.38499 9.24252 9.61752 10.4686 8.36477C11.6942 9.61752 13.1989 9.38499 14.8223 8.5224C14.5858 10.6543 12.7514 13.4167 10.4686 13.4167ZM6.79984 7.32802C6.79984 6.92177 7.43369 6.59824 8.21985 6.59824C9.00601 6.59824 9.63986 6.92177 9.63986 7.32802C9.63986 7.73426 9.00601 8.05779 8.21985 8.05779C7.43369 8.05779 6.79984 7.72599 6.79984 7.32802ZM11.2973 7.32802C11.2973 6.92177 11.9312 6.59824 12.7173 6.59824C13.5035 6.59824 14.1374 6.92177 14.1374 7.32802C14.1374 7.73426 13.495 8.05779 12.7173 8.05779C11.9397 8.05779 11.2973 7.72599 11.2973 7.32802ZM6.14896 5.29586H14.7887C14.8308 5.53621 14.8478 5.79356 14.8478 6.06745C13.3011 5.57803 7.63709 5.57803 6.08132 6.06745C6.08132 5.79356 6.10686 5.53667 6.14896 5.29586Z" fill="#0F1829"/>
</g>
<defs>
<clipPath id="clip0_66_102">
<rect width="19.646" height="20.68" fill="white" transform="translate(0.628418 0.244019)"/>
</clipPath>
</defs>
</svg>
