<svg width="37" height="17" viewBox="0 0 37 17" fill="none" xmlns="http://www.w3.org/2000/svg">
<path d="M27.3082 13.3709L28.4764 11.0606H31.8637C31.1969 10.2544 30.1873 9.74014 29.0553 9.74014C27.6399 9.74014 26.4105 10.5497 25.8075 11.7294H10.1966C9.69261 11.052 8.88454 10.6133 7.97309 10.6133C6.44482 10.6133 5.20687 11.8479 5.20687 13.3701C5.20687 14.8923 6.44568 16.1268 7.97309 16.1268C8.81821 16.1268 9.57373 15.7491 10.0811 15.1541L25.8825 15.1481C26.507 16.2539 27.6959 16.9974 29.0544 17C30.1856 16.9983 31.1935 16.4848 31.8603 15.6795H28.4747L27.3065 13.3692L27.3082 13.3709ZM8.89574 15.0176H6.98842L6.03476 13.3709L6.98842 11.7251H8.89574L9.8494 13.3709L8.89574 15.0176Z" fill="white"/>
<path d="M35.5964 10.366L35.0063 5.59598C34.8926 4.67992 34.2068 4.13045 33.1627 4.13045H31.874L27.8715 0.535731C27.4856 0.190597 26.9868 8.89408e-07 26.4681 8.89408e-07H18.3357C16.5111 -0.000857653 14.7408 0.619869 13.3185 1.76001L8.78277 5.39422L2.68088 6.91127C1.8978 7.10702 1.34731 7.80845 1.34731 8.61376V10.3643C1.08886 10.3652 0.878662 10.5755 0.878662 10.8322V13.1503C0.878662 13.4808 1.14658 13.7478 1.47912 13.7478H4.05495C4.04289 13.6234 4.036 13.498 4.036 13.3709C4.036 11.2074 5.8029 9.44654 7.97383 9.44654C9.00331 9.44654 9.99315 9.85521 10.7237 10.5627H25.1544C25.4955 10.0905 25.9151 9.69037 26.3889 9.37529C27.1625 8.85329 28.0955 8.54765 29.1 8.54765C31.7723 8.54765 33.9389 10.7069 33.9389 13.3701C33.9389 13.4971 33.9329 13.6225 33.9226 13.747H35.593C35.9238 13.747 36.1917 13.4791 36.1917 13.1494V10.9636C36.1969 10.6339 35.9272 10.3643 35.5964 10.3643V10.366ZM23.527 5.07742H12.1813L14.354 3.33716C15.5342 2.38932 17.0005 1.87506 18.5158 1.87506H23.527V5.07742ZM25.412 5.07742V1.87592H26.1503C26.4061 1.87592 26.6525 1.97036 26.842 2.14121L29.1568 5.07656H25.412V5.07742Z" fill="white"/>
</svg>
