<svg width="13" height="11" viewBox="0 0 13 11" fill="none" xmlns="http://www.w3.org/2000/svg">
<path d="M12.3493 9.26L7.44309 0.620838C7.06144 -0.0505748 6.43737 -0.0527074 6.05572 0.618706L1.1492 9.26106C0.767547 9.93248 1.07993 10.4894 1.84288 10.4894H11.6556C12.4185 10.4894 12.7309 9.93141 12.3493 9.26ZM2.8584 9.08761L6.74941 2.24019L10.6401 9.08761H2.8584ZM6.75256 7.49918C6.40274 7.49918 6.15822 7.7455 6.15822 8.10768C6.15822 8.46987 6.39609 8.71618 6.73926 8.71618H6.75256C7.10902 8.71618 7.34025 8.45636 7.34025 8.10768C7.3336 7.7455 7.10272 7.49918 6.75256 7.49918ZM6.37615 6.98451H7.12896L7.27413 3.93312H6.23098L6.37615 6.98451Z" fill="#0F1829"/>
</svg>
