  <svg width="15" height="8" viewBox="0 0 15 8" fill="none" xmlns="http://www.w3.org/2000/svg">
                <path
                  d="M14.0427 6.9852H13.7198C13.7198 6.9852 13.7243 6.70083 13.7243 6.54956C13.7243 5.69287 13.0255 4.98858 12.1756 4.98858C11.3256 4.98858 10.6268 5.68883 10.6268 6.54956C10.6268 6.70083 10.6302 6.9852 10.6302 6.9852L4.5045 6.97667C4.5045 6.97667 4.50272 6.70083 4.50272 6.54956C4.50272 5.68883 3.80796 4.98858 2.95399 4.98858C2.10002 4.98858 1.40526 5.68973 1.40526 6.54956C1.40526 6.70083 1.40325 6.9852 1.40325 6.9852H1.28612C1.02782 6.9852 1.1661 6.66313 0.985953 6.14579C0.899999 5.89868 1.13203 5.63654 1.11711 5.48257C1.11043 5.41412 1.05253 5.31155 1.09841 5.2606C1.14428 5.20965 1.2289 5.23165 1.2289 5.23165C1.2289 5.23165 1.48364 4.05401 1.74061 3.94044C1.88825 3.87535 2.1715 4.15792 2.37792 4.09261C2.58924 4.02595 2.85 3.53869 3.08203 3.47764C3.30181 3.41996 3.32764 3.77368 3.52961 3.7261C3.68282 3.68996 3.89458 3.32255 4.01951 3.29495C4.31099 3.23031 4.50517 3.19126 4.50517 3.19126C5.14537 2.61332 6.39972 1.58538 7.49641 1.12461C8.55881 0.678419 11.9484 0.641387 13.6597 1.44399C13.8742 1.54454 14.3872 3.53779 14.5257 4.70803C14.6404 4.70803 14.723 4.73249 14.7691 4.8667C14.8194 5.01259 14.9056 6.9852 14.0427 6.9852ZM7.5356 1.2375C7.09403 1.42289 5.85683 2.30831 5.12466 2.8822C5.06298 2.93046 5.03871 3.01305 5.06409 3.08734C5.08948 3.16185 5.15895 3.21168 5.23711 3.21168H8.66904C8.7541 3.21168 8.82781 3.15265 8.84696 3.06916L9.32639 0.984556C8.53387 1.02181 7.83221 1.11294 7.53583 1.2375H7.5356ZM9.68557 0.982761C9.68423 0.982761 9.66976 1.09969 9.66976 1.10104L9.47224 3.00856C9.4669 3.06041 9.4836 3.11225 9.51834 3.15086C9.55307 3.18968 9.60229 3.21168 9.65417 3.21168H12.9215C12.9304 3.21168 12.9376 3.2045 12.9376 3.19552C12.9376 1.49763 12.9006 1.33693 12.6969 1.29586C11.7714 1.06895 10.397 0.964132 9.68579 0.982536L9.68557 0.982761Z"
                  fill="#0F1829" />
                <path
                  d="M4.29555 6.54929C4.37282 7.29107 3.80365 7.89257 3.02427 7.89257C2.2449 7.89257 1.5488 7.27379 1.46953 6.51046C1.39026 5.74714 1.95942 5.14564 2.7408 5.16719C3.52218 5.18873 4.21828 5.80752 4.29555 6.54929ZM2.79157 5.65512C2.29032 5.64367 1.92491 6.02971 1.97568 6.51742C2.02645 7.00491 2.47314 7.40217 2.97372 7.40463C3.47431 7.4071 3.8395 7.02107 3.78962 6.54233C3.73974 6.0636 3.29305 5.66634 2.79157 5.65512ZM2.94723 5.84702C2.9568 5.93904 2.91137 6.08717 2.83633 6.08582C2.76129 6.08448 2.68469 5.93365 2.67511 5.84141C2.66554 5.74916 2.72655 5.75051 2.80159 5.75208C2.87664 5.75365 2.93765 5.755 2.94723 5.84702ZM2.50877 5.89191C2.57268 5.96777 2.6308 6.12443 2.57446 6.16595C2.51812 6.20769 2.36871 6.11837 2.3048 6.04228C2.24089 5.9662 2.28654 5.93253 2.34288 5.89101C2.39921 5.84949 2.44486 5.81582 2.50877 5.89168V5.89191ZM2.21328 6.18233C2.30725 6.21241 2.44642 6.31722 2.43039 6.3859C2.41436 6.4548 2.24913 6.46198 2.15516 6.43213C2.06119 6.40206 2.07433 6.34617 2.09036 6.27705C2.10639 6.20814 2.11931 6.15203 2.21328 6.18233ZM2.17364 6.60765C2.2616 6.58004 2.42883 6.59194 2.45911 6.66151C2.4894 6.73086 2.3716 6.83209 2.28364 6.85969C2.19568 6.88752 2.17119 6.83097 2.14068 6.76139C2.1104 6.69181 2.08546 6.63525 2.17342 6.60765H2.17364ZM2.40478 7.00266C2.4531 6.92815 2.58448 6.84286 2.6495 6.88618C2.71475 6.92949 2.68914 7.08503 2.6406 7.15932C2.59228 7.23384 2.5395 7.19882 2.47426 7.15551C2.40901 7.11219 2.35624 7.07718 2.40456 7.00266H2.40478ZM2.81807 7.21453C2.8085 7.12229 2.8537 6.97304 2.92874 6.97371C3.00379 6.97438 3.08017 7.12431 3.08974 7.21633C3.09932 7.30835 3.03852 7.3079 2.96348 7.30745C2.88844 7.307 2.82765 7.30678 2.81807 7.21431V7.21453ZM3.25608 7.16381C3.19217 7.08907 3.13428 6.93353 3.19039 6.89179C3.24673 6.85004 3.39592 6.93757 3.45983 7.01231C3.52374 7.08705 3.47809 7.12094 3.42175 7.16269C3.36542 7.20466 3.31977 7.23877 3.25608 7.16403V7.16381ZM3.55158 6.87294C3.45783 6.84376 3.31865 6.74074 3.33469 6.67251C3.35072 6.60428 3.51595 6.59687 3.60992 6.62628C3.70367 6.65568 3.69075 6.71089 3.67449 6.7789C3.65846 6.8469 3.64555 6.90211 3.55158 6.87294ZM3.59188 6.45323C3.50392 6.48016 3.33669 6.46827 3.30641 6.39937C3.27612 6.33046 3.39414 6.23104 3.4821 6.20433C3.57006 6.17762 3.59455 6.23328 3.62484 6.30218C3.65512 6.37086 3.67984 6.42652 3.59188 6.45346V6.45323ZM3.36119 6.06203C3.31264 6.1352 3.18126 6.21892 3.11602 6.17537C3.05077 6.13183 3.0766 5.97742 3.12515 5.90425C3.17369 5.83108 3.22647 5.86654 3.29171 5.91009C3.35695 5.95363 3.40973 5.98886 3.36119 6.06203ZM3.20687 6.53425C3.22468 6.70618 3.09419 6.84421 2.91538 6.84219C2.73657 6.84039 2.57691 6.69832 2.55887 6.52528C2.54084 6.35223 2.67133 6.2142 2.85036 6.21734C3.02939 6.22049 3.18905 6.36233 3.20687 6.53425Z"
                  fill="#0F1829" />
                <path
                  d="M13.5087 6.54933C13.5087 7.29111 12.9119 7.89261 12.176 7.89261C11.44 7.89261 10.8433 7.29133 10.8433 6.54933C10.8433 5.80733 11.44 5.20605 12.176 5.20605C12.9119 5.20605 13.5087 5.80733 13.5087 6.54933ZM12.176 5.68703C11.7035 5.68703 11.3205 6.07307 11.3205 6.54933C11.3205 7.02559 11.7035 7.41163 12.176 7.41163C12.6485 7.41163 13.0315 7.02559 13.0315 6.54933C13.0315 6.07307 12.6485 5.68703 12.176 5.68703ZM12.3043 5.87354C12.3043 5.96444 12.2468 6.11167 12.176 6.11167C12.1052 6.11167 12.0477 5.96421 12.0477 5.87354C12.0477 5.78287 12.1052 5.78264 12.176 5.78264C12.2468 5.78264 12.3043 5.78264 12.3043 5.87354ZM11.8856 5.92673C11.9386 6.00013 11.978 6.15342 11.9208 6.19539C11.8636 6.23736 11.7311 6.15207 11.6781 6.07868C11.6251 6.00529 11.6716 5.97117 11.7289 5.9292C11.7861 5.88723 11.8326 5.85312 11.8856 5.92673ZM11.5779 6.21761C11.6636 6.24566 11.785 6.34621 11.7629 6.41422C11.7411 6.482 11.5843 6.49165 11.4986 6.4636C11.4129 6.43554 11.4307 6.38055 11.4525 6.31255C11.4743 6.24477 11.4921 6.18955 11.5779 6.21761ZM11.4986 6.63529C11.5843 6.60724 11.7411 6.61666 11.7629 6.68467C11.7847 6.75245 11.6636 6.85322 11.5779 6.88128C11.4921 6.90933 11.4746 6.85435 11.4525 6.78634C11.4307 6.71856 11.4129 6.66335 11.4986 6.63529ZM11.6781 7.02021C11.7311 6.94682 11.8634 6.86153 11.9208 6.9035C11.978 6.94547 11.9386 7.09876 11.8856 7.17215C11.8326 7.24577 11.7863 7.21166 11.7289 7.16969C11.6716 7.12771 11.6251 7.09382 11.6781 7.02021ZM12.0477 7.22535C12.0477 7.13445 12.1052 6.98722 12.176 6.98722C12.2468 6.98722 12.3043 7.13467 12.3043 7.22535C12.3043 7.31602 12.2468 7.31625 12.176 7.31625C12.1052 7.31625 12.0477 7.31625 12.0477 7.22535ZM12.4664 7.17215C12.4134 7.09876 12.374 6.94547 12.4312 6.9035C12.4884 6.86153 12.6209 6.94682 12.6739 7.02021C12.7269 7.09382 12.6804 7.12771 12.6231 7.16969C12.5659 7.21166 12.5194 7.24577 12.4664 7.17215ZM12.7741 6.88128C12.6884 6.85322 12.567 6.75267 12.5891 6.68467C12.6109 6.61689 12.7677 6.60724 12.8534 6.63529C12.9391 6.66335 12.9213 6.71834 12.8995 6.78634C12.8777 6.85435 12.8598 6.90933 12.7741 6.88128ZM12.8534 6.4636C12.7677 6.49165 12.6109 6.48222 12.5891 6.41422C12.5672 6.34644 12.6884 6.24566 12.7741 6.21761C12.8598 6.18955 12.8774 6.24454 12.8995 6.31255C12.9213 6.38033 12.9391 6.43554 12.8534 6.4636ZM12.6739 6.07868C12.6209 6.15207 12.4886 6.23736 12.4312 6.19539C12.374 6.15342 12.4134 6.00013 12.4664 5.92673C12.5194 5.85334 12.5657 5.88723 12.6231 5.9292C12.6804 5.97117 12.7269 6.00506 12.6739 6.07868ZM12.4817 6.54933C12.4817 6.71946 12.345 6.85726 12.1762 6.85726C12.0074 6.85726 11.8707 6.71946 11.8707 6.54933C11.8707 6.37921 12.0074 6.2414 12.1762 6.2414C12.345 6.2414 12.4817 6.37921 12.4817 6.54933Z"
                  fill="#0F1829" />
              </svg>