<svg width="11" height="13" viewBox="0 0 11 13" fill="none" xmlns="http://www.w3.org/2000/svg">
<path d="M4.12568 10.0273H8.86147V9.53392H4.12568V10.0273ZM8.86147 7.12972H4.12568V7.62312H8.86147V7.12972ZM8.86147 4.60228H4.12568V5.1573H8.86147V4.60228ZM2.66743 5.59251C2.69981 5.62505 2.74335 5.64304 2.78802 5.64304C2.7962 5.64304 2.80439 5.64227 2.81258 5.64113C2.8658 5.63309 2.91233 5.60055 2.93875 5.55232L3.58898 4.36343C3.63587 4.27807 3.60647 4.17128 3.5231 4.12305C3.51082 4.11578 3.49779 4.10889 3.48439 4.10889H3.3906C3.34817 4.17052 3.31058 4.14831 3.2875 4.1908L2.74745 5.17721L2.31235 4.74085C2.24387 4.67233 2.13444 4.67348 2.06782 4.74391C2.0012 4.81434 2.00269 4.92687 2.07117 4.99539L2.66743 5.59251ZM9.60511 2.01283H9.1864C9.19161 2.07446 9.19719 2.03197 9.2024 2.04996L9.22808 2.1246L9.23701 2.1491L9.2385 2.14718C9.24036 2.15407 9.24111 2.15981 9.24297 2.1667L9.4246 2.78947C9.63042 2.90852 9.76106 3.12555 9.76106 3.38392L9.76102 11.0891C9.76102 11.4822 9.48374 11.8956 9.10187 11.8956H5.6347H2.16753C1.78566 11.8956 1.4879 11.4822 1.4879 11.0891L1.48794 3.38354C1.48794 3.14048 1.59141 2.93301 1.77379 2.81053L2.00045 2.02891C2.00343 2.01857 1.99785 2.07446 2.00083 2.01283H1.6692C1.2315 2.01283 0.888713 2.32747 0.888713 2.77837L0.888672 11.6885C0.888672 12.1394 1.23146 12.5735 1.66953 12.5735H9.6248C10.0632 12.5735 10.3599 12.1394 10.3599 11.6885L10.3599 2.77837C10.3599 2.32747 10.0436 2.01283 9.60511 2.01283ZM2.66743 10.4648C2.69981 10.4974 2.74335 10.5153 2.78802 10.5153C2.7962 10.5153 2.80439 10.5146 2.81258 10.5134C2.8658 10.5054 2.91233 10.4729 2.93875 10.4246L3.58898 9.23612C3.63587 9.15038 3.60647 9.04205 3.5231 8.99382C3.4401 8.94559 3.3344 8.97622 3.2875 9.06157L2.74745 10.0487L2.31235 9.61277C2.24387 9.54463 2.13444 9.54578 2.06782 9.61621C2.0012 9.68664 2.00269 9.79918 2.07117 9.86769L2.66743 10.4648ZM2.66743 8.04646C2.69981 8.079 2.74335 8.09699 2.78802 8.09699C2.7962 8.09699 2.80439 8.09622 2.81258 8.09508C2.8658 8.08704 2.91233 8.0545 2.93875 8.00627L3.58898 6.81738C3.63587 6.73164 3.60647 6.62332 3.5231 6.57509C3.4401 6.52686 3.3344 6.55748 3.2875 6.64284L2.74745 7.63001L2.31235 7.19403C2.24387 7.12551 2.13444 7.12705 2.06782 7.19747C2.0012 7.26791 2.00269 7.38044 2.07117 7.44896L2.66743 8.04646ZM2.72809 3.49224H8.46657C8.69361 3.49224 8.94373 3.23923 8.87785 3.00191L8.63294 2.23828C8.56297 1.99216 8.44871 1.82757 8.22167 1.82757H6.53154C6.49023 1.27255 6.08714 0.946045 5.59733 0.946045C5.10753 0.946045 4.70444 1.27255 4.66313 1.82757H2.973C2.74596 1.82757 2.63244 1.96651 2.56172 2.21379L2.31682 3.02947C2.25317 3.24306 2.50106 3.49224 2.72809 3.49224ZM5.59733 1.36595C5.86196 1.36595 6.08156 1.64269 6.12064 1.82757H5.07366C5.11348 1.64269 5.3327 1.36595 5.59733 1.36595Z" fill="#0F1829"/>
</svg>
