
 <svg width="29" height="29" viewBox="0 0 29 29" fill="none" xmlns="http://www.w3.org/2000/svg">
          <path
            d="M20.3 2.41663H17.1583C13.2917 2.41663 10.875 4.83329 10.875 8.69996V13.5937H18.4271C18.9225 13.5937 19.3333 14.0045 19.3333 14.5C19.3333 14.9954 18.9225 15.4062 18.4271 15.4062H10.875V20.3C10.875 24.1666 13.2917 26.5833 17.1583 26.5833H20.2879C24.1546 26.5833 26.5712 24.1666 26.5712 20.3V8.69996C26.5833 4.83329 24.1667 2.41663 20.3 2.41663Z"
            fill="#EEEEEE" />
          <path
            d="M5.51048 13.5937L8.01173 11.0925C8.19298 10.9112 8.27756 10.6816 8.27756 10.4521C8.27756 10.2225 8.19298 9.98081 8.01173 9.81164C7.66131 9.46122 7.08131 9.46122 6.7309 9.81164L2.68298 13.8596C2.33256 14.21 2.33256 14.79 2.68298 15.1404L6.7309 19.1883C7.08131 19.5387 7.66131 19.5387 8.01173 19.1883C8.36215 18.8379 8.36215 18.2579 8.01173 17.9075L5.51048 15.4062H10.8755V13.5937H5.51048Z"
            fill="#EEEEEE" />
        </svg>