<svg width="26" height="26" viewBox="0 0 26 26" fill="none" xmlns="http://www.w3.org/2000/svg">
<path fill-rule="evenodd" clip-rule="evenodd" d="M6.98128 6.98157L5.54928 7.3653L4.11729 7.74887L3.06888 6.70061L2.02061 5.65234L2.40433 4.22035L2.78806 2.78835L4.22005 2.40448L5.65204 2.02076L6.70031 3.06902L7.74858 4.11729L7.36485 5.54928L6.98128 6.98128V6.98157ZM16.7374 13.6821L19.5441 16.4888C21.2492 15.9113 23.2099 16.3017 24.569 17.6609C25.8105 18.9024 26.2437 20.646 25.8693 22.2381L23.0558 19.4247L21.6238 19.8082L20.1918 20.192L19.8081 21.6239L19.4244 23.0559L22.2378 25.8694C20.6458 26.2439 18.9023 25.8107 17.6608 24.5691C16.3016 23.2101 15.9112 21.2494 16.4886 19.5442L13.658 16.7138L14.6288 15.7581L15.1777 16.307C15.4882 16.6175 15.9964 16.6175 16.3069 16.307C16.6174 15.9965 16.6174 15.4885 16.3069 15.1778L15.7666 14.6378L16.7374 13.6821ZM8.33886 1.43092C9.69791 2.78998 10.0884 4.75068 9.511 6.45581L13.4305 10.3753L12.5544 11.4255L10.3065 9.17747C9.996 8.86698 9.48781 8.86698 9.17732 9.17747C8.86683 9.48796 8.86683 9.99615 9.17732 10.3066L11.5274 12.6565L10.6511 13.7067L6.45567 9.51114C4.75053 10.0886 2.78983 9.69806 1.43077 8.339C-0.476925 6.4313 -0.476925 3.33833 1.43077 1.43077C3.33847 -0.476925 6.43145 -0.476925 8.33915 1.43077L8.33886 1.43092Z" fill="white"/>
<path fill-rule="evenodd" clip-rule="evenodd" d="M6.98141 19.0184L5.54942 18.6347L4.11742 18.2509L3.06901 19.2992L2.02074 20.3475L2.40447 21.7795L2.78819 23.2115L4.22018 23.5952L5.65218 23.9789L6.70059 22.9306L7.74886 21.8824L7.36513 20.4504L6.98141 19.0184ZM10.3065 16.8225L16.307 10.822C16.6175 10.5115 16.6175 10.0033 16.307 9.69279C15.9965 9.3823 15.4883 9.3823 15.1778 9.69279L9.17731 15.6933C8.86681 16.0038 8.86681 16.512 9.17731 16.8225C9.4878 17.133 9.99599 17.133 10.3065 16.8225ZM8.33899 24.5692C9.69804 23.21 10.0886 21.2494 9.51113 19.5443L19.5442 9.51119C21.2494 10.0886 23.2101 9.69811 24.5691 8.33905C25.8107 7.09752 26.2438 5.354 25.8694 3.76196L23.0559 6.57545L21.6239 6.19173L20.1919 5.808L19.8082 4.37601L19.4245 2.94402L22.238 0.13053C20.6459 -0.243893 18.9024 0.189293 17.6609 1.43082C16.3017 2.79003 15.9113 4.75058 16.4888 6.45572L6.45565 16.4887C4.75052 15.9112 2.78982 16.3018 1.43076 17.6608C-0.47694 19.5685 -0.47694 22.6615 1.43076 24.5692C3.33846 26.4769 6.43144 26.4769 8.33914 24.5692H8.33899Z" fill="white"/>
<path fill-rule="evenodd" clip-rule="evenodd" d="M4.41801 6.63019L6.16316 6.16261L6.63074 4.41746L5.35333 3.1399L3.60819 3.60749L3.14046 5.35278L4.41801 6.63019Z" fill="white"/>
<path fill-rule="evenodd" clip-rule="evenodd" d="M22.8736 5.89596L24.4729 4.29654L23.8875 2.11186L21.7028 1.52646L20.1036 3.12588L20.689 5.31056L22.8736 5.89596Z" fill="white"/>
</svg>
