<svg width="12" height="13" viewBox="0 0 12 13" fill="none" xmlns="http://www.w3.org/2000/svg">
<g clip-path="url(#clip0_541_624)">
<path d="M6.17854 0.539795C4.88752 0.539795 3.8227 1.38118 3.6814 2.46307H8.67568C8.53411 1.38118 7.46929 0.539795 6.17854 0.539795Z" fill="#0F1829"/>
<path d="M7.56884 7.43756V7.84916C7.56884 8.59809 6.94218 9.21305 6.17896 9.21305C5.41574 9.21305 4.78908 8.59809 4.78908 7.84916V7.42834C3.11158 8.28843 0.69458 8.17266 0.69458 10.6507V12.0656H11.6441V10.6507C11.6441 8.18188 9.24582 8.28817 7.56858 7.43756H7.56884Z" fill="#0F1829"/>
<path d="M3.61049 3.35546H3.62947C3.60601 3.48942 3.59177 3.63746 3.59177 3.79011V4.89505C3.59177 6.22206 4.75545 8.02034 6.17829 8.02034C7.60112 8.02034 8.76032 6.2218 8.76032 4.89505V3.79011C8.76032 3.63746 8.75083 3.48967 8.72737 3.35546H8.74635C8.95356 3.35546 8.95356 2.60193 8.74635 2.60193H3.61049C3.40327 2.60193 3.40327 3.35546 3.61049 3.35546ZM6.17829 7.88152C4.90625 7.88152 3.88388 6.34193 3.74705 5.15374C4.65633 5.6345 5.49495 5.7641 6.17829 5.06589C6.86136 5.7641 7.69998 5.6345 8.60478 5.15374C8.47296 6.34193 7.45059 7.88152 6.17829 7.88152ZM4.13354 4.48806C4.13354 4.26165 4.48681 4.08133 4.92497 4.08133C5.36313 4.08133 5.7164 4.26165 5.7164 4.48806C5.7164 4.71448 5.36313 4.8948 4.92497 4.8948C4.48681 4.8948 4.13354 4.70987 4.13354 4.48806ZM6.64017 4.48806C6.64017 4.26165 6.99344 4.08133 7.4316 4.08133C7.86976 4.08133 8.22303 4.26165 8.22303 4.48806C8.22303 4.71448 7.86502 4.8948 7.4316 4.8948C6.99819 4.8948 6.64017 4.70987 6.64017 4.48806ZM3.77078 3.35546H8.58606C8.60952 3.48942 8.61901 3.63285 8.61901 3.7855C7.75693 3.51272 4.60017 3.51272 3.73308 3.7855C3.73308 3.63285 3.74732 3.48967 3.77078 3.35546Z" fill="#0F1829"/>
</g>
<defs>
<clipPath id="clip0_541_624">
<rect width="10.9495" height="11.5258" fill="white" transform="translate(0.695312 0.539795)"/>
</clipPath>
</defs>
</svg>
