<svg width="11" height="11" viewBox="0 0 11 11" fill="none" xmlns="http://www.w3.org/2000/svg">
<path d="M7.49092 4.45443C7.49516 4.44912 7.49939 4.44417 7.50327 4.43886C7.49833 4.43709 7.49339 4.43532 7.48846 4.43355C7.48951 4.44028 7.49022 4.44735 7.49092 4.45443ZM1.03047 7.98185C1.03047 7.98185 2.34358 9.37981 2.4751 10.1757L2.64788 10.8015L4.31042 10.8779L4.35097 10.5202C4.35097 10.5202 4.81887 9.66598 4.69617 8.90687C4.69617 8.90687 4.83721 8.8248 4.04526 7.46257C4.04526 7.46257 3.4155 5.95815 3.46663 5.57505C3.46663 5.57505 3.24449 4.60087 2.92855 4.5517C2.92855 4.5517 2.38307 4.46256 2.67891 5.84318L2.78892 7.15624C2.78892 7.15624 2.21629 6.74485 2.1916 6.02146L1.91446 4.22379C1.91446 4.22379 2.36579 1.9507 1.58089 1.90755L0.871447 4.21884C0.871447 4.21884 0.78118 4.58743 0.774128 5.2765L0.565385 7.1856C0.565385 7.1856 0.496627 7.49512 1.03047 7.98185ZM3.43137 4.45443C3.43207 4.44735 3.43278 4.44028 3.43384 4.43355C3.4289 4.43532 3.42396 4.43674 3.41903 4.43886C3.42291 4.44417 3.42714 4.44912 3.43137 4.45443ZM6.22577 8.90616C6.10307 9.66527 6.57097 10.5195 6.57097 10.5195L6.61152 10.8772L8.27406 10.8008L8.44684 10.175C8.57836 9.3791 9.89147 7.98115 9.89147 7.98115C10.4253 7.49441 10.3566 7.18489 10.3566 7.18489L10.1482 5.27579C10.1411 4.58672 10.0508 4.21813 10.0508 4.21813L9.3407 1.90648C8.5558 1.94999 9.00713 4.22273 9.00713 4.22273L8.72998 6.0204C8.7053 6.74343 8.13267 7.15518 8.13267 7.15518L8.24268 5.84212C8.53887 4.46115 7.99304 4.55064 7.99304 4.55064C7.67745 4.59981 7.45531 5.57399 7.45531 5.57399C7.50644 5.95708 6.87668 7.46151 6.87668 7.46151C6.08473 8.82409 6.22577 8.90581 6.22577 8.90581V8.90616ZM3.5167 2.63765C3.5174 2.63093 3.51846 2.62386 3.51917 2.61713C3.51423 2.6189 3.50894 2.62067 3.50436 2.62244C3.50824 2.62775 3.51282 2.6327 3.5167 2.638V2.63765ZM4.7004 1.29205C4.7004 1.4629 4.83827 1.60121 5.00858 1.60121H6.01421C6.18452 1.60121 6.32239 1.4629 6.32239 1.29205V1.27365C6.32239 1.1028 6.18452 0.964492 6.01421 0.964492H5.00858C4.83827 0.964492 4.7004 1.1028 4.7004 1.27365V1.29205ZM4.7889 1.28285C4.7889 1.19796 4.85731 1.10599 4.94193 1.10599H5.95321C6.03748 1.10599 6.10624 1.19796 6.10624 1.28285C6.10624 1.36775 6.03783 1.45972 5.95321 1.45972H4.94193C4.85766 1.45972 4.7889 1.36739 4.7889 1.28285ZM3.81888 2.02569H7.13338V1.22696C7.13338 0.89799 6.85024 0.504639 6.51985 0.504639H4.42678C4.10132 0.504639 3.81888 0.89233 3.81888 1.22696V2.02569ZM4.03045 1.22696C4.03045 0.983594 4.19229 0.646132 4.42678 0.646132H6.51985C6.76068 0.646132 6.95708 0.987485 6.95708 1.22696V1.84883H4.03045V1.22696ZM4.39152 2.98077H4.7004V3.27013L4.90103 3.41516L4.7004 3.44911V3.76818L4.97543 4.13394L4.7004 4.23122V4.57363L4.95745 4.79366L4.7004 4.91534V5.59592L5.4585 6.39218L6.21661 5.59592V2.98077H6.48459C6.82132 2.98077 7.09812 3.07911 7.09812 2.7558V2.30868H3.78362V2.7558C3.78362 3.09043 4.06712 2.98077 4.39152 2.98077ZM4.39152 2.91003C4.15562 2.91003 4.03045 3.002 4.03045 2.7558V2.59167H6.95708V2.7558C6.95708 2.98962 6.73212 2.91003 6.48459 2.91003H6.07556V5.53119L5.4585 6.15058L4.84144 5.53119V5.0204L5.14045 4.83433L4.84144 4.49793V4.34831L5.12458 4.21459L4.84144 3.71265V3.58849L5.20004 3.51208L4.84144 3.18523V2.90967H4.39152V2.91003ZM5.73636 5.26872C5.73636 5.27756 5.73494 5.2857 5.73353 5.29419C5.73494 5.29136 5.73636 5.28853 5.73636 5.28499V5.26872ZM5.29983 3.15552V5.26872C5.29983 5.37095 5.42289 5.35079 5.52479 5.35079H5.55229C5.64538 5.35079 5.72155 5.32036 5.73389 5.23052C5.73071 5.23653 5.72437 5.28004 5.71731 5.28004H5.65702C5.64644 5.28004 5.72296 5.2956 5.72296 5.28464V3.18877C5.72296 3.1778 5.64609 3.19301 5.65702 3.19301H5.71731C5.72789 3.19301 5.79383 3.17816 5.79383 3.18877V3.15516C5.79383 3.05329 5.6542 2.94504 5.55265 2.94504H5.52514C5.42324 2.94504 5.30018 3.05293 5.30018 3.15516L5.29983 3.15552Z" fill="#0F1829"/>
</svg>
