<svg width="12" height="13" viewBox="0 0 12 13" fill="none" xmlns="http://www.w3.org/2000/svg">
<g clip-path="url(#clip0_541_634)">
<path fill-rule="evenodd" clip-rule="evenodd" d="M5.88034 0.522339C9.06607 0.522339 11.6432 3.10412 11.6432 6.28524C11.6432 9.46637 9.06607 12.0481 5.88034 12.0481C2.6946 12.0481 0.117432 9.46637 0.117432 6.28524C0.117432 3.10412 2.69921 0.522339 5.88034 0.522339Z" fill="#0F1829"/>
<path fill-rule="evenodd" clip-rule="evenodd" d="M5.88107 1.23694C8.67031 1.23694 10.9294 3.496 10.9294 6.28524C10.9294 9.07449 8.67031 11.3335 5.88107 11.3335C3.09182 11.3335 0.832764 9.07449 0.832764 6.28524C0.832764 3.496 3.09182 1.23694 5.88107 1.23694Z" fill="#FEFEFE"/>
<path fill-rule="evenodd" clip-rule="evenodd" d="M5.70461 3.08105C3.93424 3.18248 2.57881 4.69466 2.68023 6.46503C2.72634 7.3456 3.13205 8.12936 3.74061 8.67337L3.18276 9.30038H3.18737C2.41283 8.61344 1.9057 7.62683 1.84115 6.51113C1.72129 4.27973 3.42711 2.37106 5.6585 2.24658L5.70461 3.08105Z" fill="#0F1829"/>
<path fill-rule="evenodd" clip-rule="evenodd" d="M6.10616 2.24658C8.33756 2.37106 10.0434 4.27973 9.9189 6.51113C9.85897 7.62683 9.34722 8.61344 8.57269 9.30038H8.5773L8.01945 8.67798C8.63262 8.12936 9.03372 7.35021 9.08443 6.46503C9.18125 4.69466 7.83042 3.18248 6.06006 3.08105L6.10616 2.24658Z" fill="#0F1829"/>
<path fill-rule="evenodd" clip-rule="evenodd" d="M10.1359 4.04919L7.15305 5.44612L4.17017 6.84766L4.29925 7.09201L4.42834 7.34097L7.28214 5.69508L10.1359 4.04919Z" fill="#0F1829"/>
<path fill-rule="evenodd" clip-rule="evenodd" d="M5.88042 5.45996C6.33685 5.45996 6.71028 5.82879 6.71028 6.28521C6.71028 6.74163 6.33685 7.11046 5.88042 7.11046C5.424 7.11046 5.05518 6.74163 5.05518 6.28521C5.05518 5.82879 5.424 5.45996 5.88042 5.45996Z" fill="#0F1829"/>
<path fill-rule="evenodd" clip-rule="evenodd" d="M5.88052 5.8335C6.12948 5.8335 6.33233 6.03635 6.33233 6.28531C6.33233 6.53427 6.12948 6.73712 5.88052 6.73712C5.63156 6.73712 5.42871 6.53427 5.42871 6.28531C5.42871 6.03635 5.63156 5.8335 5.88052 5.8335Z" fill="#FEFEFE"/>
</g>
<defs>
<clipPath id="clip0_541_634">
<rect width="11.5258" height="11.5258" fill="white" transform="translate(0.117188 0.522339)"/>
</clipPath>
</defs>
</svg>
