<svg width="29" height="29" viewBox="0 0 29 29" fill="none" xmlns="http://www.w3.org/2000/svg">
<g clip-path="url(#clip0_603_181)">
<path d="M0 14.896V14.1033C0.17101 13.2571 0.717835 12.6638 1.30657 12.0778C4.8998 8.50266 8.48424 4.91871 12.0599 1.32666C12.652 0.731251 13.2475 0.172337 14.1053 0H14.8981C15.7572 0.168282 16.35 0.732603 16.9415 1.32666C20.6239 5.02482 24.3185 8.71081 28.0091 12.4009C28.1294 12.5212 28.2511 12.6401 28.3612 12.7692C29.6867 14.329 28.8398 16.737 26.8289 17.1128C26.5281 17.1689 26.2172 17.1668 25.8914 17.1939C25.8914 17.3182 25.8914 17.4304 25.8914 17.5419C25.8914 20.2784 25.8941 23.0155 25.8907 25.7519C25.8887 27.6531 24.5463 28.9946 22.6483 28.998C21.2045 29.0007 19.7601 28.9986 18.3163 28.998C17.6032 28.998 17.2875 28.6783 17.2868 27.9565C17.2868 25.7857 17.2882 23.6156 17.2862 21.4449C17.2855 20.4784 16.7028 19.8972 15.7342 19.8938C14.9319 19.8911 14.1289 19.9155 13.3279 19.8877C12.3445 19.8533 11.6902 20.5548 11.705 21.4983C11.7382 23.6589 11.7165 25.8202 11.7152 27.9815C11.7152 28.677 11.3894 28.998 10.6891 28.998C9.26426 28.998 7.83873 28.998 6.41388 28.998C4.43882 28.9973 3.11265 27.6733 3.11197 25.6979C3.11062 22.9709 3.11197 20.2432 3.11197 17.5162V17.2013C3.05587 17.1817 3.03897 17.1709 3.0214 17.1709C2.88013 17.1675 2.73818 17.1709 2.59691 17.1635C1.55936 17.1094 0.78678 16.6235 0.299436 15.7097C0.164926 15.457 0.0993614 15.1677 0.00202778 14.8954L0 14.896Z" fill="#EEEEEE"/>
</g>
<defs>
<clipPath id="clip0_603_181">
<rect width="29" height="29" fill="white"/>
</clipPath>
</defs>
</svg>
