<svg width="60" height="60" viewBox="0 0 60 60" fill="none" xmlns="http://www.w3.org/2000/svg">
<path d="M47.0588 29.9C47.0588 39.5079 39.2814 47.2852 29.6735 47.2852V29.9H47.0588ZM29.6735 12.5148V29.9H12.2883C12.2883 20.2921 20.0657 12.5148 29.6735 12.5148Z" fill="#0166B1"/>
<path d="M29.6733 12.5148C39.2812 12.5148 47.0585 20.2921 47.0585 29.9H29.6733V12.5148ZM12.2881 29.9H29.6733V47.2852C20.0654 47.2852 12.2881 39.5079 12.2881 29.9Z" fill="white"/>
<path d="M29.6728 12.5148V13.468C38.7325 13.468 46.1048 20.8386 46.1048 29.9H47.058C47.058 20.2991 39.2738 12.5148 29.6728 12.5148ZM29.6728 46.3321C20.613 46.3321 13.2407 38.9615 13.2407 29.9H12.2875C12.2875 39.501 20.0718 47.2853 29.6728 47.2853M29.6728 0.5625C13.4705 0.5625 0.335205 13.6978 0.335205 29.9C0.335205 46.1023 13.4705 59.2376 29.6728 59.2376C45.875 59.2376 59.0103 46.1023 59.0103 29.9C59.0103 13.6978 45.875 0.5625 29.6728 0.5625ZM57.1025 29.9C57.1025 45.0484 44.8228 57.3298 29.6728 57.3298C14.5227 57.3298 2.24297 45.0484 2.24297 29.9C2.24297 14.7517 14.5245 2.47027 29.6728 2.47027C44.8211 2.47027 57.1025 14.7517 57.1025 29.9Z" fill="#0F1829"/>
<path d="M17.1356 15.747C18.0731 14.7664 18.6039 13.6334 17.6664 12.5518C17.1563 11.9647 16.2998 11.8364 15.5898 12.1256L15.5191 12.153L15.5415 12.0914C15.6466 11.8124 15.7139 10.9225 14.9504 10.308C14.5782 10.0085 14.1112 9.89729 13.639 9.94521C12.7583 10.0342 12.0811 10.6315 10.2371 12.6733C9.68047 13.2894 8.8705 14.2615 8.38452 14.8913L13.4494 19.6629C15.1279 17.8179 15.8121 17.1316 17.1356 15.747ZM10.5266 14.5798C11.5468 13.3407 12.6308 12.2163 13.122 11.7713C13.2771 11.631 13.446 11.4907 13.651 11.4359C13.9836 11.3452 14.3266 11.5797 14.4041 11.9185C14.4817 12.2591 14.2663 12.5826 14.0267 12.8496C13.4873 13.4537 11.5089 15.5092 11.5089 15.5092L10.5266 14.5798ZM12.5102 16.4487C12.5102 16.4487 14.4369 14.4258 15.0659 13.7789C15.3158 13.5222 15.476 13.3664 15.6484 13.2826C15.8707 13.1747 16.1137 13.1525 16.3308 13.2962C16.5445 13.4383 16.6427 13.683 16.5893 13.9261C16.5255 14.2153 16.2877 14.4908 16.0913 14.7013C15.8259 14.9837 13.5407 17.4123 13.5373 17.4157L12.5102 16.4487ZM30.2519 10.0565L31.8736 6.44871L31.977 6.12866L31.9477 6.4624L32.1183 11.2836C32.687 11.3366 33.2746 11.4154 33.8537 11.5112L33.59 4.371C32.78 4.282 31.9735 4.21868 31.167 4.18445L29.5695 8.12251L29.5126 8.41517L29.4557 8.12251L27.8599 4.18445C27.0534 4.21868 26.2469 4.282 25.4369 4.371L25.1732 11.5112C25.7523 11.4154 26.3399 11.3383 26.9086 11.2836L27.0792 6.4624L27.0499 6.12866L27.1533 6.44871L28.775 10.0565H30.2519ZM43.7197 17.5201C44.1178 17.9446 44.6917 18.6291 45.014 19.045L50.9491 15.3038C50.6527 14.9187 50.1805 14.3334 49.8272 13.9209L46.0686 16.3888L45.8119 16.6079L46.0032 16.3307L47.6627 13.0412L46.4891 11.8757L43.1752 13.5239L42.896 13.7138L43.1183 13.4588L45.6051 9.72786C45.1673 9.35818 44.7468 9.01931 44.2109 8.60856L40.4437 14.4977C40.921 14.8622 41.5501 15.3979 41.9516 15.7625L45.4982 13.9346L45.7257 13.7686L45.5585 13.9945L43.7197 17.5201Z" fill="#0F1829"/>
</svg>
