<svg width="77" height="35" viewBox="0 0 77 35" fill="none" xmlns="http://www.w3.org/2000/svg">
<g clip-path="url(#clip0_66_1232)">
<path d="M70.1973 17.0919H76.1974C75.959 15.9623 75.5162 15.0361 74.9145 14.1607C74.7896 13.98 74.6591 13.8162 74.5228 13.6467C74.4717 13.5846 74.4206 13.5225 74.3696 13.4604C74.2276 13.2966 74.0857 13.1384 73.9325 12.9803C73.8871 12.9351 73.8416 12.8956 73.7962 12.8504C73.6657 12.7262 73.5294 12.6019 73.3932 12.4833C73.3421 12.4381 73.2853 12.3929 73.2343 12.3478C73.064 12.2066 72.8823 12.0767 72.7007 11.9524C72.6439 11.9129 72.5871 11.879 72.5304 11.8395C72.3544 11.7265 72.1784 11.6192 71.9968 11.5175C71.9684 11.5006 71.94 11.4837 71.906 11.4667C71.7016 11.3538 71.4859 11.2578 71.2702 11.1617C71.2134 11.1392 71.1566 11.1109 71.0999 11.0883C70.8785 10.998 70.6571 10.9132 70.4301 10.8455C70.3903 10.8342 70.3449 10.8229 70.3052 10.8116C70.0951 10.7495 69.8794 10.693 69.6581 10.6478C69.6126 10.6365 69.5672 10.6252 69.5275 10.6196C69.2834 10.5687 69.0393 10.5348 68.7895 10.5066C68.7328 10.501 68.6817 10.4953 68.6249 10.4897C68.3638 10.4671 68.1084 10.4501 67.8416 10.4501L57.3287 9.86277L51.7827 5.30505C50.04 3.87618 48.1043 2.72404 46.0437 1.88818C45.7486 1.76958 45.3739 1.65662 45.0787 1.54932C42.6832 0.690863 40.3218 0.193863 37.4836 0.193863V0.148682H12.6431L1.00058 10.3485L0.858663 13.1384H5.1274V17.0919H0.677015L0.381836 22.8017C0.381836 25.0326 2.6865 26.8398 5.80859 27.3933C5.89941 23.1575 9.38479 19.5881 13.6592 19.5881C17.9336 19.5881 21.5212 23.3043 21.5212 27.2578H53.8092C53.8092 23.3043 57.3343 19.4357 61.6712 19.4357C66.008 19.4357 69.5332 23.3043 69.5332 27.2578H76.6458V20.4805H72.7631L70.1973 17.0919ZM37.6368 4.66686C41.8034 4.66686 45.8621 5.9263 49.075 8.56944L50.7439 9.74981H31.2394V4.66686H37.6368ZM26.6982 4.66686V9.74981H14.0168C15.8901 8.05549 17.786 6.36118 19.6877 4.66686H26.6925H26.6982Z" fill="#0F1829"/>
<path d="M13.6592 20.955C10.0319 20.955 7.08008 23.8918 7.08008 27.5007C7.08008 31.1096 10.0319 34.0464 13.6592 34.0464C17.2865 34.0464 20.2382 31.1096 20.2382 27.5007C20.2382 23.8918 17.2865 20.955 13.6592 20.955ZM13.6592 30.1099C12.2116 30.1099 11.0366 28.9408 11.0366 27.5007C11.0366 26.0605 12.2116 24.8914 13.6592 24.8914C15.1067 24.8914 16.2817 26.0605 16.2817 27.5007C16.2817 28.9408 15.1067 30.1099 13.6592 30.1099Z" fill="#0F1829"/>
<path d="M61.6711 20.955C58.0438 20.955 55.092 23.8918 55.092 27.5007C55.092 31.1096 58.0438 34.0464 61.6711 34.0464C65.2984 34.0464 68.2502 31.1096 68.2502 27.5007C68.2502 23.8918 65.2984 20.955 61.6711 20.955ZM61.6711 30.1099C60.2236 30.1099 59.0486 28.9408 59.0486 27.5007C59.0486 26.0605 60.2236 24.8914 61.6711 24.8914C63.1186 24.8914 64.2937 26.0605 64.2937 27.5007C64.2937 28.9408 63.1186 30.1099 61.6711 30.1099Z" fill="#0F1829"/>
</g>
<defs>
<clipPath id="clip0_66_1232">
<rect width="76.2697" height="33.8976" fill="white" transform="translate(0.381836 0.148682)"/>
</clipPath>
</defs>
</svg>
