<svg width="18" height="21" viewBox="0 0 18 21" fill="none" xmlns="http://www.w3.org/2000/svg">
<path d="M6.09262 16.3819H14.5897V15.4967H6.09262V16.3819ZM14.5897 11.183H6.09262V12.0682H14.5897V11.183ZM14.5897 6.64816H6.09262V7.644H14.5897V6.64816ZM3.47617 8.42487C3.53427 8.48324 3.6124 8.51552 3.69254 8.51552C3.70723 8.51552 3.72192 8.51415 3.73661 8.51209C3.83211 8.49767 3.91558 8.43929 3.963 8.35276L5.12965 6.21961C5.21379 6.06646 5.16104 5.87484 5.01145 5.78831C4.98941 5.77526 4.96604 5.7629 4.942 5.7629H4.77371C4.69758 5.87347 4.63013 5.83364 4.58873 5.90987L3.61975 7.67971L2.83909 6.89678C2.71621 6.77384 2.51988 6.7759 2.40034 6.90227C2.2808 7.02864 2.28347 7.23055 2.40635 7.35349L3.47617 8.42487ZM15.924 2.00208H15.1727C15.1821 2.11265 15.1921 2.03642 15.2014 2.06869L15.2475 2.20262L15.2636 2.24657L15.2662 2.24314C15.2696 2.2555 15.2709 2.2658 15.2742 2.27816L15.6001 3.39556C15.9694 3.60915 16.2038 3.99855 16.2038 4.46213L16.2037 18.287C16.2037 18.9923 15.7062 19.734 15.0211 19.734H8.80015H2.57924C1.89407 19.734 1.35983 18.9923 1.35983 18.287L1.3599 4.46144C1.3599 4.02534 1.54555 3.6531 1.87278 3.43333L2.27947 2.03092C2.28481 2.01238 2.27479 2.11265 2.28014 2.00208H1.68512C0.899787 2.00208 0.284741 2.56661 0.284741 3.37564L0.284668 19.3625C0.284668 20.1715 0.899714 20.9503 1.68572 20.9503H15.9593C16.746 20.9503 17.2782 20.1715 17.2782 19.3625L17.2783 3.37564C17.2783 2.56661 16.7107 2.00208 15.924 2.00208ZM3.47617 17.1669C3.53427 17.2253 3.6124 17.2576 3.69254 17.2576C3.70723 17.2576 3.72192 17.2562 3.73661 17.2541C3.83211 17.2397 3.91558 17.1813 3.963 17.0948L5.12965 14.9624C5.21379 14.8085 5.16104 14.6142 5.01145 14.5276C4.86253 14.4411 4.67287 14.496 4.58873 14.6492L3.61975 16.4204L2.83909 15.6381C2.71621 15.5159 2.51988 15.518 2.40034 15.6443C2.2808 15.7707 2.28347 15.9726 2.40635 16.0955L3.47617 17.1669ZM3.47617 12.8278C3.53427 12.8862 3.6124 12.9185 3.69254 12.9185C3.70723 12.9185 3.72192 12.9171 3.73661 12.9151C3.83211 12.9006 3.91558 12.8423 3.963 12.7557L5.12965 10.6226C5.21379 10.4687 5.16104 10.2744 5.01145 10.1878C4.86253 10.1013 4.67287 10.1562 4.58873 10.3094L3.61975 12.0806L2.83909 11.2984C2.71621 11.1754 2.51988 11.1782 2.40034 11.3045C2.2808 11.4309 2.28347 11.6328 2.40635 11.7558L3.47617 12.8278ZM3.58502 4.65649H13.8812C14.2886 4.65649 14.7373 4.20253 14.6191 3.77672L14.1797 2.40659C14.0542 1.96499 13.8491 1.66967 13.4418 1.66967H10.4093C10.3352 0.673838 9.61194 0.0880127 8.73311 0.0880127C7.85428 0.0880127 7.13105 0.673838 7.05693 1.66967H4.02444C3.61708 1.66967 3.4134 1.91898 3.28651 2.36264L2.8471 3.82617C2.73291 4.2094 3.17766 4.65649 3.58502 4.65649ZM8.73311 0.841413C9.20792 0.841413 9.60192 1.33796 9.67204 1.66967H7.79351C7.86497 1.33796 8.25831 0.841413 8.73311 0.841413Z" fill="#0F1829"/>
</svg>
