       <svg xmlns="http://www.w3.org/2000/svg" width="35" viewBox="0 0 53 44" fill="none">
                                        <g clip-path="url(#clip0_23_36758)">
                                            <path fill-rule="evenodd" clip-rule="evenodd"
                                                d="M47.7876 16.5778C47.8298 16.5935 47.8615 16.6092 47.8931 16.6354C47.6294 16.2169 47.392 15.8088 47.2074 15.4165C44.7649 11.4251 42.6918 7.20345 40.1122 3.29048C39.4581 2.46918 39.0097 1.16136 37.8228 1.04105C35.2485 0.946883 32.8641 2.31224 30.5641 3.30094C26.6657 5.21558 22.7779 7.15114 18.8057 8.9193C14.3639 10.8287 9.95385 12.7538 5.5596 14.7574C3.89264 15.6676 0.695864 16.4994 1.07568 18.8744C1.08095 18.9005 1.08623 18.9214 1.08623 18.9424C1.68233 19.5492 2.14655 21.0506 2.48943 21.4952C4.31993 25.2617 6.28231 28.9654 8.42932 32.5645C8.67725 32.983 8.92519 33.3963 9.17312 33.8148C10.0594 32.8365 14.2109 31.5706 14.691 31.2358C16.8063 30.3308 18.832 29.2322 20.9052 28.2278C27.5678 25.0315 34.2778 21.898 41.1356 19.1359C41.9216 18.9371 45.0498 17.1742 46.7959 16.672C46.8012 16.5412 46.8645 16.4157 46.9594 16.3267C47.0597 16.2378 47.1863 16.2012 47.3234 16.2012C47.545 16.2012 47.7296 16.3738 47.7824 16.5778H47.7876ZM51.7388 25.8424C49.0115 28.4894 45.1395 29.7501 41.8055 31.5183C35.9131 34.4425 29.9996 37.3145 24.1336 40.2911C21.3536 41.4315 17.3391 44.0366 14.3639 42.619C14.0105 42.4463 14.0052 42.0331 13.8259 41.7663C13.81 41.7297 13.7889 41.6878 13.7626 41.6512C13.5093 41.2589 13.2931 40.9136 13.0451 40.5056C12.7972 40.0818 12.5545 39.6581 12.3066 39.2344C12.9765 39.0879 13.8733 38.4706 14.3586 38.3817C17.1756 37.2517 19.8449 35.7974 22.6302 34.5995C31.5558 30.8539 40.2968 26.6271 49.233 22.8972C49.6814 22.6984 50.1298 22.4944 50.5729 22.2799C50.631 22.3061 50.6943 22.3217 50.7629 22.3217C50.9 22.3217 51.0213 22.2851 51.1268 22.1962C51.2112 22.123 51.264 22.0183 51.2851 21.9085C51.9076 23.232 52.1977 24.5607 51.744 25.8371L51.7388 25.8424ZM47.4131 13.7739C48.964 17.3416 55.1993 23.096 52.1977 26.8834C49.7817 28.8556 46.8803 30.1843 44.0739 31.5235C39.2471 33.9979 34.2884 36.2107 29.4827 38.7322C25.463 40.5579 18.8953 44.9521 14.5275 43.8169C13.9472 43.7542 12.9871 42.8282 12.908 42.1743C9.2628 35.9962 5.51213 29.8547 2.33118 23.4203C1.7298 22.2119 1.14953 20.993 0.46903 19.8212C0.342425 19.6381 0.173619 19.4079 0.141968 19.1882C-0.0110133 18.8953 -0.0110133 18.4349 0.00481228 18.1472C0.268573 16.2221 2.27843 15.2334 3.86099 14.4487C8.19721 12.4504 12.5704 10.4939 16.9699 8.64204C20.9421 6.90527 24.8405 5.00633 28.7283 3.09169C31.4239 1.8205 34.167 0.298209 37.1845 0.0209532C39.5267 -0.261534 40.4867 2.16053 41.6104 3.74037C43.6677 7.01513 45.398 10.473 47.4131 13.7687V13.7739Z"
                                                fill="#102650" />
                                            <path fill-rule="evenodd" clip-rule="evenodd"
                                                d="M7.92323 23.4412C6.18769 22.6356 9.53745 21.5318 10.1705 21.1865C12.117 20.3286 14.0372 19.4236 15.9785 18.5552C17.7298 17.7705 19.5129 17.0224 21.2748 16.2587C21.8445 15.9553 22.3245 16.8603 21.739 17.1427C17.1232 19.1725 12.3439 21.129 7.92851 23.4359L7.92323 23.4412Z"
                                                fill="#102650" />
                                            <path fill-rule="evenodd" clip-rule="evenodd"
                                                d="M25.6013 15.8349C24.5674 15.2909 25.8598 14.4643 26.4453 14.1976C27.1153 13.9883 28.2336 12.8008 28.8192 13.5437C29.2359 14.3911 26.7724 14.9038 26.2449 15.4897C26.1763 15.7565 25.8651 15.9396 25.6013 15.8349Z"
                                                fill="#102650" />
                                            <path fill-rule="evenodd" clip-rule="evenodd"
                                                d="M36.1986 14.5795C34.4894 14.9457 32.6748 11.3937 34.3575 11.4565C36.2988 10.4207 38.4722 9.25412 40.7247 9.26981C41.7481 9.54183 42.5236 10.881 42.3126 11.9011C41.3894 13.5176 38.0027 14.5011 36.1986 14.5795ZM36.3199 13.5856C38.0766 13.4286 39.8965 12.7486 41.2997 11.6919C41.4685 11.1844 40.9041 10.2114 40.3133 10.2376C38.3298 10.4782 36.552 11.4983 34.7637 12.2935C34.9958 13.0311 35.4495 13.6954 36.3199 13.5856ZM34.2995 12.4347C34.3523 12.4295 34.4103 12.4086 34.4578 12.3824C34.4103 12.4086 34.3575 12.4243 34.2995 12.4347Z"
                                                fill="#102650" />
                                            <path fill-rule="evenodd" clip-rule="evenodd"
                                                d="M35.0012 39.2344C34.057 38.0626 40.0338 36.3206 40.9094 35.8236C42.5553 35.1802 44.217 34.5734 45.8681 33.9456C46.1213 33.8462 46.422 33.9927 46.5117 34.2438C47.1658 35.0546 40.8883 36.6763 40.0601 37.2308C38.9471 37.6755 37.9342 38.0783 36.9003 38.5909C36.2725 38.7374 35.6184 39.7366 34.9959 39.2344H35.0012Z"
                                                fill="#102650" />
                                            <path fill-rule="evenodd" clip-rule="evenodd"
                                                d="M42.5332 38.2927C42.3116 37.3982 44.2529 37.3092 44.8279 36.8698C45.54 36.7495 49.1905 34.3117 48.7474 36.1113C47.8769 36.8175 46.6214 37.0738 45.6192 37.6126C44.8964 37.78 42.971 39.1716 42.5332 38.2927Z"
                                                fill="#102650" />
                                        </g>
                                        <defs>
                                            <clipPath id="clip0_23_36758">
                                                <rect width="53" height="44" fill="white" />
                                            </clipPath>
                                        </defs>
                                    </svg>