<svg width="19" height="18" viewBox="0 0 19 18" fill="none" xmlns="http://www.w3.org/2000/svg">
<g clip-path="url(#clip0_1_2019)">
<path fill-rule="evenodd" clip-rule="evenodd" d="M9.696 0.525146C14.5252 0.525146 18.432 4.43886 18.432 9.26112C18.432 14.0834 14.5252 17.9971 9.696 17.9971C4.86675 17.9971 0.960022 14.0834 0.960022 9.26112C0.960022 4.43886 4.87374 0.525146 9.696 0.525146Z" fill="#FF7400"/>
<path fill-rule="evenodd" clip-rule="evenodd" d="M9.69547 1.6084C13.9237 1.6084 17.3482 5.0329 17.3482 9.26111C17.3482 13.4893 13.9237 16.9138 9.69547 16.9138C5.46726 16.9138 2.04276 13.4893 2.04276 9.26111C2.04276 5.0329 5.46726 1.6084 9.69547 1.6084Z" fill="#EEEEEE"/>
<path fill-rule="evenodd" clip-rule="evenodd" d="M9.4304 4.40376C6.74671 4.55752 4.69201 6.84984 4.84577 9.53353C4.91565 10.8684 5.53067 12.0565 6.45318 12.8812L5.60754 13.8316H5.61453C4.44042 12.7903 3.67165 11.2947 3.57381 9.60341C3.3921 6.22085 5.97795 3.32749 9.36052 3.13879L9.4304 4.40376Z" fill="#FF7400"/>
<path fill-rule="evenodd" clip-rule="evenodd" d="M10.0374 3.13879C13.42 3.32749 16.0058 6.22085 15.8171 9.60341C15.7263 11.2947 14.9505 12.7903 13.7764 13.8316H13.7834L12.9378 12.8881C13.8673 12.0565 14.4753 10.8754 14.5522 9.53353C14.6989 6.84984 12.6512 4.55752 9.96753 4.40376L10.0374 3.13879Z" fill="#FF7400"/>
<path fill-rule="evenodd" clip-rule="evenodd" d="M16.1469 5.87146L11.6252 7.98906L7.10342 10.1136L7.29911 10.4841L7.4948 10.8614L11.8208 8.36645L16.1469 5.87146Z" fill="#FF7400"/>
<path fill-rule="evenodd" clip-rule="evenodd" d="M9.69557 8.01001C10.3875 8.01001 10.9536 8.56911 10.9536 9.261C10.9536 9.95289 10.3875 10.512 9.69557 10.512C9.00368 10.512 8.44458 9.95289 8.44458 9.261C8.44458 8.56911 9.00368 8.01001 9.69557 8.01001Z" fill="#FF7400"/>
<path fill-rule="evenodd" clip-rule="evenodd" d="M9.69494 8.57617C10.0723 8.57617 10.3798 8.88368 10.3798 9.26107C10.3798 9.63847 10.0723 9.94597 9.69494 9.94597C9.31755 9.94597 9.01004 9.63847 9.01004 9.26107C9.01004 8.88368 9.31755 8.57617 9.69494 8.57617Z" fill="#FEFEFE"/>
</g>
<defs>
<clipPath id="clip0_1_2019">
<rect width="17.4719" height="17.4719" fill="white" transform="translate(0.960022 0.525146)"/>
</clipPath>
</defs>
</svg>
