<svg width="104" height="104" viewBox="0 0 104 104" fill="none" xmlns="http://www.w3.org/2000/svg">
<g filter="url(#filter0_d_148_2)">
<rect x="77.0166" y="17.9429" width="50.4369" height="50.5045" rx="7.62121" transform="rotate(90 77.0166 17.9429)" fill="#FF7400"/>
<rect x="76.4722" y="18.4872" width="49.3481" height="49.4157" rx="7.07684" transform="rotate(90 76.4722 18.4872)" stroke="white" stroke-width="1.08874"/>
</g>
<ellipse cx="52.3" cy="43" rx="14.0188" ry="14" fill="white"/>
<g clip-path="url(#clip0_148_2)">
<path d="M52.3 29C44.5585 29 38.2812 35.2689 38.2812 43C38.2812 50.7311 44.5585 57 52.3 57C60.0415 57 66.3188 50.7311 66.3188 43C66.3188 35.2689 60.0415 29 52.3 29ZM61.7331 52.4204C59.2128 54.9373 55.8639 56.3218 52.3 56.3218C48.7361 56.3218 45.3872 54.9373 42.8669 52.4204C40.3467 49.9036 38.9573 46.5591 38.9573 43C38.9573 39.4409 40.3467 36.0964 42.8669 33.5796C42.9261 33.5204 42.9884 33.4644 43.0476 33.4084C43.0009 33.5516 42.9479 33.6947 42.8638 33.8191C42.6644 34.1147 42.3342 34.2329 42.1255 34.5098C41.9355 34.7618 41.7828 35.1444 41.7143 35.4276C41.6395 35.7356 41.6831 36.1058 41.5772 36.4138C41.4401 36.8027 41.1909 37.0329 41.2377 37.484C41.7797 37.6458 41.5429 36.6844 42.0009 36.6347C42.1442 36.9924 42.0507 37.6613 42.0102 38.0533C41.9542 38.5916 41.8482 38.7253 42.1691 39.1858C42.4246 39.5529 42.5087 39.7956 43.0009 39.8547C43.4526 39.9076 43.6395 40.1129 43.8296 40.5484C44.1785 40.6231 44.3903 40.6791 44.4339 41.0649C44.5835 41.1489 44.8701 41.4196 45.0289 41.4631C45.2595 41.5222 45.6458 41.1956 45.8638 41.4476C46.2283 41.8707 45.4028 42.9782 45.2532 43.3578C45.0383 43.9178 45.004 44.736 45.5367 45.1373C45.8078 45.3427 46.0975 45.4422 46.1878 45.8156C46.2688 46.1609 46.2065 46.4502 46.3592 46.7769C46.599 47.2871 47.1442 47.4551 47.5367 47.844C48.0477 48.3542 48.0134 49.02 48.0134 49.7418C48.0134 50.4636 48.3031 51.0764 48.4028 51.7702C48.5056 52.4858 48.7174 53.1484 48.867 53.8422C48.9791 54.3618 49.4308 55.1489 50.0819 55.0431C50.1287 54.7973 49.8701 54.6044 49.8389 54.3587C49.8109 54.1378 49.8732 53.9044 49.8265 53.668C49.7393 53.1982 49.7424 52.9213 50.0539 52.5138C50.1629 52.3707 50.3156 52.2493 50.4308 52.1062C50.652 51.8262 50.4838 51.9102 50.4745 51.6022C50.462 51.2196 50.5804 51.4062 50.8109 51.288C50.9324 51.2258 51.0632 51.0391 51.1567 50.9427C51.3592 50.7311 51.6707 50.4822 51.8265 50.2302C52.0009 49.9502 51.9791 49.5582 52.1598 49.2689C52.3654 48.936 52.6583 48.936 52.948 48.7182C53.3218 48.4382 53.1692 48.1427 53.2377 47.7569C53.353 47.1129 53.6427 46.4036 54.0508 45.8902C54.5617 45.2462 54.7829 44.6956 54.1598 44.0764C53.8514 43.7716 53.6925 43.8524 53.2844 43.7467C52.9729 43.6658 52.6925 43.4387 52.3779 43.3982C52.1879 43.3764 52.0757 43.4418 51.9044 43.3982C51.7424 43.3547 51.7611 43.2582 51.5928 43.2582C51.3405 43.2582 50.9854 43.7902 50.7704 43.4511C50.652 43.2613 51.0134 42.7418 50.9978 42.4898C50.976 42.1818 50.8608 41.6747 50.5586 41.5067C50.4433 41.4413 50.1879 41.432 50.0477 41.3791C49.8826 41.3169 49.7206 41.2142 49.571 41.1178C49.3779 40.9933 49.004 40.7787 48.9168 40.5547C48.6801 40.5453 48.5181 40.4147 48.2751 40.4178C48.057 40.4178 47.9137 40.5204 47.6801 40.4956C47.4744 40.4738 47.2533 40.312 47.0321 40.34C46.8857 40.3618 46.6645 40.5516 46.5367 40.6231C46.2003 40.8129 45.8389 40.9498 45.4651 41.0213C44.8856 41.1302 44.7828 40.9093 44.8171 40.3742L44.7299 40.2031C44.9448 39.6058 44.5585 39.5653 44.1317 39.4191C44.0726 38.9929 44.5959 38.6911 44.3779 38.2244C43.9355 38.2027 43.4526 39.444 43.0788 38.9058C42.8327 38.5511 43.2065 37.5556 43.4246 37.2569C43.6426 36.952 44.4402 36.4076 44.814 36.3578C45.1068 36.3204 45.3623 36.4511 45.4744 36.7062C45.5959 36.9862 45.437 37.2476 45.4744 37.5649C45.8483 37.4778 45.7517 37.0049 45.7361 36.7498C45.7081 36.3267 45.9324 36.3578 46.1473 36.0498C46.3436 35.7698 46.3747 35.4524 46.6209 35.1849C46.814 34.9733 47.0383 34.7524 47.247 34.5596C47.4869 34.3387 47.7579 34.3573 48.004 34.1956C48.3779 33.9498 47.8825 33.4893 48.4339 33.5236C48.6302 33.536 48.5336 33.6573 48.7922 33.5982C48.9012 33.5733 49.1068 33.4707 49.2221 33.424C49.7486 33.2093 49.3748 33.1533 49.1349 32.8764C48.8265 32.5218 49.2626 32.584 49.5804 32.5311C49.814 32.4907 49.7642 32.416 49.9698 32.5529C50.1505 32.6742 50.0445 32.8329 50.3062 32.8236C50.8047 32.808 50.4589 32.3071 50.3498 32.1422C50.1598 31.8591 50.11 31.66 49.7081 31.6507C49.7455 31.5231 49.7517 31.3551 49.6956 31.2338C49.3561 31.2773 49.3 31.0316 49.0445 30.9351C48.6146 30.7733 48.6832 31.1249 48.5056 31.3644C48.3249 31.6133 47.976 31.5698 47.8452 31.8716C47.7081 32.1858 47.8389 32.4253 47.3311 32.3413C47.3997 32.1516 47.3779 31.9089 47.3623 31.7067C47.2159 31.688 47.0819 31.6507 46.9448 31.6071C46.9448 31.1 47.5056 31.0596 47.8888 31.0098C48.3156 30.9569 48.4558 30.5213 48.8358 30.4498C49.191 30.3813 49.4464 30.9569 49.8857 30.624C50.1349 30.4342 50.0196 30.3222 49.9293 30.1387C49.9044 30.0889 49.7797 29.98 49.7455 29.9333C49.7424 29.9271 49.7393 29.924 49.7361 29.9178C50.0757 29.8524 50.4215 29.8027 50.7673 29.7622C50.8327 29.952 50.9729 30.1791 51.0508 30.3098C51.1069 30.4062 51.2128 30.4716 51.2595 30.5773C51.3125 30.6987 51.191 30.848 51.3405 30.9289C51.5742 31.0533 52.2595 30.2382 52.4215 30.1076C52.6302 29.9396 52.7611 29.8462 52.7112 29.6844C53.8109 29.7187 54.8857 29.8836 55.92 30.1729C56.001 30.2756 56.0882 30.3813 56.1723 30.4996C56.353 30.7516 56.4683 30.9787 56.7985 31.0907C56.9885 31.156 57.596 31.1436 57.3437 31.576C57.11 31.9742 56.8546 31.4516 56.7362 31.3271C56.5742 31.1529 56.0913 30.96 56.1069 31.3582C56.1287 31.9524 57.4745 31.8591 57.1848 32.5124C57.3468 32.6058 57.6645 32.7644 57.6116 32.9978C57.5461 33.2871 57.1692 33.1036 57.1785 33.4738C57.1879 33.9964 57.7611 34.4289 58.2938 34.2391C58.8608 34.0369 58.434 33.2529 59.082 33.172C59.3374 33.1409 59.4901 33.2156 59.7175 33.396C59.9044 33.5422 60.0259 33.8782 60.2814 33.8533C60.3094 33.6947 60.1879 33.5796 60.1661 33.4333C60.3655 33.4831 60.7673 33.732 60.8795 33.9062C61.054 34.1676 61.0353 34.5471 61.4558 34.208C61.3935 34.1551 61.3592 34.04 61.325 33.9996C61.867 33.9996 62.244 34.2236 62.4776 34.6933C62.9979 35.7418 61.7206 34.9111 61.6583 35.4556C61.3437 35.356 61.2035 35.104 60.9325 34.9516C60.8016 34.88 60.5649 34.9173 60.4652 34.8458C60.3281 34.7462 60.3624 34.5658 60.2409 34.4662C59.7705 34.0804 58.6957 34.7027 58.2627 34.9516C58.1443 35.02 58.0197 35.0262 57.9387 35.1538C57.8016 35.3716 57.9947 35.4276 57.9511 35.6298C57.8888 35.9191 57.5119 36.0529 57.3966 36.2862C57.1225 36.8431 57.6801 37.6427 57.6053 38.2618C57.5648 38.6071 57.191 38.9773 57.3343 39.2667C57.3966 39.3911 57.6085 39.4969 57.6926 39.6431C57.7673 39.7769 57.7985 39.9511 57.8982 40.088C58.2159 40.5329 58.6739 41.0307 59.0446 41.4476C59.2564 41.684 59.543 41.7493 59.8639 41.684C60.1287 41.6311 60.5275 41.5409 60.7705 41.4258C61.0976 41.2702 61.1412 41.0493 61.4839 41.1987C61.758 41.3169 61.9979 41.6653 62.3156 41.376C62.5773 41.6311 62.2876 42.0791 62.2284 42.3653C62.1536 42.7324 62.2969 43.0498 62.5244 43.3609C62.7954 43.7342 62.8577 43.7996 62.8016 44.2973C62.758 44.6862 62.6583 45.0409 62.5773 45.4267C62.4963 45.7938 62.2627 46.0738 62.2751 46.4658C62.2876 46.8267 62.4434 47.116 62.3966 47.5018C62.3561 47.8409 62.3343 48.2484 62.244 48.5813C62.1536 48.9236 61.9107 49.2253 61.811 49.5738C61.7144 49.9067 61.7424 50.336 61.973 50.6098C62.216 50.8929 62.4558 50.7311 62.7393 50.5164C63.3001 50.0902 63.5555 49.3716 63.9262 48.7991C64.3063 48.2142 64.6895 47.6791 64.9418 47.0724C64.9948 46.9449 65.0602 46.8173 65.1256 46.6898C64.5119 48.8364 63.3593 50.8058 61.7362 52.4298L61.7331 52.4204Z" fill="#0F1829"/>
</g>
<defs>
<filter id="filter0_d_148_2" x="0.382349" y="0.522965" width="102.764" height="102.697" filterUnits="userSpaceOnUse" color-interpolation-filters="sRGB">
<feFlood flood-opacity="0" result="BackgroundImageFix"/>
<feColorMatrix in="SourceAlpha" type="matrix" values="0 0 0 0 0 0 0 0 0 0 0 0 0 0 0 0 0 0 127 0" result="hardAlpha"/>
<feOffset dy="8.70995"/>
<feGaussianBlur stdDeviation="13.0649"/>
<feComposite in2="hardAlpha" operator="out"/>
<feColorMatrix type="matrix" values="0 0 0 0 0 0 0 0 0 0 0 0 0 0 0 0 0 0 0.15 0"/>
<feBlend mode="normal" in2="BackgroundImageFix" result="effect1_dropShadow_148_2"/>
<feBlend mode="normal" in="SourceGraphic" in2="effect1_dropShadow_148_2" result="shape"/>
</filter>
<clipPath id="clip0_148_2">
<rect width="28.0375" height="28" fill="white" transform="translate(38.2812 29)"/>
</clipPath>
</defs>
</svg>
