<svg width="151" height="50" viewBox="0 0 151 50" fill="none" xmlns="http://www.w3.org/2000/svg">
<path d="M66.397 18.9311C65.7983 19.4976 65.0862 19.9992 64.2932 20.4362C62.9014 21.1806 60.927 21.9089 58.4186 21.9089C52.544 21.9089 48.5791 17.507 48.5791 12.3445C48.5791 6.59938 53.7902 1.6958 60.1341 1.6958C63.1927 1.6958 65.248 2.76391 66.5589 3.83201C67.3195 4.46316 67.9506 5.14287 68.4361 5.93585L64.892 9.22109C64.5359 8.70322 64.1314 8.26627 63.662 7.86168C62.8205 7.18198 61.5582 6.50227 59.778 6.50227C56.6384 6.50227 53.9034 8.96215 53.9034 12.2474C53.9034 14.8367 55.894 17.1671 58.8232 17.1671C60.3606 17.1671 61.6068 16.6978 62.513 16.2447C63.0309 15.9696 63.5164 15.6459 63.9533 15.2899L66.397 18.9311Z" fill="#FF7400"/>
<path d="M77.7579 2.22974H83.503L86.7073 21.3585H81.3829L80.8651 17.2641H74.5859L72.3526 21.3585H66.478L77.7579 2.22974ZM80.3796 13.0241L79.8293 7.55408H79.7161L76.8354 13.0241H80.3796Z" fill="#FF7400"/>
<path d="M92.5175 2.22974H101.046C105.141 2.22974 107.228 4.96473 107.228 8.23378C107.228 10.8231 106.079 12.3929 104.963 13.3477C104.299 13.9142 103.571 14.3349 102.729 14.61L105.076 21.3585H99.6705L97.8094 15.3545H94.945L93.6827 21.3585H88.4878L92.5175 2.22974ZM99.7838 10.6937C101.062 10.6937 102.001 9.81976 102.001 8.58982C102.001 7.635 101.402 6.87438 100.124 6.87438H96.7413L95.916 10.6937H99.7838Z" fill="#FF7400"/>
<path d="M66.4131 44.6467C65.8144 45.2131 65.1023 45.7148 64.3093 46.1518C62.9175 46.8962 60.9432 47.6245 58.4347 47.6245C52.5601 47.6245 48.5952 43.2226 48.5952 38.0601C48.5952 32.315 53.8063 27.4114 60.1502 27.4114C63.2088 27.4114 65.2641 28.4795 66.575 29.5476C67.3356 30.1787 67.9668 30.8584 68.4523 31.6514L64.9081 34.9367C64.5521 34.4188 64.1475 33.9818 63.6782 33.5773C62.8366 32.8976 61.5743 32.2179 59.7941 32.2179C56.6546 32.2179 53.9196 34.6777 53.9196 37.963C53.9196 40.5523 55.9101 42.8827 58.8393 42.8827C60.3767 42.8827 61.6229 42.4134 62.5291 41.9603C63.047 41.6851 63.5325 41.3615 63.9695 41.0054L66.4131 44.6467Z" fill="#0F1829"/>
<path d="M72.5957 27.9453H77.7905L76.3178 34.9042H83.2767L84.7494 27.9453H89.9443L85.8984 47.0741H80.7036L82.241 39.8401H75.2821L73.7447 47.0741H68.5498L72.5957 27.9453Z" fill="#0F1829"/>
<path d="M94.3134 27.9453H108.927L107.94 32.59H98.5211L97.9546 35.325H105.189L104.266 39.6945H97.0322L96.4658 42.4295H106.16L105.172 47.0741H90.2837L94.3134 27.9453Z" fill="#0F1829"/>
<path d="M126.519 44.6467C125.92 45.2131 125.208 45.7148 124.415 46.1518C123.023 46.8962 121.049 47.6245 118.54 47.6245C112.666 47.6245 108.701 43.2226 108.701 38.0601C108.701 32.315 113.912 27.4114 120.256 27.4114C123.314 27.4114 125.37 28.4795 126.68 29.5476C127.441 30.1787 128.072 30.8584 128.558 31.6514L125.014 34.9367C124.658 34.4188 124.253 33.9818 123.784 33.5773C122.942 32.8976 121.68 32.2179 119.9 32.2179C116.76 32.2179 114.025 34.6777 114.025 37.963C114.025 40.5523 116.016 42.8827 118.945 42.8827C120.482 42.8827 121.728 42.4134 122.635 41.9603C123.152 41.6851 123.638 41.3615 124.075 41.0054L126.519 44.6467Z" fill="#0F1829"/>
<path d="M132.701 27.9453H137.896L136.342 35.325L144.191 27.9453H150.632L141.699 36.2798L146.537 47.0741H140.695L137.556 40.1314L134.772 42.6399L133.85 47.0579H128.655L132.701 27.9453Z" fill="#0F1829"/>
<path d="M66.4131 44.6467C65.8144 45.2131 65.1023 45.7148 64.3093 46.1518C62.9175 46.8962 60.9432 47.6245 58.4347 47.6245C52.5601 47.6245 48.5952 43.2226 48.5952 38.0601C48.5952 32.315 53.8063 27.4114 60.1502 27.4114C63.2088 27.4114 65.2641 28.4795 66.575 29.5476C67.3356 30.1787 67.9668 30.8584 68.4523 31.6514L64.9081 34.9367C64.5521 34.4188 64.1475 33.9818 63.6782 33.5773C62.8366 32.8976 61.5743 32.2179 59.7941 32.2179C56.6546 32.2179 53.9196 34.6777 53.9196 37.963C53.9196 40.5523 55.9101 42.8827 58.8393 42.8827C60.3767 42.8827 61.6229 42.4134 62.5291 41.9603C63.047 41.6851 63.5325 41.3615 63.9695 41.0054L66.4131 44.6467Z" stroke="#0F1829" stroke-width="0.13" stroke-miterlimit="10"/>
<path d="M72.5957 27.9453H77.7905L76.3178 34.9042H83.2767L84.7494 27.9453H89.9443L85.8984 47.0741H80.7036L82.241 39.8401H75.2821L73.7447 47.0741H68.5498L72.5957 27.9453Z" stroke="#0F1829" stroke-width="0.13" stroke-miterlimit="10"/>
<path d="M94.3134 27.9453H108.927L107.94 32.59H98.5211L97.9546 35.325H105.189L104.266 39.6945H97.0322L96.4658 42.4295H106.16L105.172 47.0741H90.2837L94.3134 27.9453Z" stroke="#0F1829" stroke-width="0.13" stroke-miterlimit="10"/>
<path d="M126.519 44.6467C125.92 45.2131 125.208 45.7148 124.415 46.1518C123.023 46.8962 121.049 47.6245 118.54 47.6245C112.666 47.6245 108.701 43.2226 108.701 38.0601C108.701 32.315 113.912 27.4114 120.256 27.4114C123.314 27.4114 125.37 28.4795 126.68 29.5476C127.441 30.1787 128.072 30.8584 128.558 31.6514L125.014 34.9367C124.658 34.4188 124.253 33.9818 123.784 33.5773C122.942 32.8976 121.68 32.2179 119.9 32.2179C116.76 32.2179 114.025 34.6777 114.025 37.963C114.025 40.5523 116.016 42.8827 118.945 42.8827C120.482 42.8827 121.728 42.4134 122.635 41.9603C123.152 41.6851 123.638 41.3615 124.075 41.0054L126.519 44.6467Z" stroke="#0F1829" stroke-width="0.13" stroke-miterlimit="10"/>
<path d="M132.701 27.9453H137.896L136.342 35.325L144.191 27.9453H150.632L141.699 36.2798L146.537 47.0741H140.695L137.556 40.1314L134.772 42.6399L133.85 47.0579H128.655L132.701 27.9453Z" stroke="#0F1829" stroke-width="0.13" stroke-miterlimit="10"/>
<path d="M31.1982 36.2798C29.5637 36.1504 27.9454 36.5226 26.3109 36.5388C25.0324 36.555 23.7377 36.6035 22.4754 36.4093C19.9993 35.9724 17.7498 34.5159 16.2448 32.5253C15.7593 31.8941 15.4356 31.1659 15.2576 30.4053C14.9339 29.062 14.7883 27.6703 14.6912 26.2947C14.6264 24.9838 14.7559 23.673 14.9177 22.3783C15.0472 21.4882 15.209 20.5819 15.5165 19.7242C15.9211 18.7208 16.6332 17.8793 17.41 17.1349C19.1902 15.4518 21.6015 14.3999 24.0775 14.4322C25.2428 14.3837 26.408 14.416 27.5732 14.497C28.7384 14.5941 29.9198 14.7883 31.1011 14.6912C34.8072 14.6426 38.5132 14.6426 42.2192 14.6426C43.0931 14.6426 43.7889 13.9305 43.7889 13.0566V3.07148C43.7889 1.92245 42.8665 1 41.7175 1H26.2623C11.9238 1 1 11.7458 1 25C1 38.2542 11.94 49 26.2785 49H41.7337C42.8827 49 43.8051 48.0775 43.8051 46.9285V37.9144C43.8051 37.0405 43.0931 36.3284 42.2192 36.3284C38.5455 36.3284 34.8719 36.3284 31.1982 36.2798Z" fill="#0F1829" stroke="#0F1829" stroke-width="0.13" stroke-miterlimit="10"/>
<path d="M15.9536 21.1484C15.7432 21.3912 15.6623 21.7149 15.6137 22.0223C15.2577 24.288 15.2577 26.6184 15.6137 28.9003C15.6623 29.2078 15.7432 29.5476 15.9697 29.7904C16.0668 29.6447 16.1478 29.4829 16.1478 29.3049C16.261 28.3824 16.1154 27.4438 16.0992 26.5213C16.0183 25.2105 16.1316 23.8834 16.1963 22.5726C16.1639 22.1194 16.2287 21.5692 15.9536 21.1484Z" fill="#0F1829" stroke="#0F1829" stroke-width="0.13" stroke-miterlimit="10"/>
<path d="M16.5847 20.048C17.1025 19.9185 17.5071 19.5463 17.8146 19.1255C18.381 18.3163 18.7533 17.3939 19.0931 16.4714C17.8793 17.2482 16.698 18.2678 16.2286 19.6596C16.0992 19.87 16.3743 20.1289 16.5847 20.048Z" fill="#0F1829" stroke="#0F1829" stroke-width="0.13" stroke-miterlimit="10"/>
<path d="M19.077 34.5158C18.7533 33.6095 18.3811 32.7033 17.8309 31.9103C17.5396 31.4895 17.1673 31.1173 16.6657 30.9555C16.5362 30.9231 16.342 30.8907 16.2449 31.0202C16.0669 31.1982 16.2449 31.441 16.3096 31.6352C16.8922 32.8651 17.9603 33.7876 19.077 34.5158Z" fill="#0F1829" stroke="#0F1829" stroke-width="0.13" stroke-miterlimit="10"/>
<path d="M34.8395 35.2116C37.8173 35.2278 40.8112 35.2116 43.789 35.2116V33.1887C40.7627 33.48 37.7687 34.095 34.8395 34.8556C34.5968 34.8556 34.5806 35.244 34.8395 35.2116Z" fill="#FF7400"/>
<path d="M31.0364 16.3582C30.7127 16.5038 30.5185 16.8275 30.3243 17.1026C29.7255 18.0736 29.4504 19.2065 29.2239 20.3231C28.8193 22.6535 28.8031 25.0325 28.884 27.3791C28.9811 29.2402 29.1753 31.1336 29.855 32.8976C30.0816 33.4802 30.3729 34.0466 30.8422 34.4674C31.0202 34.6292 31.263 34.6616 31.4895 34.6131C34.0303 34.1276 36.5711 33.6582 39.1119 33.1727C39.3547 33.1404 39.5974 32.9947 39.6945 32.752C39.8078 32.493 39.6622 32.2179 39.5974 31.959C39.0957 30.1626 38.9015 28.2854 38.8368 26.4243C38.7721 23.7864 38.9663 21.1323 39.7107 18.5915C39.8078 18.2516 39.5651 17.8632 39.2252 17.7985C36.6682 17.313 34.1113 16.8437 31.5543 16.3582C31.3439 16.3258 31.1821 16.2934 31.0364 16.3582Z" fill="#FF7400"/>
<path d="M34.6128 15.9858C35.9075 16.4065 37.2345 16.6655 38.5615 16.9406C40.2932 17.2966 42.041 17.5718 43.805 17.7498V15.7268C40.8434 15.7268 37.898 15.7268 34.9365 15.7268C34.7423 15.7107 34.629 15.8078 34.6128 15.9858Z" fill="#FF7400"/>
</svg>
