<svg width="22" height="21" viewBox="0 0 22 21" fill="none" xmlns="http://www.w3.org/2000/svg">
<g clip-path="url(#clip0_66_112)">
<path fill-rule="evenodd" clip-rule="evenodd" d="M10.9342 0.12207C16.6502 0.12207 21.2742 4.75439 21.2742 10.4621C21.2742 16.1698 16.6502 20.8021 10.9342 20.8021C5.21829 20.8021 0.594238 16.1698 0.594238 10.4621C0.594238 4.75439 5.22656 0.12207 10.9342 0.12207Z" fill="#0F1829"/>
<path fill-rule="evenodd" clip-rule="evenodd" d="M10.9343 1.40417C15.9389 1.40417 19.9922 5.45746 19.9922 10.462C19.9922 15.4666 15.9389 19.5199 10.9343 19.5199C5.92975 19.5199 1.87646 15.4666 1.87646 10.462C1.87646 5.45746 5.92975 1.40417 10.9343 1.40417Z" fill="#FEFEFE"/>
<path fill-rule="evenodd" clip-rule="evenodd" d="M10.6199 4.71305C7.44341 4.89504 5.01144 7.60826 5.19343 10.7847C5.27615 12.3647 6.00408 13.7709 7.09599 14.747L6.09507 15.872H6.10335C4.71365 14.6395 3.80373 12.8693 3.68792 10.8674C3.47285 6.86377 6.53349 3.43916 10.5371 3.21582L10.6199 4.71305Z" fill="#0F1829"/>
<path fill-rule="evenodd" clip-rule="evenodd" d="M11.3396 3.21582C15.3432 3.43916 18.4038 6.86377 18.1805 10.8674C18.073 12.8693 17.1548 14.6395 15.7651 15.872H15.7734L14.7724 14.7553C15.8726 13.7709 16.5923 12.3729 16.6833 10.7847C16.857 7.60826 14.4333 4.89504 11.2568 4.71305L11.3396 3.21582Z" fill="#0F1829"/>
<path fill-rule="evenodd" clip-rule="evenodd" d="M18.5697 6.4502L13.2177 8.95661L7.86572 11.4713L8.09734 11.9097L8.32896 12.3564L13.4493 9.4033L18.5697 6.4502Z" fill="#0F1829"/>
<path fill-rule="evenodd" clip-rule="evenodd" d="M10.9338 8.98132C11.7527 8.98132 12.4228 9.64308 12.4228 10.462C12.4228 11.2809 11.7527 11.9427 10.9338 11.9427C10.1149 11.9427 9.45312 11.2809 9.45312 10.462C9.45312 9.64308 10.1149 8.98132 10.9338 8.98132Z" fill="#0F1829"/>
<path fill-rule="evenodd" clip-rule="evenodd" d="M10.9342 9.65137C11.3809 9.65137 11.7448 10.0153 11.7448 10.462C11.7448 10.9087 11.3809 11.2727 10.9342 11.2727C10.4875 11.2727 10.1235 10.9087 10.1235 10.462C10.1235 10.0153 10.4875 9.65137 10.9342 9.65137Z" fill="#FEFEFE"/>
</g>
<defs>
<clipPath id="clip0_66_112">
<rect width="20.68" height="20.68" fill="white" transform="translate(0.594238 0.12207)"/>
</clipPath>
</defs>
</svg>
