<svg width="104" height="103" viewBox="0 0 104 103" fill="none" xmlns="http://www.w3.org/2000/svg">
<g filter="url(#filter0_d_148_4)">
<rect x="77.0166" y="17.6179" width="50.4369" height="50.5045" rx="7.62121" transform="rotate(90 77.0166 17.6179)" fill="#FF7400"/>
<rect x="76.4722" y="18.1623" width="49.3481" height="49.4157" rx="7.07684" transform="rotate(90 76.4722 18.1623)" stroke="white" stroke-width="1.08874"/>
</g>
<g clip-path="url(#clip0_148_4)">
<path fill-rule="evenodd" clip-rule="evenodd" d="M51.7993 27C60.3792 27 67.3201 33.944 67.3201 42.5C67.3201 51.056 60.3792 58 51.7993 58C43.2195 58 36.2786 51.056 36.2786 42.5C36.2786 33.944 43.2319 27 51.7993 27Z" fill="#0F1829"/>
<path fill-rule="evenodd" clip-rule="evenodd" d="M51.7996 28.922C59.3116 28.922 65.3958 34.998 65.3958 42.5C65.3958 50.002 59.3116 56.078 51.7996 56.078C44.2875 56.078 38.2034 50.002 38.2034 42.5C38.2034 34.998 44.2875 28.922 51.7996 28.922Z" fill="#EEEEEE"/>
<path fill-rule="evenodd" clip-rule="evenodd" d="M51.3274 33.882C46.5594 34.1548 42.9089 38.222 43.1821 42.9836C43.3063 45.352 44.3989 47.46 46.0379 48.9232L44.5355 50.6096H44.5479C42.4619 48.762 41.0961 46.1084 40.9223 43.1076C40.5994 37.106 45.1936 31.9724 51.2032 31.6376L51.3274 33.882Z" fill="#0F1829"/>
<path fill-rule="evenodd" clip-rule="evenodd" d="M52.4076 31.6376C58.4173 31.9724 63.0114 37.106 62.6762 43.1076C62.5147 46.1084 61.1365 48.762 59.0505 50.6096H59.0629L57.5605 48.9356C59.2119 47.46 60.2922 45.3644 60.4288 42.9836C60.6895 38.222 57.0514 34.1548 52.2834 33.882L52.4076 31.6376Z" fill="#0F1829"/>
<path fill-rule="evenodd" clip-rule="evenodd" d="M63.2602 36.486L55.2267 40.2432L47.1931 44.0128L47.5408 44.67L47.8884 45.3396L55.5743 40.9128L63.2602 36.486Z" fill="#0F1829"/>
<path fill-rule="evenodd" clip-rule="evenodd" d="M51.7985 40.2804C53.0277 40.2804 54.0335 41.2724 54.0335 42.5C54.0335 43.7276 53.0277 44.7196 51.7985 44.7196C50.5693 44.7196 49.5759 43.7276 49.5759 42.5C49.5759 41.2724 50.5693 40.2804 51.7985 40.2804Z" fill="#0F1829"/>
</g>
<defs>
<filter id="filter0_d_148_4" x="0.382349" y="0.198014" width="102.764" height="102.697" filterUnits="userSpaceOnUse" color-interpolation-filters="sRGB">
<feFlood flood-opacity="0" result="BackgroundImageFix"/>
<feColorMatrix in="SourceAlpha" type="matrix" values="0 0 0 0 0 0 0 0 0 0 0 0 0 0 0 0 0 0 127 0" result="hardAlpha"/>
<feOffset dy="8.70995"/>
<feGaussianBlur stdDeviation="13.0649"/>
<feComposite in2="hardAlpha" operator="out"/>
<feColorMatrix type="matrix" values="0 0 0 0 0 0 0 0 0 0 0 0 0 0 0 0 0 0 0.15 0"/>
<feBlend mode="normal" in2="BackgroundImageFix" result="effect1_dropShadow_148_4"/>
<feBlend mode="normal" in="SourceGraphic" in2="effect1_dropShadow_148_4" result="shape"/>
</filter>
<clipPath id="clip0_148_4">
<rect width="31.0415" height="31" fill="white" transform="translate(36.2786 27)"/>
</clipPath>
</defs>
</svg>
