<svg width="104" height="105" viewBox="0 0 104 105" fill="none" xmlns="http://www.w3.org/2000/svg">
<g filter="url(#filter0_d_1_1917)">
<rect x="77.6066" y="18.1875" width="50.8129" height="50.881" rx="7.67802" transform="rotate(90 77.6066 18.1875)" fill="#FF7400"/>
<rect x="77.0582" y="18.7359" width="49.716" height="49.7841" rx="7.12959" transform="rotate(90 77.0582 18.7359)" stroke="white" stroke-width="1.09686"/>
</g>
<path d="M58.4369 40.0421C58.449 40.0273 58.4611 40.0134 58.4722 39.9986C58.4581 39.9937 58.4439 39.9887 58.4298 39.9838C58.4328 40.0026 58.4348 40.0223 58.4369 40.0421ZM39.9479 49.9036C39.9479 49.9036 43.7058 53.8118 44.0822 56.0369L44.5767 57.7863L49.3347 57.9999L49.4507 57.0001C49.4507 57.0001 50.7898 54.6118 50.4386 52.4896C50.4386 52.4896 50.8423 52.2602 48.5758 48.4519C48.5758 48.4519 46.7735 44.246 46.9199 43.175C46.9199 43.175 46.2841 40.4515 45.38 40.3141C45.38 40.3141 43.8189 40.0649 44.6655 43.9246L44.9804 47.5955C44.9804 47.5955 43.3416 46.4454 43.2709 44.423L42.4778 39.3973C42.4778 39.3973 43.7694 33.0426 41.5231 32.9219L39.4928 39.3835C39.4928 39.3835 39.2345 40.4139 39.2143 42.3404L38.6169 47.6775C38.6169 47.6775 38.4201 48.5429 39.9479 49.9036ZM46.819 40.0421C46.821 40.0223 46.823 40.0026 46.826 39.9838C46.8119 39.9887 46.7978 39.9927 46.7836 39.9986C46.7947 40.0134 46.8068 40.0273 46.819 40.0421ZM54.8162 52.4876C54.465 54.6099 55.8041 56.9981 55.8041 56.9981L55.9201 57.9979L60.6781 57.7843L61.1726 56.0349C61.549 53.8098 65.3069 49.9016 65.3069 49.9016C66.8347 48.5409 66.6379 47.6756 66.6379 47.6756L66.0415 42.3384C66.0213 40.412 65.763 39.3815 65.763 39.3815L63.7307 32.9189C61.4844 33.0406 62.776 39.3944 62.776 39.3944L61.9829 44.4201C61.9122 46.4414 60.2734 47.5925 60.2734 47.5925L60.5883 43.9216C61.4359 40.0609 59.8738 40.3111 59.8738 40.3111C58.9707 40.4486 58.3349 43.172 58.3349 43.172C58.4813 44.243 56.679 48.4489 56.679 48.4489C54.4125 52.2582 54.8162 52.4876 54.8162 52.4876Z" fill="#0F1829"/>
<path d="M51.6289 40.6437L52.0389 41.0413C52.0568 41.0585 52.0568 41.0933 52.0389 41.1189L51.6289 41.5165L51.6289 42.3289L52.0389 42.7265C52.0568 42.7525 52.0568 42.7869 52.0389 42.8041L51.6289 43.2017L51.6289 45.0337C51.6289 45.0857 51.6555 45.1373 51.6914 45.1721L52.4848 45.9413C52.5648 46.0189 52.6898 46.0189 52.761 45.9413C52.7698 45.9325 52.779 45.9241 52.7877 45.9153L53.5811 44.8089C53.6078 44.7745 53.6165 44.7397 53.6165 44.6965L53.6165 44.4545L53.2065 44.0569C53.1886 44.0309 53.1886 43.9965 53.2065 43.9793L53.6165 43.5817L53.6165 42.7605L53.2065 42.3629C53.1886 42.3457 53.1886 42.3109 53.2065 42.2853L53.6165 41.8877L53.6165 37.4801L51.6289 37.4801L51.6289 40.6433L51.6289 40.6437ZM52.4131 37.7397L52.841 37.7397L52.841 44.7573C52.841 44.8697 52.7431 44.9649 52.6273 44.9649C52.5027 44.9649 52.4135 44.8697 52.4135 44.7573L52.4135 37.7397L52.4131 37.7397Z" fill="white"/>
<path d="M51.3261 37.2217L53.92 37.2217C54.856 37.2217 55.6314 36.4785 55.6314 35.5625L55.6314 29.3401C55.6314 28.6057 55.0076 28.0005 54.2496 28.0005L50.996 28.0005C50.2385 28.0005 49.6234 28.6053 49.6234 29.3401L49.6234 35.5625C49.6234 36.4785 50.3901 37.2217 51.3261 37.2217ZM54.856 30.0917C55.0522 30.0917 55.2214 30.2473 55.2214 30.4373C55.2214 30.6273 55.0518 30.7917 54.856 30.7917C54.6601 30.7917 54.4905 30.6361 54.4905 30.4373C54.4905 30.2385 54.6597 30.0917 54.856 30.0917ZM51.4598 28.9681L53.795 28.9681C54.1338 28.9681 54.4101 29.2445 54.4101 29.5729C54.4101 29.9013 54.1338 30.1777 53.795 30.1777L51.4594 30.1777C51.1119 30.1777 50.8356 29.9013 50.8356 29.5729C50.8356 29.2445 51.1119 28.9681 51.4594 28.9681L51.4598 28.9681ZM50.3455 31.7681C50.3455 31.2841 50.7556 30.8953 51.246 30.8953L54 30.8953C54.4993 30.8953 54.9005 31.2841 54.9005 31.7681L54.9005 35.5361C54.9005 36.0201 54.4993 36.4089 54 36.4089L51.2456 36.4089C50.7556 36.4089 50.3451 36.0201 50.3451 35.5361L50.3451 31.7681L50.3455 31.7681Z" fill="white"/>
<path d="M51.2457 36.2104L54.0001 36.2104C54.3835 36.2104 54.6956 35.908 54.6956 35.5364L54.6956 34.6116L50.5507 34.6117L50.5507 35.5364C50.5507 35.908 50.8628 36.2104 51.2461 36.2104L51.2457 36.2104ZM52.6275 35.0005C52.8592 35.0005 53.0463 35.182 53.0463 35.4064C53.0463 35.6308 52.8592 35.8128 52.6275 35.8128C52.3958 35.8128 52.2087 35.6312 52.2087 35.4064C52.2087 35.1816 52.3958 35.0005 52.6275 35.0005Z" fill="white"/>
<path d="M54.6956 32.9866L50.5507 32.9866L50.5507 34.3174L54.6956 34.3174L54.6956 32.9866ZM52.6275 34.0582C52.3958 34.0582 52.2087 33.8766 52.2087 33.6522C52.2087 33.4278 52.3958 33.2458 52.6275 33.2458C52.8592 33.2458 53.0463 33.4274 53.0463 33.6522C53.0463 33.877 52.8592 34.0582 52.6275 34.0582Z" fill="white"/>
<path d="M54.6956 31.7681C54.6956 31.3965 54.3835 31.0941 54.0001 31.0941L51.2457 31.0941C50.8624 31.0941 50.5502 31.3965 50.5502 31.7681L50.5502 32.6929L54.6956 32.6929L54.6956 31.7681ZM52.6275 32.3041C52.3958 32.3041 52.2087 32.1225 52.2087 31.8981C52.2087 31.6737 52.3958 31.4917 52.6275 31.4917C52.8592 31.4917 53.0463 31.6733 53.0463 31.8981C53.0463 32.1229 52.8592 32.3041 52.6275 32.3041Z" fill="white"/>
<defs>
<filter id="filter0_d_1_1917" x="0.400999" y="0.637733" width="103.53" height="103.462" filterUnits="userSpaceOnUse" color-interpolation-filters="sRGB">
<feFlood flood-opacity="0" result="BackgroundImageFix"/>
<feColorMatrix in="SourceAlpha" type="matrix" values="0 0 0 0 0 0 0 0 0 0 0 0 0 0 0 0 0 0 127 0" result="hardAlpha"/>
<feOffset dy="8.77488"/>
<feGaussianBlur stdDeviation="13.1623"/>
<feComposite in2="hardAlpha" operator="out"/>
<feColorMatrix type="matrix" values="0 0 0 0 0 0 0 0 0 0 0 0 0 0 0 0 0 0 0.15 0"/>
<feBlend mode="normal" in2="BackgroundImageFix" result="effect1_dropShadow_1_1917"/>
<feBlend mode="normal" in="SourceGraphic" in2="effect1_dropShadow_1_1917" result="shape"/>
</filter>
</defs>
</svg>
