<svg width="19" height="19" viewBox="0 0 19 19" fill="none" xmlns="http://www.w3.org/2000/svg">
<path d="M13.1309 7.08684C13.1385 7.07732 13.1461 7.06844 13.1531 7.05892C13.1442 7.05575 13.1354 7.05257 13.1265 7.0494C13.1284 7.06146 13.1297 7.07415 13.1309 7.08684ZM1.53936 13.4159C1.53936 13.4159 3.89538 15.9241 4.13136 17.3522L4.44136 18.4749L7.42435 18.612L7.4971 17.9704C7.4971 17.9704 8.33664 16.4376 8.11648 15.0756C8.11648 15.0756 8.36954 14.9283 6.94859 12.4842C6.94859 12.4842 5.81866 9.78487 5.9104 9.09751C5.9104 9.09751 5.51182 7.3496 4.94496 7.26138C4.94496 7.26138 3.96624 7.10144 4.49704 9.5786L4.69443 11.9345C4.69443 11.9345 3.66699 11.1964 3.6227 9.89848L3.12543 6.67303C3.12543 6.67303 3.93524 2.59457 2.52694 2.51714L1.25403 6.66415C1.25403 6.66415 1.09207 7.32548 1.07942 8.56184L0.704883 11.9872C0.704883 11.9872 0.581515 12.5426 1.53936 13.4159ZM5.84713 7.08684C5.8484 7.07415 5.84966 7.06146 5.85156 7.0494C5.8427 7.05257 5.83384 7.05511 5.82499 7.05892C5.83195 7.06844 5.83954 7.07732 5.84713 7.08684ZM10.8609 15.0743C10.6408 16.4363 11.4803 17.9691 11.4803 17.9691L11.5531 18.6107L14.5361 18.4737L14.8461 17.3509C15.082 15.9229 17.4381 13.4146 17.4381 13.4146C18.3959 12.5413 18.2725 11.9859 18.2725 11.9859L17.8986 8.56057C17.886 7.32422 17.724 6.66288 17.724 6.66288L16.4499 2.51524C15.0416 2.59331 15.8514 6.67113 15.8514 6.67113L15.3541 9.89658C15.3098 11.1939 14.2824 11.9326 14.2824 11.9326L14.4798 9.5767C15.0112 7.0989 14.0318 7.25948 14.0318 7.25948C13.4656 7.3477 13.067 9.09561 13.067 9.09561C13.1588 9.78297 12.0288 12.4823 12.0288 12.4823C10.6079 14.9271 10.8609 15.0737 10.8609 15.0737V15.0743ZM6.00023 3.82712C6.0015 3.81507 6.0034 3.80237 6.00466 3.79031C5.99581 3.79349 5.98632 3.79666 5.97809 3.79983C5.98505 3.80935 5.99327 3.81824 6.00023 3.82776V3.82712ZM8.12407 1.4128C8.12407 1.71935 8.37144 1.96751 8.67701 1.96751H10.4814C10.7869 1.96751 11.0343 1.71935 11.0343 1.4128V1.3798C11.0343 1.07325 10.7869 0.825085 10.4814 0.825085H8.67701C8.37144 0.825085 8.12407 1.07325 8.12407 1.3798V1.4128ZM8.28287 1.3963C8.28287 1.24397 8.4056 1.07896 8.55744 1.07896H10.3719C10.5231 1.07896 10.6465 1.24397 10.6465 1.3963C10.6465 1.54862 10.5237 1.71364 10.3719 1.71364H8.55744C8.40623 1.71364 8.28287 1.54799 8.28287 1.3963ZM6.54242 2.72913H12.4894V1.29602C12.4894 0.705765 11.9814 0 11.3886 0H7.63312C7.04918 0 6.54242 0.69561 6.54242 1.29602V2.72913ZM6.92202 1.29602C6.92202 0.859358 7.21241 0.253872 7.63312 0.253872H11.3886C11.8207 0.253872 12.1731 0.866339 12.1731 1.29602V2.41179H6.92202V1.29602ZM7.56986 4.44276H8.12407V4.96193L8.48405 5.22215L8.12407 5.28308V5.85556L8.61754 6.51182L8.12407 6.68636V7.30073L8.58528 7.6955L8.12407 7.91383V9.13496L9.48428 10.5636L10.8445 9.13496V4.44276H11.3253C11.9295 4.44276 12.4261 4.61921 12.4261 4.03911V3.23687H6.47916V4.03911C6.47916 4.63952 6.98781 4.44276 7.56986 4.44276ZM7.56986 4.31583C7.14661 4.31583 6.92202 4.48085 6.92202 4.03911V3.74462H12.1731V4.03911C12.1731 4.45863 11.7694 4.31583 11.3253 4.31583H10.5914V9.01881L9.48428 10.1301L8.37713 9.01881V8.10233L8.91363 7.76849L8.37713 7.16491V6.89644L8.88516 6.65653L8.37713 5.75592V5.53315L9.02055 5.39606L8.37713 4.80961V4.31519H7.56986V4.31583ZM9.98282 8.54788C9.98282 8.56375 9.98029 8.57834 9.97776 8.59358C9.98029 8.5885 9.98282 8.58342 9.98282 8.57708V8.54788ZM9.19959 4.7563V8.54788C9.19959 8.7313 9.42038 8.69513 9.60322 8.69513H9.65257C9.81959 8.69513 9.95625 8.64054 9.97839 8.47933C9.9727 8.49012 9.96131 8.56819 9.94866 8.56819H9.84047C9.82149 8.56819 9.95878 8.59612 9.95878 8.57644V4.81596C9.95878 4.79628 9.82086 4.82357 9.84047 4.82357H9.94866C9.96763 4.82357 10.0859 4.79692 10.0859 4.81596V4.75566C10.0859 4.57287 9.83541 4.37866 9.6532 4.37866H9.60386C9.42102 4.37866 9.20022 4.57224 9.20022 4.75566L9.19959 4.7563Z" fill="#0F1829"/>
</svg>
