<svg width="1440" height="1417" viewBox="0 0 1440 1417" fill="none" xmlns="http://www.w3.org/2000/svg">
<g style="mix-blend-mode:plus-lighter" opacity="0.03">
<mask id="mask0_1_1258" style="mask-type:alpha" maskUnits="userSpaceOnUse" x="4" y="16" width="1429" height="1401">
<rect x="4" y="1416.74" width="1400.74" height="1428.91" transform="rotate(-90 4 1416.74)" fill="#D9D9D9"/>
</mask>
<g mask="url(#mask0_1_1258)">
<mask id="mask1_1_1258" style="mask-type:luminance" maskUnits="userSpaceOnUse" x="-738" y="0" width="2472" height="1001">
<path d="M-737.36 98.5076L-737.36 902.208C-737.36 956.217 -682.7 1000 -615.274 1000L1611.8 1000C1679.23 1000 1733.89 956.217 1733.89 902.208L1733.89 98.5076C1733.89 44.4984 1679.23 0.715483 1611.8 0.715482L-615.274 0.715456C-682.7 0.715455 -737.36 44.4984 -737.36 98.5076Z" fill="white"/>
</mask>
<g mask="url(#mask1_1_1258)">
<path opacity="0.71" d="M1342.04 682.024C1287.86 645.129 1233.69 608.281 1179.51 571.385C1130.11 537.774 1071.31 502.545 1014.27 520.397C1002.06 524.206 990.187 530.49 977.358 530.062C960.476 529.538 946.455 517.636 932.53 508.115C883.553 474.694 818.457 466.03 762.375 485.501C739.961 493.309 719.216 505.211 698.614 517.017C665.947 535.775 633.232 554.532 600.565 573.289C579.152 585.572 556.69 598.95 545.245 620.801C535.039 640.273 535.326 663.315 531.081 684.929C519.207 745.58 471.899 794.092 456.829 854.03C435.607 938.533 481.675 1023.18 514.676 1103.78C535.802 1155.29 551.969 1208.7 565.418 1262.74C583.921 1337.1 597.226 1415.13 580.821 1489.97C619.068 1502.01 659.747 1506.3 699.663 1502.49C705.91 1501.92 712.825 1500.73 716.545 1495.73C721.314 1489.35 718.453 1480.16 714.447 1473.31C700.903 1450.26 676.2 1434.46 666.137 1409.7C660.844 1396.75 660.081 1382.52 658.602 1368.62C643.103 1226.7 546.342 1108.63 491.69 976.714C485.061 960.67 478.909 943.722 480.006 926.393C480.96 911.349 487.255 897.21 493.454 883.451C516.727 831.94 539.951 780.429 563.224 728.87C588.738 672.408 626.031 607.424 688.027 604.472C727.227 602.615 769.29 627.324 803.578 608.233C809.301 605.043 814.451 600.759 820.651 598.664C848.549 589.285 868.15 627.181 869.389 656.507C871.106 697.021 867.72 746.437 901.961 768.194C918.509 778.715 939.636 779.001 957.281 787.522C988.517 802.614 1004.06 840.843 1036.16 854.078C1075.79 870.407 1121 841.509 1163.16 849.317C1190.62 854.411 1212.66 874.168 1237.22 887.498C1281.95 911.73 1336.22 914.253 1385.67 902.351C1409.71 896.543 1433.6 887.45 1458.26 889.021C1481.72 889.021 1499.6 903.018 1519.73 912.301C1541.48 922.347 1562.27 924.965 1586.49 928.964C1590.69 929.63 1595.03 930.345 1599.18 929.44C1605.67 928.059 1610.63 923.061 1616.49 919.966C1630.46 912.492 1648.39 916.443 1661.37 925.631C1674.29 934.82 1683.35 948.34 1692.08 961.575C1702.67 977.571 1713.25 993.615 1721.41 1010.94C1734.67 1038.94 1746.92 1074.83 1777.54 1079.88C1791.46 1051.46 1783.64 1017.04 1770.1 988.426C1756.55 959.814 1737.57 933.534 1728.37 903.256C1723.03 885.689 1720.69 866.265 1708.96 852.126C1699.95 841.319 1686.69 835.177 1675.05 827.275C1655.31 813.849 1639.91 794.854 1620.54 780.81C1577.48 749.579 1530.84 762.862 1483.82 749.627C1432.31 735.154 1386.25 712.017 1342.04 681.929L1342.04 682.024Z" fill="#101C38"/>
<path opacity="0.71" d="M1469.66 637.56C1462.74 632.656 1455.83 627.848 1447.24 625.896C1438.9 623.944 1430.22 624.706 1421.68 625.467C1414.24 626.134 1406.85 626.753 1399.41 627.419C1397.79 627.562 1396.07 627.752 1394.74 628.609C1393.35 629.514 1392.5 631.037 1391.92 632.561C1388.82 640.797 1392.64 651.08 1400.41 655.27C1409.43 660.173 1421.59 657.174 1429.88 663.22C1435.56 667.362 1438.66 675.265 1445.48 676.836C1449.39 677.74 1453.97 676.312 1457.26 678.597C1459.88 680.406 1460.64 683.882 1461.55 686.976C1468.94 711.922 1500.18 710.256 1520.83 714.493C1534.71 717.35 1558.65 729.585 1572.24 724.824C1619.16 708.257 1567.85 660.459 1539.33 656.365C1520.97 653.699 1504.47 655.555 1486.97 648.176C1480.67 645.51 1475.19 641.559 1469.66 637.607L1469.66 637.56Z" fill="#101C38"/>
<g opacity="0.46">
<path d="M1755.55 648.128L1753.65 654.746L967.583 426.611L966.916 425.802L721.888 132.255L245.614 503.973L118.284 1003.76L391.067 1539.67L384.915 1542.77L110.987 1004.56L111.321 1003.33L239.558 499.974L240.464 499.26L722.889 122.733L971.542 420.565L1755.55 648.128Z" fill="white"/>
<path d="M936.418 1166.59L950.531 1176.44L1811.2 -53.3592L1797.09 -63.202L936.418 1166.59Z" fill="white"/>
<path d="M1272.94 353.534L1271.03 360.151C1251.24 354.486 1161.96 302.356 1151.81 296.405L1026.29 296.405L965.437 237.562C947.744 220.471 919.941 219.186 900.77 234.563L603.713 472.743C581.967 490.167 550.254 487.739 531.464 467.173L358.733 278.314C332.266 249.369 317.673 211.807 317.673 172.578L317.673 129.97C317.673 100.644 308.516 72.6028 291.205 48.8943L161.347 -128.776L166.927 -132.823L296.785 44.8477C314.954 69.7464 324.588 99.1678 324.588 129.97L324.588 172.578C324.588 210.093 338.513 245.989 363.884 273.696L536.614 462.555C552.972 480.408 580.584 482.55 599.469 467.411L896.526 229.231C918.415 211.664 950.129 213.14 970.301 232.659L1029.15 289.597L1153.71 289.597L1154.53 290.073C1155.53 290.645 1253.24 347.964 1272.94 353.581L1272.94 353.534Z" fill="white"/>
<path d="M525.359 1476.64C525.359 1476.64 525.073 1476.3 524.596 1475.97L518.874 1484.54C516.394 1482.87 512.197 1480.11 400.365 1236.36C350.53 1127.72 300.933 1018.37 291.729 998.041L-230.422 1047.27L-232.138 1045.6L-784.619 502.781L-777.371 495.45L-226.606 1036.6L298.072 987.139L299.598 990.472C385.153 1179.47 515.869 1464.93 525.359 1476.64Z" fill="white"/>
<path d="M144.751 1526.06L131.064 1527.34C130.682 1523.44 94.2955 1134.63 59.1008 749.722C38.4036 523.635 22.1893 343.155 10.8392 213.235C-10.7164 -33.8477 -9.47649 -35.752 -7.37816 -38.894L4.06733 -31.2769C4.92574 -32.5623 5.06877 -33.7526 5.06877 -33.8954C5.06877 -33.5621 5.06877 -32.9907 5.06877 -32.3242C5.06877 19.4727 96.0601 1005.33 144.799 1526.06L144.751 1526.06Z" fill="white"/>
<path d="M1438.28 340.681L1437.18 343.966C1428.83 341.205 1301.12 280.077 1284.48 272.079L1188.91 486.407L1185.76 485.026L1282.76 267.461L1284.34 268.222C1285.77 268.936 1429.74 337.872 1438.23 340.728L1438.28 340.681Z" fill="white"/>
<path d="M1137.04 471.241L1140.32 472.246L1189.11 313.345L1185.83 312.34L1137.04 471.241Z" fill="white"/>
<path d="M1173.12 357.913L1172.84 361.341L1011.74 347.011C1008.79 349.058 993.622 359.675 978.409 370.244C969.92 376.147 961.479 382.05 955.136 386.43C947.22 391.921 942.912 394.254 942.212 393.428L944.883 391.238L943.548 392.333L942.689 390.858C944.358 389.858 992.048 356.58 1010.31 343.822L1010.84 343.441L1011.46 343.441L1173.22 357.913L1173.12 357.913Z" fill="white"/>
<path d="M1157.67 408.806L1157.1 412.186C1109.89 403.998 1032.96 391.81 1027.43 393.953C1025.19 394.857 1021.42 396.428 909.163 262.223C858.421 201.571 807.871 139.872 799.763 129.97L311.043 552.295L184.809 1003.57L181.471 1002.66L307.991 550.391L308.373 550.057L800.193 125.066L801.29 126.447C886.129 230.231 1015.51 385.479 1026.62 390.62C1038.02 388.192 1145.27 406.664 1157.67 408.806Z" fill="white"/>
<path d="M1142.98 181.195L857.229 418.137L855.036 415.518L1134.11 184.099L1014.13 176.672L985.18 129.35L905.396 141.681L764.283 271.03L627.224 405.854L626.031 404.331L409.999 129.969L202.55 303.165L137.025 217.234L17.2768 209.14L-160.366 234.563L-465.244 373.862L-466.675 370.767L-161.368 231.23L-161.129 231.182L17.1337 205.713L17.3245 205.713L138.789 213.901L203.122 298.214L410.523 125.066L627.557 400.712L761.898 268.507L903.822 138.443L986.897 125.637L1016.13 173.34L1142.98 181.195Z" fill="white"/>
<path d="M202.932 669.409L72.1675 790.57L-85.875 1030.61L-91.6454 1026.85L66.874 786.143L198.21 664.363L202.932 669.409Z" fill="white"/>
<path d="M34.016 383.289L-40.3316 420.28L-144.581 420.28L-144.581 413.376L-41.9531 413.376L30.9639 377.1L34.016 383.289Z" fill="white"/>
<path d="M33.9206 286.408L-55.2584 327.445L-152.831 327.445L-152.831 320.59L-56.7845 320.59L31.0593 280.171L33.9206 286.408Z" fill="white"/>
<path d="M181.662 742.582L179.23 749.056L55.4288 702.829L-117.541 716.064L-118.065 709.209L56.3825 695.879L181.662 742.582Z" fill="white"/>
<path d="M813.833 -102.735L638.86 145.681L638.193 146.157L343.711 363.818L239.176 242.276L124.817 345.774L246.616 498.737L347.526 611.947L412.765 643.32C439.614 656.222 453.206 686.405 445.051 715.017L363.407 1002.61C378.286 1033.61 475.238 1235.7 477.194 1241.51C479.053 1247.08 479.34 1247.93 420.968 1273.55C392.259 1286.16 352.057 1303.25 301.506 1324.49C215.474 1360.57 128.107 1396.37 127.249 1396.75L123.339 1387.23C250.383 1335.15 439.948 1256.03 465.939 1241.51C454.541 1216.66 382.149 1065.5 353.249 1005.33L352.39 1003.57L352.915 1001.71L435.084 712.208C441.856 688.405 430.553 663.363 408.235 652.651L341.136 620.374L238.651 505.402L110.653 344.632L240.082 227.518L345.285 349.821L631.373 138.349L805.344 -108.686L813.785 -102.782L813.833 -102.735Z" fill="white"/>
<path d="M32.8207 401.778L211.317 467.586L213.696 461.155L35.1998 395.347L32.8207 401.778Z" fill="white"/>
<path d="M118.427 341.822L117.139 348.583C24.6694 331.063 24.3355 327.302 24.0494 324.303L30.9167 323.684C30.8213 322.589 30.2013 321.923 29.9628 321.732C34.3025 324.684 78.7967 334.301 118.427 341.775L118.427 341.822Z" fill="white"/>
<path d="M105.956 721.688L112.56 723.567L186.305 465.301L179.701 463.422L105.956 721.688Z" fill="white"/>
<path d="M575.481 1291.07C575.481 1296.68 573.431 1302.3 569.282 1306.78C564.799 1311.58 558.456 1314.3 551.875 1314.16C545.294 1314.01 539.047 1311.11 534.755 1306.11L520.782 1289.92L447.769 1323.01L428.55 1405.04L247.856 1424.41L203.743 1528.06L197.4 1525.34L243.134 1418.03L423.018 1398.75L441.903 1318.2L522.689 1281.59L540.048 1301.68C543.053 1305.21 547.44 1307.25 552.066 1307.3C556.692 1307.4 561.127 1305.49 564.274 1302.11C569.997 1295.97 570.092 1286.59 564.513 1280.31L546.772 1260.12L442.762 1038.32C436.753 1025.56 424.878 1016.66 410.905 1014.56L357.493 1006.52L358.542 999.709L411.954 1007.75C428.217 1010.23 442.047 1020.56 449.009 1035.41L552.829 1256.74L569.711 1275.69C573.621 1280.07 575.577 1285.54 575.577 1291.02L575.481 1291.07Z" fill="white"/>
<path d="M919.179 1055.98L917.271 1058.84C911.453 1054.98 712.779 837.558 690.127 812.803L687.79 810.279L691.224 809.946C734.335 805.804 781.833 799.663 788.224 796.045C782.787 787.904 727.61 728.633 690.413 689.261L626.175 668.933L524.311 824.419L607.624 860.934L644.345 1055.55L716.07 1048.17L697.185 934.201L774.107 916.015L828.76 1161.57L825.421 1162.34L771.532 920.205L701.143 936.867L720.076 1051.27L641.579 1059.36L604.62 863.457L519.256 826.037L624.792 664.982L692.368 686.405L692.654 686.738C708.869 703.925 789.94 789.856 791.896 795.759C792.134 796.426 792.039 797.14 791.61 797.759C787.842 803.567 720.648 810.66 694.991 813.183C771.58 897.02 913.885 1052.27 919.179 1056.17L919.179 1055.98Z" fill="white"/>
<path d="M1681.44 988.045L1681.16 991.473L1388.06 957.386C1380.19 956.719 1372.47 959.576 1366.89 965.193C1361.31 970.811 1358.54 978.619 1359.35 986.426L1382.43 1222.89C1383.15 1230.46 1380.67 1238.08 1375.52 1243.7C1370.37 1249.36 1363.07 1252.6 1355.44 1252.6L1173.93 1229.46L1109.17 1337.77L986.897 1372.33C971.159 1373.81 955.613 1368.33 944.31 1357.34L827.376 1243.93L655.981 1509.25L653.072 1507.39L826.756 1238.55L946.695 1354.86C957.329 1365.14 971.827 1370.28 986.563 1368.9L1107.12 1357.67L1171.98 1249.22L1355.44 1249.22C1362.12 1249.22 1368.51 1246.41 1372.99 1241.46C1377.47 1236.56 1379.67 1229.89 1379 1223.27L1355.92 986.807C1355.06 977.905 1358.16 969.192 1364.45 962.813C1370.75 956.434 1379.43 953.244 1388.35 953.958L1681.44 988.045Z" fill="white"/>
<path d="M1207.75 5.85792L799.621 371.34L851.173 671.123L615.158 768.528L529.413 969.86L833.051 1494.21L821.129 1501.11L514.057 970.764L604.714 757.959L835.722 662.649L784.742 366.198L1198.54 -4.37768L1207.75 5.85792Z" fill="white"/>
<path d="M1662.94 -30.2292L883.602 1106.68L727.133 1343.72L712.779 1334.25L869.343 1097.07L1648.73 -39.8937L1662.94 -30.2292Z" fill="white"/>
<path d="M1560.03 290.407L1558.17 293.311L1470.51 236.944L1402.41 265.46L1401.6 264.604L1084.71 -65.7916L1087.19 -68.1719L1403.27 261.366L1470.85 233.088L1560.03 290.407Z" fill="white"/>
<path d="M1433.89 470.221L1432.41 473.363L1287.24 405.522L1234.93 499.689L1231.92 498.023L1285.81 401.047L1287.24 401.714L1433.89 470.221Z" fill="white"/>
<path d="M599.469 381.479L345.857 617.088L224.058 1002.99L355.251 1296.25L352.104 1297.64L220.386 1003.23L220.577 1002.61L342.852 615.184L343.186 614.898L597.132 378.956L599.469 381.479Z" fill="white"/>
<path d="M394.357 881.023L368.032 973.905L236.028 957.195L211.516 899.352L139.171 906.112L68.0663 789.236L70.9754 787.475L140.983 902.494L213.71 895.686L238.413 954.005L365.505 970.097L390.208 883.118L273.56 840.176L163.731 819.086L164.399 815.754L274.466 836.891L394.357 881.023Z" fill="white"/>
</g>
</g>
</g>
</g>
</svg>
