<svg width="104" height="104" viewBox="0 0 104 104" fill="none" xmlns="http://www.w3.org/2000/svg">
<g filter="url(#filter0_d_148_8)">
<rect x="77.0166" y="18.1304" width="50.4369" height="50.5045" rx="7.62121" transform="rotate(90 77.0166 18.1304)" fill="#EEEEEE"/>
<rect x="76.4722" y="18.6747" width="49.3481" height="49.4157" rx="7.07684" transform="rotate(90 76.4722 18.6747)" stroke="white" stroke-width="1.08874"/>
</g>
<ellipse cx="51.2987" cy="38.5" rx="7.00938" ry="9.5" fill="white"/>
<path d="M51.3234 29C48.0176 29 45.291 31.117 44.9292 33.8391H57.7177C57.3551 31.117 54.6286 29 51.3234 29Z" fill="#0F1829"/>
<path d="M54.8816 46.3552V47.3909C54.8816 49.2752 53.277 50.8225 51.3227 50.8225C49.3684 50.8225 47.7638 49.2752 47.7638 47.3909V46.332C43.4683 48.4961 37.2793 48.2048 37.2793 54.4398V57.9997H65.3168V54.4398C65.3168 48.228 59.1757 48.4954 54.881 46.3552H54.8816Z" fill="#0F1829"/>
<path d="M44.7478 36.0844H44.7964C44.7363 36.4215 44.6999 36.794 44.6999 37.1781V39.9582C44.6999 43.2971 47.6796 47.8217 51.3229 47.8217C54.9663 47.8217 57.9345 43.2964 57.9345 39.9582V37.1781C57.9345 36.794 57.9102 36.4221 57.8502 36.0844H57.8988C58.4294 36.0844 58.4294 34.1885 57.8988 34.1885H44.7478C44.2172 34.1885 44.2172 36.0844 44.7478 36.0844ZM51.3229 47.4724C48.0658 47.4724 45.4478 43.5987 45.0975 40.6091C47.4258 41.8187 49.5732 42.1448 51.3229 40.388C53.072 42.1448 55.2194 41.8187 57.5363 40.6091C57.1987 43.5987 54.5808 47.4724 51.3229 47.4724ZM46.0871 38.9342C46.0871 38.3645 46.9917 37.9108 48.1137 37.9108C49.2356 37.9108 50.1402 38.3645 50.1402 38.9342C50.1402 39.5039 49.2356 39.9575 48.1137 39.9575C46.9917 39.9575 46.0871 39.4923 46.0871 38.9342ZM52.5057 38.9342C52.5057 38.3645 53.4103 37.9108 54.5322 37.9108C55.6542 37.9108 56.5588 38.3645 56.5588 38.9342C56.5588 39.5039 55.642 39.9575 54.5322 39.9575C53.4224 39.9575 52.5057 39.4923 52.5057 38.9342ZM45.1582 36.0844H57.4883C57.5484 36.4215 57.5727 36.7824 57.5727 37.1665C55.3652 36.4801 47.282 36.4801 45.0617 37.1665C45.0617 36.7824 45.0982 36.4221 45.1582 36.0844Z" fill="#0F1829"/>
<defs>
<filter id="filter0_d_148_8" x="0.382349" y="0.710465" width="102.764" height="102.697" filterUnits="userSpaceOnUse" color-interpolation-filters="sRGB">
<feFlood flood-opacity="0" result="BackgroundImageFix"/>
<feColorMatrix in="SourceAlpha" type="matrix" values="0 0 0 0 0 0 0 0 0 0 0 0 0 0 0 0 0 0 127 0" result="hardAlpha"/>
<feOffset dy="8.70995"/>
<feGaussianBlur stdDeviation="13.0649"/>
<feComposite in2="hardAlpha" operator="out"/>
<feColorMatrix type="matrix" values="0 0 0 0 0 0 0 0 0 0 0 0 0 0 0 0 0 0 0.15 0"/>
<feBlend mode="normal" in2="BackgroundImageFix" result="effect1_dropShadow_148_8"/>
<feBlend mode="normal" in="SourceGraphic" in2="effect1_dropShadow_148_8" result="shape"/>
</filter>
</defs>
</svg>
