<svg width="20" height="24" viewBox="0 0 20 24" fill="none" xmlns="http://www.w3.org/2000/svg">
<g clip-path="url(#clip0_1_2108)">
<path d="M0.123713 10.969H19.1653V0.923916H0.123713V10.969Z" fill="white"/>
<path d="M0.122622 6.94961H8.50693V10.9685H10.7956V6.94961H19.1577V4.94136H10.7956V0.924194H8.50693V4.94136H0.122622V6.94961Z" fill="#CE1124"/>
<path d="M19.1655 9.79956V7.61239H15.0123L19.1655 9.79956Z" fill="#00247D"/>
<path d="M16.8739 10.9697L16.9348 10.9669L11.5495 8.11605V10.9697H16.8739Z" fill="#00247D"/>
<path d="M12.7739 7.6261L19.1653 10.969V10.1811L14.2969 7.6261H12.7739Z" fill="#CE1124"/>
<path d="M6.51074 4.26807L0.119333 0.92517V1.7131L4.98769 4.26807H6.51074Z" fill="#CE1124"/>
<path d="M19.1654 2.07797V4.26514H15.0122L19.1654 2.07797Z" fill="#00247D"/>
<path d="M16.8741 0.907798L16.935 0.910577L11.5497 3.76147V0.907798H16.8741Z" fill="#00247D"/>
<path d="M12.8069 4.26831L19.1613 0.926947L17.6752 0.92551L11.5437 4.13242V4.26831H12.8069Z" fill="#CE1124"/>
<path d="M0.118924 9.80005V7.61298H4.27213L0.118924 9.80005Z" fill="#00247D"/>
<path d="M2.41063 10.9702L2.34976 10.9674L7.73505 8.11654V10.9702H2.41063Z" fill="#00247D"/>
<path d="M0.125355 10.9655L1.5548 10.9656L7.72952 7.73605V7.62278H6.42316L0.125355 10.9655Z" fill="#CE1124"/>
<path d="M0.118924 2.0788V4.26587H4.27213L0.118924 2.0788Z" fill="#00247D"/>
<path d="M2.41051 0.908774L2.34963 0.911554L7.73492 3.76245V0.908774H2.41051Z" fill="#00247D"/>
</g>
<path d="M2.64535 18.7545V14.7011H4.52375V18.7545C4.52375 19.5454 5.0675 20.0892 5.80898 20.0892C6.55045 20.0892 7.0942 19.5454 7.0942 18.7545V14.7011H8.97261V18.7545C8.97261 20.5341 7.6775 21.8193 5.80898 21.8193C3.94046 21.8193 2.64535 20.5341 2.64535 18.7545ZM10.5054 21.6216V14.7011H12.3838V17.3705L14.6576 14.7011H16.8326L14.3611 17.5682L17.0304 21.6216H14.8554L13.1253 19.0017L12.3838 19.842V21.6216H10.5054Z" fill="#0F1829"/>
<defs>
<clipPath id="clip0_1_2108">
<rect width="19.0466" height="10.0623" fill="white" transform="matrix(-1 0 0 -1 19.1653 10.9702)"/>
</clipPath>
</defs>
</svg>
