<svg width="22" height="19" viewBox="0 0 22 19" fill="none" xmlns="http://www.w3.org/2000/svg">
<path d="M21.0538 16.6842L12.251 1.1835C11.5662 -0.0211767 10.4465 -0.025003 9.7617 1.17967L0.95824 16.6861C0.27347 17.8908 0.833964 18.8901 2.20288 18.8901H19.8092C21.1781 18.8901 21.7386 17.8889 21.0538 16.6842ZM4.02495 16.3749L11.0063 4.089L17.9871 16.3749H4.02495ZM11.012 13.5249C10.3843 13.5249 9.9456 13.9668 9.9456 14.6167C9.9456 15.2665 10.3724 15.7085 10.9881 15.7085H11.012C11.6516 15.7085 12.0664 15.2423 12.0664 14.6167C12.0545 13.9668 11.6403 13.5249 11.012 13.5249ZM10.3366 12.6014H11.6873L11.9478 7.12651H10.0762L10.3366 12.6014Z" fill="#0F1829"/>
</svg>
