<svg width="176" height="176" viewBox="0 0 176 176" fill="none" xmlns="http://www.w3.org/2000/svg">
<g filter="url(#filter0_d_112_2)">
<rect x="136.126" y="26.3696" width="96.3964" height="96.3964" rx="11.4369" transform="rotate(90 136.126 26.3696)" fill="#EEEEEE"/>
<rect x="135.309" y="27.1865" width="94.7626" height="94.7626" rx="10.6199" transform="rotate(90 135.309 27.1865)" stroke="white" stroke-width="1.63384"/>
</g>
<g clip-path="url(#clip0_112_2)">
<path d="M121.197 75.0919H127.197C126.959 73.9623 126.516 73.0361 125.915 72.1607C125.79 71.98 125.659 71.8162 125.523 71.6467C125.472 71.5846 125.421 71.5225 125.37 71.4604C125.228 71.2966 125.086 71.1384 124.932 70.9803C124.887 70.9351 124.842 70.8956 124.796 70.8504C124.666 70.7262 124.529 70.6019 124.393 70.4833C124.342 70.4381 124.285 70.3929 124.234 70.3478C124.064 70.2066 123.882 70.0767 123.701 69.9524C123.644 69.9129 123.587 69.879 123.53 69.8395C123.354 69.7265 123.178 69.6192 122.997 69.5175C122.968 69.5006 122.94 69.4837 122.906 69.4667C122.702 69.3538 122.486 69.2578 122.27 69.1617C122.213 69.1392 122.157 69.1109 122.1 69.0883C121.879 68.998 121.657 68.9132 121.43 68.8455C121.39 68.8342 121.345 68.8229 121.305 68.8116C121.095 68.7495 120.879 68.693 120.658 68.6478C120.613 68.6365 120.567 68.6252 120.527 68.6196C120.283 68.5687 120.039 68.5348 119.79 68.5066C119.733 68.501 119.682 68.4953 119.625 68.4897C119.364 68.4671 119.108 68.4501 118.842 68.4501L108.329 67.8628L102.783 63.3051C101.04 61.8762 99.1043 60.724 97.0437 59.8882C96.7486 59.7696 96.3739 59.6566 96.0787 59.5493C93.6832 58.6909 91.3218 58.1939 88.4836 58.1939V58.1487H63.6431L52.0006 68.3485L51.8587 71.1384H56.1274V75.0919H51.677L51.3818 80.8017C51.3818 83.0326 53.6865 84.8398 56.8086 85.3933C56.8994 81.1575 60.3848 77.5881 64.6592 77.5881C68.9336 77.5881 72.5212 81.3043 72.5212 85.2578H104.809C104.809 81.3043 108.334 77.4357 112.671 77.4357C117.008 77.4357 120.533 81.3043 120.533 85.2578H127.646V78.4805H123.763L121.197 75.0919ZM88.6368 62.6669C92.8034 62.6669 96.8621 63.9263 100.075 66.5694L101.744 67.7498H82.2394V62.6669H88.6368ZM77.6982 62.6669V67.7498H65.0168C66.8901 66.0555 68.786 64.3612 70.6877 62.6669H77.6925H77.6982Z" fill="#0F1829"/>
<path d="M64.6592 78.955C61.0319 78.955 58.0801 81.8918 58.0801 85.5007C58.0801 89.1096 61.0319 92.0464 64.6592 92.0464C68.2865 92.0464 71.2382 89.1096 71.2382 85.5007C71.2382 81.8918 68.2865 78.955 64.6592 78.955ZM64.6592 88.1099C63.2116 88.1099 62.0366 86.9408 62.0366 85.5007C62.0366 84.0605 63.2116 82.8914 64.6592 82.8914C66.1067 82.8914 67.2817 84.0605 67.2817 85.5007C67.2817 86.9408 66.1067 88.1099 64.6592 88.1099Z" fill="#0F1829"/>
<path d="M112.671 78.955C109.044 78.955 106.092 81.8918 106.092 85.5007C106.092 89.1096 109.044 92.0464 112.671 92.0464C116.298 92.0464 119.25 89.1096 119.25 85.5007C119.25 81.8918 116.298 78.955 112.671 78.955ZM112.671 88.1099C111.224 88.1099 110.049 86.9408 110.049 85.5007C110.049 84.0605 111.224 82.8914 112.671 82.8914C114.119 82.8914 115.294 84.0605 115.294 85.5007C115.294 86.9408 114.119 88.1099 112.671 88.1099Z" fill="#0F1829"/>
</g>
<defs>
<filter id="filter0_d_112_2" x="0.517391" y="0.228228" width="174.821" height="174.821" filterUnits="userSpaceOnUse" color-interpolation-filters="sRGB">
<feFlood flood-opacity="0" result="BackgroundImageFix"/>
<feColorMatrix in="SourceAlpha" type="matrix" values="0 0 0 0 0 0 0 0 0 0 0 0 0 0 0 0 0 0 127 0" result="hardAlpha"/>
<feOffset dy="13.0707"/>
<feGaussianBlur stdDeviation="19.6061"/>
<feComposite in2="hardAlpha" operator="out"/>
<feColorMatrix type="matrix" values="0 0 0 0 0 0 0 0 0 0 0 0 0 0 0 0 0 0 0.15 0"/>
<feBlend mode="normal" in2="BackgroundImageFix" result="effect1_dropShadow_112_2"/>
<feBlend mode="normal" in="SourceGraphic" in2="effect1_dropShadow_112_2" result="shape"/>
</filter>
<clipPath id="clip0_112_2">
<rect width="76.2697" height="33.8976" fill="white" transform="translate(51.3818 58.1487)"/>
</clipPath>
</defs>
</svg>
