   <svg xmlns="http://www.w3.org/2000/svg" width="35" viewBox="0 0 56 49" fill="none">
                                        <g clip-path="url(#clip0_23_36765)">
                                            <path fill-rule="evenodd" clip-rule="evenodd"
                                                d="M7.143 14.5707C7.11759 14.5383 7.0984 14.5018 7.09056 14.4622C7.07222 14.9623 7.03767 15.4374 6.96852 15.8727C6.72921 20.6018 6.05365 25.3161 5.96868 30.0502C6.04365 31.1062 5.67617 32.4601 6.58254 33.2285C8.64962 34.7531 11.3753 34.941 13.8296 35.403C18.1138 35.9802 22.4075 36.5377 26.6747 37.274C31.4087 38.1615 36.1224 39.0178 40.8677 39.7993C42.7517 39.9638 45.8502 41.0637 46.8776 38.8555C46.883 38.8295 46.8976 38.8109 46.9071 38.7912C46.7611 37.948 47.2228 36.4241 47.1904 35.8592C47.8062 31.6636 48.2813 27.4494 48.5404 23.2175C48.573 22.7258 48.5118 21.4235 48.5434 20.937M7.67879 15.2403C7.54067 15.2603 7.42066 15.219 7.30821 15.1415L7.67879 15.2403ZM8.06654 8.20128C8.03518 8.14599 7.99139 8.09895 7.93516 8.06016C7.82272 7.98258 7.70162 7.94654 7.56458 7.96137C7.4543 7.97635 7.35187 8.03089 7.27592 8.11262C7.51067 6.64976 8.01843 5.36833 9.1144 4.55607C12.8544 3.86054 16.7483 4.97425 20.4941 5.35816C26.9937 6.20673 33.4762 7.11137 39.9836 7.89655C42.9131 8.49531 47.6841 8.56155 49.3396 11.4201C49.5359 11.7644 49.3018 12.1167 49.2997 12.4359C49.2911 12.4774 49.2824 12.519 49.283 12.5679C49.27 13.042 49.2536 13.4558 49.2231 13.9371C49.1893 14.434 49.2085 14.1616 49.1696 14.6574M5.87422 17.1404C6.6104 13.2678 4.72811 4.9329 9.33242 3.43109C12.4335 3.12817 15.5687 3.63969 18.6314 4.08736C23.9989 4.71122 29.3306 5.63644 34.7027 6.21249C39.0421 6.93665 46.9222 6.9184 49.8774 10.3292C50.3183 10.7081 50.5852 12.0261 50.2798 12.6182C49.7913 19.8583 49.4197 27.1282 48.4109 34.3197C48.2256 35.6737 48.0135 37.0275 47.9126 38.3881C47.9134 38.6159 47.924 38.8998 47.8283 39.1021C47.791 39.4357 47.5289 39.82 47.3567 40.0551C46.0535 41.5286 43.8384 41.2302 42.0961 41.0031C37.3978 40.253 32.697 39.4374 28.0362 38.5326C23.7869 37.7621 19.5111 37.1704 15.2298 36.6046C12.3009 36.1577 9.17761 35.8979 6.54481 34.4398C4.45994 33.3611 5.03299 30.7875 5.00091 28.8302C5.15488 24.9232 5.67808 21.0442 5.87935 17.1415L5.87422 17.1404Z"
                                                fill="#102650" />
                                            <path fill-rule="evenodd" clip-rule="evenodd"
                                                d="M9.4096 28.8269C8.42342 27.1804 11.8097 28.1072 12.5255 28.1695C14.6114 28.5223 16.707 28.8283 18.7961 29.1655C20.6828 29.4714 22.5689 29.8314 24.4564 30.1591C25.0981 30.2168 24.9901 31.2509 24.3435 31.1651C19.3971 30.32 14.3482 29.3236 9.4096 28.8269Z"
                                                fill="#102650" />
                                            <path fill-rule="evenodd" clip-rule="evenodd"
                                                d="M13.8637 26.5298C13.2032 25.2491 15.71 26.0254 16.2446 26.0824C17.804 26.3907 19.3658 26.6615 20.9262 26.9645C22.3377 27.2366 23.7416 27.5449 25.1448 27.8315C25.6259 27.8883 25.4935 28.6789 25.0116 28.6003C21.3187 27.8589 17.5643 27.0018 13.8637 26.5298Z"
                                                fill="#102650" />
                                            <path fill-rule="evenodd" clip-rule="evenodd"
                                                d="M27.7182 31.6883C27.2099 30.6289 28.7395 30.7196 29.3671 30.8448C30.0278 31.069 31.6303 30.7577 31.662 31.7125C31.4932 32.6526 29.2123 31.6145 28.4428 31.7849C28.229 31.9626 27.866 31.9304 27.7182 31.6883Z"
                                                fill="#102650" />
                                            <path fill-rule="evenodd" clip-rule="evenodd"
                                                d="M37.1512 34.6154C35.5629 33.9056 36.2158 29.9182 37.5301 30.9665C39.7019 31.2667 42.14 31.6006 43.9341 32.9438C44.5918 33.7742 44.419 35.3258 43.6441 36.0369C41.9443 36.8156 38.646 35.62 37.1523 34.6102L37.1512 34.6154ZM37.841 33.8757C39.3387 34.7888 41.2027 35.3068 42.9569 35.2708C43.3923 34.9551 43.5209 33.8223 43.0322 33.493C41.2952 32.5193 39.2677 32.2979 37.3634 31.8962C37.1132 32.6352 37.0825 33.4524 37.841 33.8757ZM36.909 31.7367C36.9572 31.7629 37.0126 31.7799 37.0701 31.7864C37.0188 31.7757 36.9623 31.764 36.909 31.7367Z"
                                                fill="#102650" />
                                            <path fill-rule="evenodd" clip-rule="evenodd"
                                                d="M34.6137 43.1959C34.4187 41.687 40.4088 43.2585 41.4162 43.2839C43.1507 43.5744 44.8817 43.9075 46.6129 44.2136C46.8821 44.2588 47.0595 44.5395 47.0044 44.8044C47.135 45.8502 40.953 44.0166 39.9623 44.0651C38.7857 43.8744 37.7118 43.7052 36.5671 43.6187C35.9546 43.4208 34.88 43.9503 34.6137 43.1959Z"
                                                fill="#102650" />
                                            <path fill-rule="evenodd" clip-rule="evenodd"
                                                d="M41.5189 46.2742C41.7953 45.3836 43.4948 46.3061 44.2089 46.2217C44.8773 46.4854 49.2499 46.252 47.9377 47.5882C46.8317 47.7536 45.6296 47.3247 44.4928 47.2778C43.79 47.0503 41.4309 47.2637 41.5138 46.2732L41.5189 46.2742Z"
                                                fill="#102650" />
                                        </g>
                                        <defs>
                                            <clipPath id="clip0_23_36765">
                                                <rect width="49" height="39" fill="white"
                                                    transform="translate(7.94531) rotate(11.7548)" />
                                            </clipPath>
                                        </defs>
                                    </svg>