 <svg xmlns="http://www.w3.org/2000/svg" width="35" viewBox="0 0 48 44"
                                            fill="none">
                                            <g clip-path="url(#clip0_23_36773)">
                                                <path
                                                    d="M47.9363 28.7899C47.9743 28.6428 47.9895 28.4608 47.9553 28.2439C47.9287 28.0813 47.8678 27.8606 47.7498 27.6012C47.6928 27.4695 47.6205 27.3301 47.5368 27.183C47.4531 27.0474 47.3694 26.9003 47.2743 26.7415C46.8977 26.1104 46.4335 25.3088 45.9237 24.3872C44.908 22.5363 43.7286 20.1859 42.6672 17.7773C41.5943 15.3727 40.609 12.9255 39.8215 10.9506C39.0378 8.97967 38.4443 7.48887 38.197 6.97773C38.0182 6.61375 37.9003 6.41239 37.809 6.30397C37.6948 5.97096 37.5617 5.61471 37.3753 5.23911C37.2155 4.92933 37.0101 4.60406 36.7209 4.32139C36.4394 4.04259 36.0628 3.82188 35.6519 3.71346C35.6024 3.52759 35.5492 3.34172 35.4845 3.15198C35.2296 2.40077 34.7997 1.63795 34.1796 1.0455C33.8752 0.747337 33.5176 0.491771 33.1334 0.302032C32.7567 0.116165 32.3154 -0.034851 31.8361 0.0077434C31.3605 0.0425934 30.942 0.278799 30.6415 0.56147C30.3372 0.848015 30.1279 1.1849 29.991 1.52178C29.7094 2.21878 29.7513 2.84608 29.8045 3.30687C29.8654 3.77154 29.9567 4.08906 30.0176 4.25557C30.1393 4.57696 30.2268 4.69313 30.3067 4.72798C30.1583 4.77057 30.01 4.81316 29.8578 4.85576C29.6828 4.18587 29.3937 3.5121 28.9409 2.91965C28.667 2.56728 28.3322 2.24976 27.9556 2.00581C27.5866 1.76573 27.1415 1.56437 26.6431 1.56437C26.1485 1.5605 25.6996 1.76573 25.3686 2.03291C25.03 2.30397 24.7903 2.63311 24.6192 2.97386C24.2806 3.67473 24.2844 4.32527 24.3034 4.80929C24.3376 5.29332 24.4137 5.6302 24.4632 5.80445C24.5811 6.1878 24.6724 6.30397 24.7561 6.33107C24.3795 6.4395 24.0028 6.55179 23.63 6.66021C23.3409 5.71926 22.8387 4.7667 22.1044 3.98064C21.8001 3.64763 21.3816 3.32623 20.8832 3.19458C20.3963 3.06679 19.8979 3.10552 19.4642 3.25266C19.0267 3.39593 18.6425 3.63988 18.3343 3.94192C18.0261 4.25169 17.8093 4.59245 17.6533 4.93708C17.3414 5.6302 17.2729 6.28073 17.2653 6.77638C17.2653 7.27589 17.3223 7.64375 17.3832 7.83349C17.5658 8.38722 17.718 8.40271 17.8131 8.36399C17.9082 8.32526 17.9272 8.25169 17.9044 7.74056C17.9044 7.57018 17.8892 7.24104 17.9272 6.79961C17.9691 6.36205 18.0642 5.80445 18.3381 5.26234C18.6006 4.72023 19.0723 4.22846 19.7191 4.03485C20.0349 3.93417 20.3773 3.92643 20.6816 4.00774C20.9822 4.09293 21.2599 4.29429 21.5148 4.57309C22.036 5.1423 22.4506 5.83156 22.7284 6.52468C22.7778 6.64472 22.8197 6.76476 22.8615 6.8848C22.9528 7.15198 23.0213 7.42304 23.0746 7.68635C23.1354 7.98838 23.1773 8.28267 23.1963 8.56147C23.242 9.20426 23.2039 9.75411 23.0632 10.1065C22.93 10.4666 22.7208 10.6447 22.6142 10.7377C22.5686 10.7764 22.5267 10.8112 22.4887 10.8383C22.443 10.8074 22.367 10.788 22.2414 10.7841C22.1729 10.7841 22.0398 10.7996 21.9256 10.7686C21.8115 10.7377 21.7354 10.6796 21.6479 10.4821C21.5642 10.2924 21.5148 9.98257 21.4767 9.65344C21.4387 9.32817 21.4159 8.96805 21.3892 8.60019C21.3816 8.46079 21.3664 8.32139 21.3474 8.17812C21.3169 7.90707 21.2713 7.63214 21.2028 7.36883C21.1229 7.03582 21.0088 6.72604 20.8566 6.4666C20.537 5.87028 20.0653 5.56825 19.8865 5.52565C19.8561 5.51791 19.8256 5.51016 19.7952 5.50629C19.7609 5.49855 19.7115 5.48306 19.6468 5.48306C19.5745 5.4908 19.5213 5.50242 19.4452 5.57212C19.3957 5.63795 19.3957 5.69216 19.3995 5.73088C19.4109 5.80832 19.4794 5.86641 19.5251 5.85866C19.5669 5.85092 19.5707 5.81994 19.5783 5.79284V5.76573C19.5783 5.76573 19.5859 5.76186 19.5936 5.75799L19.6012 5.77347V5.80058C19.6012 5.80058 19.5441 5.94772 19.5631 5.92836C19.5745 5.94772 19.5897 5.96709 19.605 5.99032C19.6658 6.06002 19.8066 6.19555 19.955 6.41239C19.799 6.52081 19.6088 6.69506 19.468 6.91578C19.2131 7.29138 19.1332 7.75605 19.2207 7.86834C19.2435 7.89545 19.2664 7.91481 19.293 7.9303C18.4903 8.1665 17.7066 8.39884 16.9609 8.61955C16.8848 8.43369 16.8049 8.24782 16.7136 8.06195C16.3256 7.25266 15.7169 6.42788 14.8533 5.92062C14.4234 5.66892 13.9364 5.4908 13.4304 5.45208C12.9245 5.40949 12.4261 5.49855 11.9848 5.6728C11.0945 6.01742 10.4174 6.67957 10.0293 7.38044C9.63365 8.07744 9.4967 8.77057 9.45865 9.30494C9.42061 9.84317 9.47387 10.2343 9.51572 10.4356C9.58039 10.7028 9.64126 10.8577 9.70213 10.9429C9.64507 10.9777 9.59561 11.0126 9.55376 11.0474C9.27224 11.2682 9.13148 11.5469 9.08202 11.7599C9.04017 11.9264 9.04778 12.0697 9.0706 12.1665C8.84995 12.2672 8.42766 12.5189 8.00538 13.2275C7.86461 13.456 7.69722 13.8122 7.53744 14.273C7.37385 14.7377 7.23308 15.303 7.06189 15.9458C6.7271 17.2314 6.30481 18.8577 5.82165 20.7086C4.88197 24.4182 3.71022 29.0378 2.53847 33.6534L2.10477 35.3843C1.964 35.969 1.81183 36.5111 1.68248 37.1307C1.62161 37.4366 1.58356 37.7735 1.61019 38.1181C1.64063 38.4743 1.73954 38.8228 1.94118 39.1365C2.1314 39.454 2.46999 39.7212 2.8276 39.8257C3.18902 39.9342 3.52761 39.9187 3.83576 39.88C5.02273 39.6941 6.01948 39.2604 6.9858 39.1559C7.46515 39.0978 7.91407 39.1287 8.32875 39.2604C8.74723 39.3959 9.14669 39.6283 9.54615 39.8722C11.182 40.8712 12.7038 41.576 13.8984 42.1181C15.1006 42.6563 15.9946 43.0242 16.4625 43.2062C17.2386 43.5005 17.6685 43.6438 17.9044 43.6902C17.9615 43.7599 18.0261 43.8296 18.1213 43.8761C18.2544 43.9497 18.4218 43.9923 18.593 44C18.8251 44.0077 19.1104 43.9535 19.4566 43.8993C19.8066 43.8374 20.2327 43.7561 20.7197 43.6515C21.6936 43.4424 22.9148 43.1365 24.292 42.7493C27.0387 41.9632 30.4475 40.9874 33.8296 39.8722C37.2155 38.7648 40.5443 37.4598 43.1351 36.2091C43.7819 35.8916 44.3868 35.5973 44.9346 35.2991C45.2123 35.1481 45.4596 35.0397 45.7411 34.8538C45.8743 34.7609 46.0189 34.6525 46.133 34.4898C46.2509 34.3311 46.3232 34.1104 46.3232 33.9206C46.3118 33.5411 46.2167 33.3475 46.1558 33.1268C46.0911 32.91 46.0227 32.7202 45.9618 32.5499C45.8362 32.2091 45.7335 31.9497 45.6574 31.7715C45.4748 31.3379 45.3493 31.0629 45.2542 30.8809C45.5319 30.7686 45.7944 30.6602 46.0303 30.5634C46.4031 30.4046 46.7227 30.2691 46.989 30.1568C47.2477 30.0484 47.4911 29.9284 47.6395 29.7967C47.864 29.6186 47.9895 29.3475 47.9971 29.1578C48.0085 29.0029 47.9743 28.879 47.9325 28.7899H47.9363ZM30.6872 1.81607C30.904 1.33204 31.3719 0.851887 31.9084 0.828653C32.1747 0.809292 32.479 0.906098 32.7834 1.06099C33.0839 1.21588 33.3693 1.4211 33.6203 1.66892C34.1834 2.20716 34.5524 2.90416 34.7883 3.62439C34.8758 3.88383 34.9443 4.14714 34.9975 4.40271C35.066 4.73959 35.1117 5.06486 35.1383 5.36689C35.1954 5.95547 35.1231 6.43562 34.9671 6.7454C34.8111 7.05905 34.6057 7.22556 34.503 7.30687C34.4535 7.34172 34.4117 7.3727 34.3736 7.39981C34.3242 7.3727 34.2633 7.36496 34.191 7.33785C34.1682 7.32236 34.0921 7.303 34.054 7.25266C33.997 7.19458 33.9285 7.06679 33.8676 6.83059C33.7269 6.36205 33.6584 5.73475 33.5785 5.06873C33.5633 4.92933 33.5404 4.78993 33.5176 4.64666C33.4758 4.38335 33.4187 4.11617 33.3426 3.86447C33.2703 3.60891 33.179 3.36883 33.0687 3.15973C32.81 2.62536 32.441 2.30784 32.2888 2.24588C32.0605 2.14908 31.973 2.21491 31.9084 2.30397C31.8551 2.38141 31.8399 2.47047 31.935 2.65247C31.954 2.68732 31.9883 2.73766 32.0377 2.80736C31.8817 2.92352 31.6801 3.14424 31.5508 3.42304C31.3529 3.82962 31.3453 4.30203 31.4518 4.39497C31.4518 4.39497 31.4518 4.39497 31.4594 4.39497C31.1893 4.47241 30.9154 4.54985 30.6377 4.6273C30.592 4.63891 30.5464 4.6544 30.5007 4.66602C30.5388 4.59632 30.5578 4.44918 30.535 4.13165C30.5274 3.96515 30.4817 3.64763 30.4627 3.2333C30.4475 2.82672 30.4627 2.29622 30.6872 1.8122V1.81607ZM32.5703 4.07744C32.4182 4.12391 32.266 4.1665 32.1138 4.2091C32.1709 4.08132 32.2355 3.91868 32.3154 3.76379C32.3459 3.69409 32.3839 3.62827 32.4182 3.56244C32.479 3.71733 32.5285 3.89158 32.5741 4.07744H32.5703ZM24.9654 4.78219C24.9806 4.36012 25.0262 3.80252 25.2963 3.31849C25.555 2.83446 26.0838 2.36205 26.6469 2.38916C26.9208 2.39303 27.2328 2.52468 27.5257 2.72217C27.8148 2.91578 28.0773 3.1636 28.298 3.45402C28.6594 3.93417 28.9105 4.49952 29.0741 5.08035C29.1502 5.3514 29.2111 5.62633 29.2491 5.89739C29.3366 6.46273 29.3518 7.01258 29.3138 7.48499C29.2567 8.07744 29.0589 8.53049 28.8078 8.80929C28.5605 9.09584 28.3094 9.22362 28.1839 9.28945C28.1154 9.3243 28.0545 9.3514 28.0013 9.37076C27.9822 9.35528 27.9594 9.33591 27.9404 9.31655C27.8719 9.25072 27.7197 9.1849 27.6969 8.66989C27.6589 8.15102 27.6665 7.48887 27.6322 6.79187C27.6246 6.65247 27.617 6.51694 27.6018 6.37754C27.5752 6.091 27.5333 5.80832 27.4762 5.54501C27.4192 5.2817 27.3469 5.03388 27.2556 4.81704C27.0387 4.25944 26.7268 3.89932 26.5898 3.81026C26.3806 3.67861 26.2855 3.7212 26.2018 3.80252C26.1371 3.86834 26.1067 3.94966 26.1751 4.15102C26.2132 4.25944 26.3425 4.4879 26.4643 4.82865C26.3425 4.9061 26.2018 5.02614 26.0914 5.18103C25.886 5.45595 25.8099 5.80445 25.8936 5.90126C25.9203 5.93224 25.9507 5.95547 25.9887 5.97483C25.7833 6.03291 25.5741 6.09487 25.3686 6.15295C25.2164 6.19555 25.0681 6.24201 24.9159 6.28461C24.9615 6.22265 24.992 6.07164 24.9882 5.71539C24.9882 5.54114 24.9615 5.212 24.9654 4.78219ZM26.7002 5.76186V5.7696H26.6925C26.6925 5.7696 26.6925 5.76573 26.7002 5.76186ZM20.1756 7.36108C20.2213 7.29526 20.2669 7.22943 20.3164 7.16747C20.3582 7.303 20.3963 7.44627 20.4229 7.59729C20.2631 7.64375 20.0995 7.69409 19.9398 7.74056C20.0082 7.62827 20.0881 7.49274 20.1794 7.36108H20.1756ZM10.0483 10.3775C10.0597 10.1917 10.0483 9.83543 10.1244 9.36689C10.1929 8.90223 10.3413 8.31752 10.6875 7.76379C11.0223 7.21394 11.5815 6.69506 12.2853 6.4395C12.9815 6.17231 13.7766 6.23814 14.45 6.65634C15.131 7.06292 15.6446 7.72894 16.0022 8.4453C16.0669 8.58083 16.1316 8.71636 16.1886 8.85189C16.2951 9.09584 16.3903 9.33979 16.4701 9.57986C16.5957 9.92836 16.687 10.2652 16.7441 10.575C16.8582 11.2256 16.7631 11.7638 16.5424 12.1007C16.3218 12.4492 16.0555 12.6118 15.9261 12.6815C15.831 12.7357 15.7511 12.7706 15.6826 12.7977C15.656 12.7744 15.6256 12.7512 15.5875 12.7202C15.5495 12.6854 15.4582 12.6234 15.3821 12.4918C15.3136 12.3795 15.2642 12.1665 15.2642 11.8683C15.2642 11.3572 15.2718 10.668 15.093 9.96708C15.0549 9.80445 15.0017 9.64182 14.9408 9.47919C14.9142 9.40174 14.8837 9.32817 14.8495 9.2546C14.4957 8.4879 13.8033 7.87222 13.0842 7.7212C12.7038 7.62827 12.3234 7.67086 12.0609 7.78315C11.7907 7.89158 11.6234 8.05808 11.5625 8.15876C11.3913 8.47628 11.5016 8.57696 11.5929 8.61568C11.6842 8.65828 11.7603 8.6273 11.9391 8.54211C12.0304 8.49951 12.2967 8.35237 12.6848 8.41433C12.5554 8.56534 12.4299 8.75895 12.3538 8.98741C12.2092 9.37851 12.2397 9.80445 12.3234 10.0213C12.0989 10.0871 11.8859 10.153 11.6842 10.2149C11.1897 10.3737 10.7598 10.5092 10.4059 10.6254C10.269 10.6718 10.1434 10.7183 10.0255 10.7725C10.0369 10.6757 10.0407 10.5518 10.0445 10.3775H10.0483ZM14.0391 9.50242C13.6777 9.61084 13.3315 9.71539 13.0043 9.81607C13.0348 9.65731 13.069 9.44821 13.1489 9.25072C13.2174 9.04163 13.3201 8.86738 13.3924 8.72798C13.6435 8.91384 13.8756 9.18103 14.0391 9.50242ZM9.87714 11.4811C10.0217 11.3921 10.2576 11.2953 10.6076 11.2023C10.9652 11.1055 11.3989 10.9894 11.9011 10.8577C12.5859 10.668 13.3924 10.4434 14.294 10.1917C14.4462 10.7609 14.4728 11.3727 14.5109 11.9226C14.5413 12.2788 14.6364 12.6583 14.8647 12.9138C15.0777 13.1578 15.3212 13.2352 15.4506 13.243C15.5381 13.2469 15.6065 13.2352 15.6598 13.212C15.7701 13.2352 15.9223 13.2352 16.1163 13.1888C16.3332 13.1384 16.7479 12.9448 17.0941 12.4724C17.2615 12.2439 17.4136 11.9187 17.4745 11.5702C17.5392 11.2178 17.543 10.8306 17.4859 10.4434C17.4365 10.0833 17.3452 9.72313 17.2272 9.36302C18.2734 9.06486 19.3881 8.74346 20.5408 8.41433C20.5523 8.50339 20.5561 8.59245 20.5637 8.68151C20.5903 9.04163 20.6169 9.41336 20.674 9.78122C20.7349 10.1413 20.7957 10.4898 20.9783 10.8383C21.0697 11.0087 21.2028 11.1713 21.3702 11.2836C21.5376 11.3959 21.724 11.4385 21.8724 11.4424C22.1691 11.4424 22.3289 11.3495 22.4088 11.2991C22.5191 11.3107 22.6789 11.2953 22.8882 11.2023C23.0784 11.121 23.4436 10.8732 23.6757 10.3659C23.9115 9.86641 23.9724 9.212 23.9496 8.50726C23.942 8.17812 23.9039 7.82962 23.8354 7.46951C24.4289 7.29913 25.0224 7.12875 25.6197 6.95837C26.0116 6.84221 26.3996 6.72991 26.7915 6.61375C26.7915 6.69119 26.7991 6.77251 26.8029 6.84995C26.8371 7.5121 26.8561 8.20523 26.9512 8.77444C26.9931 9.06486 27.092 9.394 27.305 9.60697C27.5181 9.82381 27.7464 9.86254 27.8643 9.85479C27.9214 9.85092 27.9708 9.8393 28.0089 9.81994C28.0964 9.83156 28.2105 9.82769 28.3475 9.80445C28.5453 9.7696 28.9219 9.63407 29.2947 9.26621C29.6752 8.9061 29.9757 8.27493 30.067 7.56631C30.1431 6.96999 30.1279 6.33495 30.029 5.66892C30.3143 5.58761 30.5997 5.50242 30.8812 5.4211C31.5051 5.23524 32.1176 5.05324 32.7149 4.87899C32.7301 4.98354 32.7453 5.08809 32.7567 5.19264C32.8366 5.8393 32.9355 6.54017 33.1562 7.09003C33.2513 7.35721 33.4263 7.67086 33.7002 7.82188C33.9932 7.98064 34.229 7.91481 34.3356 7.85673C34.4383 7.86447 34.579 7.85285 34.7579 7.78315C34.9405 7.71345 35.2829 7.5121 35.5492 7.06292C35.8231 6.61762 35.9296 5.96709 35.8878 5.30106C35.8763 5.0726 35.8535 4.83253 35.8193 4.5847C36.234 4.7938 36.5345 5.17715 36.7552 5.59922C37.0367 6.13359 37.2193 6.69893 37.4057 7.19071C37.7709 8.17812 38.0486 8.90223 38.2084 9.27396C38.5508 10.0833 38.7296 10.3892 38.8438 10.4821C38.9351 10.7299 39.0302 10.9855 39.1291 11.2527C39.1595 11.3417 39.1976 11.4347 39.2318 11.5237C39.072 11.5624 38.8704 11.6166 38.5965 11.6941C37.9764 11.8761 36.2378 12.3988 33.879 12.9487C32.6997 13.2314 31.3719 13.5373 29.9757 13.9245C28.5909 14.3427 27.1529 14.819 25.7072 15.2836C19.9854 17.2314 14.2826 19.2333 13.088 19.7522C12.5744 19.9806 12.3386 20.12 12.2359 20.2168C11.9315 19.3379 11.65 18.4898 11.4027 17.7038C10.6076 15.2178 10.1092 13.3088 9.88855 12.6467C9.74018 12.1859 9.63365 11.9226 9.55376 11.7715C9.62605 11.6747 9.72496 11.5702 9.87714 11.4811ZM2.70966 38.7919C2.67923 38.7531 2.64499 38.7105 2.61836 38.6641C2.3939 38.2924 2.38629 37.7967 2.50042 37.2585C2.75912 36.1549 3.07108 34.9739 3.35261 33.8277C4.49773 29.2043 5.64665 24.5808 6.56351 20.8674C7.01243 19.0087 7.40428 17.3746 7.71624 16.0813C7.86842 15.4308 7.99016 14.8732 8.12331 14.4395C8.25266 14.0019 8.38581 13.6767 8.48853 13.4637C8.73201 12.9564 8.96408 12.6931 9.12767 12.5227C9.12767 12.6854 9.13528 12.879 9.16952 13.1113C9.22278 13.5024 9.4168 14.1878 9.66789 15.1094C9.9304 16.0348 10.2576 17.2043 10.6304 18.5324C11.3989 21.1888 12.3538 24.4879 13.3087 27.7909C13.537 28.6157 13.7538 29.4327 13.925 30.2614C14.081 31.0513 14.2408 31.8374 14.3929 32.6002C14.3093 32.6079 14.1875 32.6312 14.0201 32.6776C13.4342 32.8441 10.8663 33.9826 8.36299 35.2604C7.11134 35.8954 5.87492 36.5615 4.89338 37.1191C3.90424 37.6651 3.1776 38.1878 2.96456 38.424C2.80858 38.5944 2.73629 38.7106 2.70966 38.7919ZM16.6566 42.6989C16.2076 42.4666 15.3288 42.06 14.1533 41.4947C12.9777 40.9177 11.494 40.1975 9.91518 39.1985C9.50811 38.9468 9.0668 38.6757 8.53799 38.5014C8.00538 38.3272 7.4233 38.2962 6.86786 38.362C5.76078 38.486 4.72599 38.9274 3.70641 39.0668C3.46293 39.0939 3.23086 39.0862 3.04825 39.0242C3.02543 39.0165 3.00641 39.0048 2.98358 38.9971C3.05586 38.97 3.15478 38.9274 3.28793 38.8577C3.54282 38.7105 4.25044 38.2924 5.25861 37.7928C6.25916 37.2817 7.5032 36.6467 8.74723 36.0077C11.2391 34.7377 13.75 33.514 14.2484 33.1655C14.3473 33.0997 14.4196 33.0416 14.4728 32.9913C14.7734 34.4937 15.1424 35.9264 15.5152 37.1772C16.3066 39.8412 17.0446 41.7967 17.3261 42.4782C17.4783 42.8306 17.5924 43.0745 17.6837 43.2449C17.4555 43.1094 17.1283 42.9351 16.6566 42.6989ZM45.3987 32.7667C45.4482 32.9371 45.5015 33.1229 45.5585 33.3282C45.608 33.5257 45.6803 33.7773 45.665 33.9129C45.6536 34.029 45.5661 34.1491 45.3531 34.2769C45.1514 34.3969 44.8623 34.5286 44.596 34.6641C44.0482 34.9429 43.4433 35.2217 42.8003 35.5237C40.221 36.7125 36.9187 37.9748 33.5557 39.0784C30.1926 40.182 26.7877 41.1849 24.0637 42.0174C22.7017 42.424 21.5034 42.757 20.5523 43.001C20.0767 43.1171 19.662 43.2178 19.3196 43.2991C18.9734 43.3804 18.7185 43.4501 18.5778 43.454C18.4675 43.4656 18.3876 43.4579 18.3191 43.4385C18.262 43.423 18.224 43.3959 18.1859 43.3572C18.1098 43.2759 18.087 43.1985 18.0756 43.1481C18.0604 43.0242 18.0794 42.97 18.0299 42.9313C18.0185 42.9235 18.0033 42.9158 17.9843 42.9158C17.9463 42.7493 17.8968 42.544 17.8245 42.2846C17.6381 41.5682 16.9685 39.5895 16.2343 36.9409C15.8652 35.6089 15.5038 34.1258 15.2033 32.515C15.0473 31.7096 14.8875 30.8848 14.7239 30.0523C14.5527 29.212 14.3283 28.3679 14.1 27.5353C14.0391 27.3262 13.9783 27.121 13.9174 26.9119C15.1576 29.8122 16.5158 32.6544 17.9462 34.7803C18.6805 35.8838 19.4185 36.7899 20.0501 37.4598C20.674 38.153 21.2941 38.5595 21.6517 38.6912C22.1805 38.8964 22.5458 38.8538 22.7246 38.7996C22.8425 38.7609 22.8958 38.7222 22.9186 38.6873C23.0746 38.6641 23.2838 38.6215 23.5882 38.544C24.7903 38.2459 30.2801 36.4763 35.7013 34.5131C38.4139 33.5373 41.1112 32.5228 43.2683 31.6747C43.877 31.4347 44.4362 31.2139 44.946 31.0087C44.9764 31.2178 45.0411 31.5198 45.1667 31.969C45.2199 32.1549 45.2998 32.4221 45.3987 32.7667ZM47.4988 29.2275C47.4569 29.274 47.3998 29.3204 47.32 29.363C47.1297 29.4869 46.5286 29.6573 45.783 29.94C45.0259 30.2149 44.0748 30.5634 42.9867 30.9622C40.8144 31.7522 38.1095 32.7396 35.4046 33.727C29.9909 35.6825 24.5469 37.545 23.4056 38.0329C22.9034 38.2536 22.6789 38.3853 22.5838 38.4782C22.4164 38.4434 22.1805 38.3775 21.8648 38.1917C21.5909 38.0407 21.0925 37.6728 20.5256 36.9913C19.9436 36.3175 19.255 35.423 18.5626 34.3349C17.1664 32.1704 15.8006 29.2236 14.5337 26.2381C13.7044 24.2788 12.9549 22.2885 12.3119 20.4453C12.4527 20.453 12.719 20.4066 13.2745 20.2633C14.5337 19.9303 20.2707 18.0213 25.9925 16.0774C27.423 15.6205 28.8496 15.1365 30.2154 14.7144C31.5812 14.3195 32.9051 13.9981 34.0807 13.6883C36.4356 13.092 38.197 12.4802 38.7905 12.1975C39.0454 12.0813 39.228 11.9845 39.3688 11.8993C40.0764 13.7696 40.9514 15.9729 41.9177 18.1452C42.9906 20.5731 44.2042 22.9429 45.277 24.7861C45.8172 25.7076 46.3118 26.5014 46.7265 27.1171C46.9319 27.4347 47.1107 27.6786 47.2172 27.8877C47.3352 28.0968 47.3998 28.2672 47.4379 28.3795C47.5482 28.7125 47.5102 28.8829 47.4873 29.0029C47.4607 29.1191 47.4607 29.181 47.4988 29.2275Z"
                                                    fill="#102650" />
                                                <path
                                                    d="M17.6826 43.245C17.4543 43.1094 17.1271 42.9352 16.6554 42.699C16.2065 42.4666 15.3277 42.0601 14.1521 41.4947C12.9766 40.9178 11.4928 40.1975 9.91402 39.1985C9.50695 38.9468 9.06564 38.6757 8.53683 38.5015C8.00422 38.3272 7.42215 38.2963 6.8667 38.3621C5.75963 38.486 4.72483 38.9274 3.70526 39.0668C3.46178 39.0939 3.22971 39.0862 3.0471 39.0242C3.02427 39.0165 3.00525 39.0049 2.98242 38.9971C3.05471 38.97 3.15362 38.9274 3.28677 38.8577C3.54167 38.7106 4.24928 38.2924 5.25745 37.7929C6.258 37.2817 7.50204 36.6467 8.74607 36.0078C11.238 34.7377 13.7488 33.5141 14.2472 33.1656C14.3461 33.0998 14.4184 33.0417 14.4717 32.9913C14.7722 34.4938 15.1413 35.9265 15.5141 37.1772C16.3054 39.8413 17.0435 41.7968 17.325 42.4783C17.4772 42.8306 17.5913 43.0746 17.6826 43.245Z"
                                                    fill="#102650" />
                                                <path
                                                    d="M42.8379 26.4318C42.739 26.1608 42.3623 25.4483 41.8792 24.5151C41.6395 24.0466 41.3428 23.5315 41.0764 22.9739C40.8063 22.4164 40.5362 21.82 40.2699 21.2198C39.2275 18.8036 38.1623 16.3796 37.8427 15.9033C37.6068 15.5548 37.5003 15.5432 37.3976 15.5896C37.3139 15.6284 37.253 15.6981 37.3596 16.1279C37.4242 16.3873 37.6677 17.0456 38.0101 17.9207C37.8846 17.9207 37.6867 17.9517 37.3558 18.0253C36.9981 18.1066 36.146 18.366 35.0008 18.7377C34.59 17.7193 34.259 16.9565 34.1068 16.701C34.0231 16.5654 33.9584 16.4764 33.9014 16.4183C35.2786 15.9536 36.3324 15.6748 36.6938 15.5625C36.9791 15.489 37.1047 15.5083 37.1731 15.5199C37.2492 15.5354 37.3063 15.5664 37.3596 15.547C37.3938 15.5354 37.4585 15.4928 37.39 15.3302C37.3177 15.1637 37.0248 14.9972 36.6101 15.0282C36.1003 15.0708 34.784 15.3457 33.0796 15.8878C31.3791 16.4338 29.298 17.1501 27.2094 17.8704C26.6882 18.0524 26.167 18.2344 25.6496 18.4163C25.1399 18.61 24.6339 18.8036 24.1431 18.9894C23.1616 19.3689 22.2333 19.729 21.4039 20.0504C19.749 20.701 18.505 21.2121 18.0827 21.4289C17.4626 21.7503 17.4131 21.8704 17.455 21.9749C17.4626 21.9943 17.474 22.0098 17.493 22.0253C17.4207 22.1066 17.3408 22.246 17.3142 22.4551C17.2762 22.6603 17.337 23.0204 17.4322 23.4347C17.5311 23.8607 17.6756 24.3912 17.8735 24.9875C18.2653 26.1763 18.893 27.5974 19.5626 28.9798C20.2246 30.3621 20.9398 31.7445 21.6588 32.7784C22.3703 33.82 23.0627 34.4938 23.3366 34.6874C23.7436 34.9739 23.873 34.9585 23.9491 34.8733C23.9681 34.85 23.9795 34.8229 23.9795 34.7842C24.0974 34.7842 24.2686 34.7648 24.5235 34.7223C24.9839 34.6409 26.266 34.3157 27.9247 33.7658C29.5834 33.2198 31.6111 32.4376 33.6122 31.6051C35.6133 30.7726 37.5954 29.9091 39.1857 29.2082C39.9808 28.8558 40.677 28.5461 41.2248 28.2905C41.7688 28.0349 42.1759 27.8491 42.389 27.7058C42.6971 27.5006 42.8493 27.3147 42.9102 27.1908C42.971 27.0669 42.9482 27.0049 42.9102 26.9662C42.971 26.912 42.9862 26.792 42.8493 26.4241L42.8379 26.4318ZM40.3574 23.3573C40.4868 23.6206 40.6275 23.8684 40.7607 24.1046C40.6656 24.124 40.559 24.1472 40.4297 24.1821C40.0607 24.275 39.1704 24.5809 37.9835 25.0262C37.5726 24.186 37.0971 23.2373 36.6101 22.2886C37.7134 21.8742 38.5313 21.5761 38.8623 21.4367C39.0868 21.336 39.2427 21.2586 39.3493 21.1889C39.4063 21.3166 39.4596 21.4483 39.5166 21.5761C39.783 22.184 40.0683 22.7881 40.3574 23.3573ZM27.8372 32.4376C27.7573 32.306 27.5975 32.0659 27.3959 31.7213C27.2094 31.3999 26.9888 30.9817 26.7415 30.4977C27.8219 30.0833 29.0279 29.5954 30.2682 29.0843C30.9073 30.1259 31.4437 30.8849 31.6644 31.1211C31.7861 31.2489 31.8774 31.3302 31.9497 31.3805C30.5725 31.942 29.2334 32.4686 28.0578 32.9023C28.0502 32.821 27.9855 32.6893 27.8372 32.4415V32.4376ZM26.3763 29.8007C25.935 28.9488 25.4328 27.9807 24.9382 26.9933C25.992 26.5829 27.1524 26.1104 28.3431 25.6187C28.8225 26.5867 29.3399 27.5315 29.8269 28.3602C28.6057 28.8752 27.4263 29.3709 26.3725 29.8007H26.3763ZM34.5443 19.6826C34.6775 20.0311 34.8182 20.3989 34.9628 20.7823C35.1302 21.1463 35.309 21.5219 35.4916 21.8975C35.4117 21.9246 35.3394 21.9517 35.2595 21.9788C34.4834 22.2498 33.6274 22.5712 32.7296 22.9236C32.3606 22.1608 32.0144 21.4096 31.7062 20.7281C32.7372 20.3525 33.6997 19.9962 34.5481 19.6864L34.5443 19.6826ZM31.9535 23.2256C31.147 23.547 30.3214 23.8839 29.4959 24.2285C29.2448 24.3331 28.9937 24.4376 28.7426 24.5461C28.3508 23.7406 27.9893 22.943 27.6698 22.2227C27.9703 22.1104 28.2709 21.9981 28.5714 21.8897C29.3779 21.5877 30.1883 21.2895 30.972 21.003C31.2611 21.6961 31.5959 22.4589 31.9611 23.2334L31.9535 23.2256ZM27.9741 24.8636C26.7757 25.3631 25.6192 25.8471 24.5806 26.2847C24.1545 25.4328 23.7436 24.5925 23.3746 23.8336C24.4513 23.427 25.6687 22.9662 26.9317 22.4938C27.2323 23.2334 27.5823 24.0427 27.9741 24.8636ZM29.1116 25.2973C29.3475 25.2005 29.5872 25.0998 29.8231 24.9991C30.6638 24.6506 31.5008 24.3021 32.3111 23.973C32.3263 24.0001 32.3378 24.0311 32.353 24.0582C32.8057 24.9875 33.2889 25.8975 33.7454 26.7106C32.9845 27.0282 32.2008 27.3573 31.4171 27.6864C31.1318 27.8065 30.8426 27.9304 30.5573 28.0504C30.097 27.214 29.5872 26.2692 29.1078 25.2973H29.1116ZM33.091 23.6671V23.6593C33.9546 23.307 34.784 22.9778 35.5296 22.6951C35.6324 22.6564 35.7275 22.6216 35.8226 22.5829L35.8492 22.6409C36.321 23.5664 36.8003 24.4919 37.234 25.305C37.1807 25.3244 37.1313 25.3437 37.0742 25.367C36.2829 25.6729 35.4041 26.0253 34.4796 26.4047C34.0383 25.5645 33.5514 24.6235 33.0872 23.6671H33.091ZM37.5269 18.5325C37.8389 18.3815 38.0139 18.2769 38.109 18.1918C38.4172 18.9701 38.7938 19.8878 39.1971 20.8365C39.0753 20.8481 38.9117 20.8713 38.6873 20.9178C38.3221 20.9875 37.4471 21.2392 36.2791 21.6264C36.0813 21.2198 35.8835 20.8171 35.6932 20.4299C35.5449 20.0775 35.4041 19.7368 35.2709 19.4115C36.3818 19.0011 37.196 18.6874 37.5231 18.5325H37.5269ZM33.3155 16.6158C33.3992 16.5887 33.4753 16.5616 33.5552 16.5345C33.5552 16.6158 33.5666 16.7319 33.6008 16.9062C33.6617 17.1927 33.9166 17.9633 34.2704 18.9739C33.3992 19.2644 32.41 19.6012 31.3562 19.973C30.8959 18.9507 30.5497 18.1801 30.3937 17.9168C30.3366 17.8239 30.2872 17.7503 30.2415 17.6961C31.3448 17.3089 32.391 16.941 33.3117 16.6158H33.3155ZM27.4834 18.668C28.2823 18.3892 29.0774 18.1066 29.8535 17.8355C29.8611 17.9091 29.8763 18.0059 29.9068 18.1298C29.9714 18.4241 30.2453 19.2102 30.6524 20.2285C29.8725 20.5073 29.0698 20.7978 28.2671 21.0998C27.9551 21.216 27.6393 21.3321 27.3274 21.4522C26.8861 20.4415 26.5589 19.6709 26.4143 19.4076C26.3344 19.2682 26.2698 19.1753 26.2127 19.1172C26.635 18.9701 27.0611 18.8229 27.4872 18.6758L27.4834 18.668ZM24.4208 19.7678C24.8926 19.5935 25.3757 19.4115 25.8665 19.2295C25.8665 19.3147 25.8817 19.4309 25.9159 19.5974C25.973 19.8955 26.2317 20.6855 26.6236 21.7116C25.3415 22.1995 24.1089 22.6874 23.0322 23.125C22.4958 22.0214 22.0849 21.1811 21.9061 20.9062C21.8567 20.8326 21.8186 20.7784 21.7768 20.7281C22.5833 20.4338 23.4773 20.1085 24.4208 19.7639V19.7678ZM18.0561 23.2527C17.9229 22.8384 17.8506 22.5906 17.8354 22.4667C17.8012 22.2847 17.8088 22.2072 17.8012 22.1337C17.8012 22.1027 17.7936 22.0717 17.786 22.0485C17.9039 22.0291 18.0561 21.9981 18.2767 21.9401C18.7066 21.8239 19.8517 21.4289 21.3659 20.8868C21.3773 20.9565 21.3963 21.0378 21.423 21.1424C21.5067 21.456 21.8414 22.3118 22.3246 23.4193C20.8561 24.0233 19.7642 24.5073 19.38 24.7203C18.8664 25.0069 18.7599 25.1346 18.7675 25.2315C18.699 25.0572 18.6305 24.8868 18.5697 24.7203C18.3566 24.155 18.1854 23.6516 18.0599 23.2527H18.0561ZM18.8017 25.3128C18.855 25.3709 19.011 25.3863 19.5892 25.216C20.0115 25.0921 21.1376 24.6739 22.6328 24.1124C22.979 24.8868 23.3822 25.7426 23.8083 26.6061C22.1762 27.276 20.9398 27.7678 20.5137 27.9691C20.3273 28.062 20.1941 28.1356 20.099 28.1976C19.6159 27.1908 19.1632 26.1995 18.8055 25.3128H18.8017ZM20.2931 28.6003L20.2778 28.5654C20.3882 28.5499 20.5251 28.519 20.7039 28.4764C21.1681 28.3679 22.4425 27.942 24.1013 27.3186C24.1203 27.3108 24.1393 27.3031 24.1583 27.2953C24.6567 28.2828 25.1741 29.2547 25.6458 30.0988C24.1051 30.7261 22.9409 31.1869 22.53 31.3805C22.1534 31.5664 21.9898 31.6787 21.9251 31.7678C21.3887 30.8423 20.8371 29.731 20.2931 28.6003ZM24.36 34.2072C24.0822 34.3195 23.9186 34.4047 23.8197 34.4744C23.7855 34.4241 23.7474 34.366 23.6942 34.3002C23.5002 34.0407 22.9067 33.3631 22.2713 32.3447C22.1991 32.2324 22.1306 32.1163 22.0583 31.9962C22.1724 31.9962 22.3703 31.973 22.7165 31.8878C23.1692 31.7832 24.4094 31.3728 26.0263 30.7687L26.0339 30.7842C26.3268 31.2953 26.6007 31.7523 26.848 32.1008C27.0915 32.4493 27.3084 32.6855 27.4339 32.7939C27.5671 32.9023 27.666 32.972 27.7459 33.0107C27.7154 33.0224 27.6812 33.034 27.6546 33.0456C26.0339 33.638 24.7898 34.0291 24.36 34.2072ZM33.2698 30.8345C32.9312 30.9778 32.5888 31.1172 32.2503 31.2566C32.2426 31.1676 32.2008 31.032 32.0981 30.8152C31.9649 30.5325 31.5312 29.7852 30.9682 28.79C31.2269 28.6816 31.4894 28.5693 31.7519 28.4609C32.5622 28.1163 33.3764 27.7716 34.1601 27.4386C34.803 28.5383 35.3356 29.3554 35.5563 29.6071C35.6324 29.6922 35.6932 29.7581 35.7503 29.8045C34.94 30.1414 34.1068 30.486 33.2698 30.8345ZM42.1265 27.2334C41.7232 27.3805 40.4677 27.8529 38.8699 28.5112C38.0405 28.8558 37.1085 29.2431 36.1269 29.6497C36.1079 29.5683 36.0737 29.4599 36.0128 29.3128C35.8873 29.0146 35.4459 28.2053 34.8753 27.1366C35.7693 26.7571 36.6177 26.397 37.3748 26.0756C37.4509 26.0446 37.5231 26.0136 37.5992 25.9827C38.1471 27.0011 38.5846 27.7678 38.771 28.0117C39.0411 28.3602 39.159 28.3873 39.2579 28.3331C39.3378 28.2905 39.3797 28.1898 39.2389 27.7523C39.1438 27.4657 38.79 26.6951 38.303 25.6884C39.4444 25.2082 40.2889 24.852 40.6237 24.6893C40.7721 24.6119 40.89 24.5461 40.9813 24.4919C41.065 24.6313 41.1449 24.7707 41.221 24.9023C41.7574 25.8278 42.1949 26.4938 42.3775 26.7145C42.5145 26.8694 42.6096 26.9546 42.6857 26.9933C42.5792 27.0398 42.4232 27.125 42.1265 27.2373V27.2334Z"
                                                    fill="#102650" />
                                                <path
                                                    d="M37.8681 3.60505C38.2676 4.27882 38.4882 5.0339 38.6176 5.18492C38.7203 5.29334 38.8154 5.30108 38.9257 5.28172C39.017 5.26623 39.0931 5.23138 39.135 5.07262C39.1997 4.87127 39.0399 3.94968 38.5681 3.16362C38.1154 2.36207 37.3926 1.77737 37.1795 1.75026C37.0197 1.72703 36.9551 1.78898 36.8866 1.88192C36.8295 1.95549 36.7915 2.03293 36.8485 2.17233C36.9284 2.35045 37.4763 2.91967 37.8605 3.60505H37.8681Z"
                                                    fill="#102650" />
                                                <path
                                                    d="M39.6228 3.10166C39.7331 3.39982 39.87 3.69024 39.9575 3.89159C40.0489 4.09682 40.0983 4.23622 40.1516 4.28656C40.2353 4.36013 40.3266 4.38336 40.4407 4.38336C40.532 4.38336 40.6195 4.37175 40.6842 4.24396C40.726 4.16265 40.7375 3.92257 40.6728 3.64377C40.6081 3.3611 40.5016 3.06681 40.3874 2.77252C40.2695 2.47436 40.1592 2.19943 40.0184 1.93999C39.8815 1.68056 39.676 1.49856 39.5733 1.4792C39.4249 1.4521 39.3603 1.52567 39.2918 1.6186C39.2347 1.69217 39.2005 1.76962 39.2081 1.87417C39.2119 1.94387 39.269 2.06391 39.3374 2.27688C39.4021 2.48985 39.5048 2.80737 39.619 3.09779L39.6228 3.10166Z"
                                                    fill="#102650" />
                                                <path
                                                    d="M1.58272 30.2963C1.49902 30.2653 1.41152 30.2537 1.26696 30.4395C1.07674 30.6796 0.563145 31.9768 0.289229 33.3398C-0.00370954 34.7029 -0.0531666 36.1007 0.0419432 36.3989C0.110422 36.6196 0.201728 36.6622 0.315859 36.6661C0.407165 36.6661 0.490861 36.639 0.574558 36.4221C0.677276 36.1356 0.821843 34.8074 1.10337 33.5025C1.36968 32.1975 1.76533 30.9274 1.76914 30.6215C1.76914 30.397 1.68924 30.335 1.58272 30.2963Z"
                                                    fill="#102650" />
                                                <path
                                                    d="M1.56801 28.91C1.65931 28.9216 1.74301 28.9216 1.8229 28.8596C1.92562 28.7783 2.05117 28.3601 2.1653 27.9458C2.27562 27.5276 2.37454 27.1094 2.30606 26.9855C2.2528 26.8925 2.1691 26.8538 2.06258 26.8151C1.97508 26.7841 1.89519 26.7609 1.80388 26.8112C1.68214 26.8732 1.48051 27.2953 1.36257 27.7483C1.24083 28.2014 1.20659 28.6699 1.2979 28.7822C1.36638 28.8674 1.45388 28.8906 1.56801 28.9061V28.91Z"
                                                    fill="#102650" />
                                            </g>
                                            <defs>
                                                <clipPath id="clip0_23_36773">
                                                    <rect width="48" height="44" fill="white" />
                                                </clipPath>
                                            </defs>
                                        </svg>