  <svg xmlns="http://www.w3.org/2000/svg" width="35" viewBox="0 0 59 46"
                                            fill="none">
                                            <g clip-path="url(#clip0_23_36750)">
                                                <path
                                                    d="M46.4554 9.51755C46.0542 9.2797 45.6559 9.21345 45.3031 9.19068C44.9502 9.16792 44.6374 9.19502 44.3497 9.23773C43.2466 9.41035 42.477 9.72593 42.1007 9.91263C41.7652 10.0899 41.5344 10.2402 41.3611 10.3679C41.3422 10.2865 41.3163 10.1939 41.2633 10.0622C41.131 9.77144 40.6762 9.05225 39.9988 8.09752C39.6431 7.6305 39.1723 7.0016 38.3059 6.67959C37.8759 6.52127 37.3637 6.51232 36.9158 6.62817C36.4625 6.75041 36.049 6.98774 35.7149 7.31894C35.3862 7.64374 35.1268 8.08108 35.0243 8.54629C34.9209 8.99974 34.9478 9.44782 35.0233 9.83836C35.187 10.6302 35.5185 11.2297 35.7769 11.7407C36.1278 12.4274 36.4384 12.9931 36.6605 13.3591C36.6025 13.376 36.545 13.3987 36.4698 13.423C36.3032 13.4908 36.0128 13.6404 35.6278 13.8634C35.4357 13.9808 35.1965 14.1023 35.0951 14.0992C35.0479 14.1033 35.041 14.0921 35.003 14.0657C34.965 14.0394 34.9004 13.9798 34.8268 13.8854C34.6919 13.7015 34.5015 13.3565 34.3146 13.0527C34.1272 12.7429 33.9264 12.4166 33.7252 12.0844C33.5121 11.7532 33.3468 11.4237 33.0081 11.0145C32.8368 10.822 32.6103 10.6104 32.3073 10.4767C31.9979 10.3375 31.6563 10.3079 31.374 10.3442C30.7922 10.4242 30.381 10.6199 29.9425 10.9127C29.7294 11.0615 29.5199 11.2516 29.3573 11.5027C29.1878 11.7426 29.0726 12.0608 29.0514 12.3649C29.0153 12.9784 29.2381 13.4214 29.4049 13.7684C29.5771 14.1091 29.7345 14.4155 29.8968 14.7096C30.4825 15.7731 31.0025 16.5577 31.2869 16.8887C29.9504 17.6623 27.9044 18.8945 25.8375 20.0929C22.8037 21.867 19.7267 23.556 19.0759 24.0746C18.8368 23.9235 18.4809 23.7291 17.9106 23.5296C17.3654 23.3457 16.2402 23.058 14.7109 23.1846C13.1999 23.3155 11.2497 23.8697 9.53787 25.3218C7.82453 26.7563 6.55768 29.0885 6.30819 31.7C6.17728 33.0033 6.30784 34.3729 6.73586 35.6752C7.16979 36.977 7.89376 38.1944 8.86113 39.201C9.828 40.2018 11.0511 41.0026 12.4097 41.3768C13.7693 41.7627 15.1366 41.7569 16.4242 41.5861C19.0112 41.2434 21.3349 40.0583 22.8785 38.4488C23.6604 37.658 24.2294 36.7435 24.611 35.8629C24.9921 34.9765 25.1789 34.1128 25.2495 33.3481C25.389 31.8011 25.0653 30.6734 24.8516 30.1289C24.6623 29.6594 24.4733 29.332 24.3097 29.0913C24.4853 29.0583 24.8072 28.9297 25.4202 28.5921C26.8447 27.8049 33.1474 23.6733 39.4085 19.4742C40.1898 18.9502 40.9705 18.4203 41.7463 17.9026C42.5157 17.3796 43.2872 16.8801 44.0284 16.3062C44.7702 15.7382 45.4491 15.063 45.9823 14.3531C46.508 13.626 46.9655 12.9344 47.235 12.0636C47.3587 11.638 47.4183 11.1587 47.2982 10.6654C47.184 10.1715 46.8368 9.73342 46.4366 9.50732L46.4554 9.51755ZM46.1206 11.7631C45.9222 12.3551 45.4868 13.027 45.0168 13.6426C44.5296 14.2656 43.9418 14.8262 43.2609 15.3415C42.58 15.8569 41.8022 16.351 41.0269 16.8745C40.251 17.3921 39.4698 17.9161 38.6885 18.4402C32.4274 22.6393 26.2073 26.9001 24.9592 27.9387C24.4105 28.4011 24.1766 28.6525 24.1018 28.819C24.0692 28.7862 24.0366 28.7535 24.0105 28.7261C23.7963 28.5195 23.6875 28.4993 23.6144 28.5471C23.5584 28.5875 23.537 28.6842 23.6249 28.9432C23.7128 29.2023 23.8996 29.6425 24.0918 30.42C24.207 30.9256 24.425 31.932 24.2446 33.2811C24.0636 34.6243 23.4477 36.3015 22.0382 37.6741C20.6588 39.0501 18.5718 40.0843 16.2469 40.3628C15.0876 40.5047 13.8669 40.486 12.7559 40.1556C11.64 39.8374 10.6126 39.1678 9.79426 38.3023C8.96999 37.4374 8.34294 36.3775 7.96613 35.2545C7.60112 34.1305 7.47995 32.9379 7.59511 31.7959C7.80668 29.5018 8.90758 27.4507 10.3632 26.1986C11.8226 24.9224 13.5415 24.3764 14.8779 24.2191C16.2319 24.0603 17.2352 24.246 17.7497 24.3496C18.149 24.4276 18.4533 24.5079 18.6965 24.5698C18.6741 24.6547 18.6921 24.7243 18.7277 24.7923C18.792 24.9171 18.901 25.0084 19.4747 24.8342C20.2224 24.6094 23.4384 23.0151 26.5405 21.2055C29.6437 19.4076 32.6154 17.3958 33.1677 16.8383C33.566 16.4245 33.5748 16.2519 33.4784 16.1002C33.3969 15.9828 33.255 15.924 32.7042 16.1554C32.5725 16.2143 32.3558 16.3219 32.0837 16.4759C31.932 16.0979 31.4975 15.2703 30.9806 14.1772C30.7294 13.6122 30.2877 12.8385 30.3511 12.4715C30.3722 12.3038 30.4883 12.1337 30.7353 11.9641C30.971 11.8015 31.3332 11.6575 31.5693 11.637C31.8064 11.6283 31.8744 11.658 32.0901 11.8823C32.2747 12.0915 32.4919 12.4698 32.7039 12.7892C32.9164 13.1145 33.1226 13.4345 33.3272 13.7368C33.5382 14.0445 33.6866 14.3161 33.9656 14.6534C34.1044 14.8133 34.2859 14.9872 34.5343 15.1079C34.7831 15.2345 35.1065 15.2598 35.3454 15.2036C35.8282 15.0788 36.0141 14.8908 36.2046 14.7557C36.5846 14.4739 36.8565 14.2489 36.988 14.1189C37.0478 14.0545 37.0963 13.9969 37.139 13.9399C37.3383 14.1123 37.4697 14.1187 37.5949 14.0545C37.7207 13.9962 37.8114 13.8757 37.7111 13.4044C37.6427 13.0962 37.323 12.2883 36.8691 11.2371C36.6451 10.7113 36.3886 10.1527 36.2989 9.59746C36.2513 9.32303 36.2525 9.06216 36.3152 8.82559C36.3672 8.60181 36.4926 8.4013 36.6677 8.22611C37.0239 7.87522 37.5528 7.73457 37.94 7.87882C38.368 8.0136 38.7663 8.42358 39.1109 8.83228C39.8166 9.7016 40.3869 10.3811 40.635 10.5671C40.8007 10.695 40.9184 10.7499 41.0154 10.7712C40.9915 10.8384 40.9961 10.8914 41.0174 10.931C41.0951 11.0725 41.2991 11.0251 42.4464 10.6768C42.8181 10.5735 43.5363 10.3513 44.5274 10.2595C44.9937 10.2191 45.566 10.2347 45.9077 10.4718C46.0723 10.5879 46.1875 10.7498 46.2299 10.9654C46.2724 11.181 46.2378 11.4684 46.1448 11.7669L46.1206 11.7631Z"
                                                    fill="#102650" />
                                                <path
                                                    d="M19.325 28.3201C18.8436 27.9114 18.3272 27.648 17.8558 27.4932C17.2131 27.2822 16.6575 27.2533 16.2556 27.2822C16.1232 27.264 15.9736 27.2533 15.7901 27.2633C15.3942 27.2916 14.7471 27.4425 13.8841 27.7781C13.4537 27.9576 12.9628 28.1957 12.4843 28.575C12.0052 28.9484 11.536 29.5046 11.2615 30.1803C10.9806 30.8506 10.8741 31.6125 10.8986 32.3749C10.9289 33.1368 11.0611 33.9077 11.3547 34.6882C11.6473 35.457 12.1891 36.2872 13.0672 36.7445C13.9384 37.1906 14.8646 37.2407 15.7302 37.142C17.4738 36.9494 19.133 35.9878 20.0536 34.5331C20.9792 33.0661 21.0349 31.3071 20.4965 29.9669C20.2357 29.2902 19.8059 28.7229 19.3299 28.3078L19.325 28.3201ZM18.9806 33.8853C18.2714 34.9661 16.9521 35.7323 15.567 35.876C14.8779 35.9535 14.1643 35.8849 13.6527 35.6092C13.1422 35.3453 12.7697 34.8205 12.5268 34.2133C12.063 32.9793 11.9825 31.5698 12.3624 30.6005C12.7295 29.6205 13.5972 29.0653 14.3278 28.7116C14.6992 28.5372 15.0383 28.4011 15.3204 28.2937C15.4295 28.2487 15.5219 28.217 15.6143 28.1853C15.7028 28.1776 15.7973 28.1694 15.9105 28.1714C16.2076 28.1694 16.802 28.1653 17.5237 28.4643C18.2444 28.7515 19.0536 29.3748 19.4115 30.4165C19.785 31.4331 19.7026 32.8152 18.9865 33.8848L18.9806 33.8853Z"
                                                    fill="#102650" />
                                                <path
                                                    d="M6.34183 41.0252C5.79809 40.5152 5.22705 39.7587 4.81517 38.9172C3.97268 37.2241 3.73986 35.2234 3.51478 34.8221C3.35791 34.5216 3.21319 34.4986 3.03611 34.5139C2.89445 34.5262 2.76764 34.5727 2.69096 34.9231C2.61601 35.3622 2.68296 37.5078 3.66462 39.5029C4.14878 40.4922 4.86679 41.3663 5.5809 41.9208C6.28961 42.4817 6.9531 42.7265 7.20407 42.7403C7.57462 42.7615 7.67709 42.64 7.73416 42.4751C7.78198 42.3406 7.77025 42.2053 7.52506 41.9835C7.36963 41.837 6.87478 41.548 6.33644 41.0316L6.34183 41.0252Z"
                                                    fill="#102650" />
                                                <path
                                                    d="M10.9985 43.431C10.8891 43.5413 10.8595 43.6801 10.833 43.8543C10.8152 43.9922 10.8087 44.1231 10.8907 44.2464C11.1145 44.5648 13.252 44.9367 13.5483 44.6503C13.6577 44.54 13.6932 44.4006 13.7198 44.2265C13.7375 44.0886 13.7381 43.9582 13.6556 43.829C13.4317 43.5106 11.2943 43.1387 10.998 43.4252L10.9985 43.431Z"
                                                    fill="#102650" />
                                                <path
                                                    d="M42.9213 4.56101C43.0083 4.67201 43.1163 4.75155 43.4122 4.66664C43.5975 4.6091 44.0488 4.32701 44.5744 3.87255C44.8399 3.64212 45.1195 3.36897 45.3966 3.06642C45.5379 2.91195 45.6727 2.75211 45.807 2.58638C45.8717 2.50965 45.9531 2.41963 46.0505 2.23932C46.0965 2.15237 46.1404 2.04188 46.1641 1.90352C46.1873 1.75928 46.1779 1.5823 46.1239 1.43882C46.0757 1.29483 45.9911 1.14214 45.8313 1.01375C45.6769 0.878965 45.409 0.807351 45.2153 0.835992C44.811 0.906574 44.7057 1.06386 44.6208 1.11271C44.4259 1.2659 44.2503 1.43521 44.0982 1.60247C43.7947 1.94287 43.5807 2.28737 43.404 2.58123C43.0628 3.1738 42.8457 3.61932 42.8207 3.81114C42.8029 3.94899 42.8229 4.04208 42.8585 4.11012C42.7922 4.30551 42.827 4.43288 42.9208 4.55513L42.9213 4.56101Z"
                                                    fill="#102650" />
                                                <path
                                                    d="M50.6471 7.37641C51.1178 7.18153 51.6323 6.94139 52.1608 6.65853C52.4281 6.51685 52.6948 6.36928 52.9605 6.20995L53.3612 5.96188C53.4118 5.92786 53.5307 5.8583 53.6352 5.76035C53.7338 5.66291 53.8878 5.51917 53.9568 5.21687C53.9854 5.06624 53.9706 4.89565 53.9165 4.75217C53.8556 4.59744 53.743 4.46496 53.635 4.38542C53.4131 4.22684 53.2325 4.20101 53.0823 4.18438C52.9263 4.16827 52.7857 4.19231 52.7035 4.20535C52.6037 4.21993 52.5103 4.23987 52.4174 4.2657C52.0452 4.36314 51.7372 4.51429 51.4694 4.65009C50.9452 4.91479 50.4447 5.17744 50.0036 5.44086C49.121 5.96181 48.5209 6.51756 48.3702 6.76768C48.2145 7.03008 48.209 7.17279 48.2595 7.2751C48.2089 7.30911 48.1642 7.34261 48.1152 7.39428C48.072 7.44543 48.0358 7.50783 48.0686 7.61166C48.1009 7.70962 48.2509 7.86256 48.5414 7.92037C48.7236 7.96385 49.0718 7.93367 49.4242 7.81424C49.7605 7.71399 50.1817 7.56489 50.6466 7.37053L50.6471 7.37641Z"
                                                    fill="#102650" />
                                                <path
                                                    d="M55.7649 12.9246C55.6785 12.8195 55.602 12.7609 55.5266 12.7141C55.3817 12.62 55.2462 12.5665 55.0882 12.5269C52.8794 12.0189 50.7821 12.3844 50.3562 12.6168C50.2427 12.68 50.1701 12.7337 50.1156 12.7918C50.0979 12.7933 50.0802 12.7948 50.0684 12.7959C49.6824 12.8708 49.5922 12.9971 49.5721 13.1767C49.5543 13.3145 49.5961 13.4531 49.9612 13.6171C50.2267 13.7304 51.0509 13.9079 52.1206 14.1056C52.6577 14.1954 53.2573 14.3212 53.9507 14.3619C54.2971 14.3793 54.6651 14.3711 55.0404 14.309C55.1397 14.2885 55.1997 14.2952 55.4017 14.2243C55.5822 14.1791 55.9837 13.8716 55.9509 13.4241C55.9433 13.1995 55.8395 13.0307 55.76 12.9369L55.7649 12.9246Z"
                                                    fill="#102650" />
                                            </g>
                                            <defs>
                                                <clipPath id="clip0_23_36750">
                                                    <rect width="55" height="41" fill="white"
                                                        transform="translate(0 4.74756) rotate(-4.95185)" />
                                                </clipPath>
                                            </defs>
                                        </svg>