<svg width="15" height="13" viewBox="0 0 15 13" fill="none" xmlns="http://www.w3.org/2000/svg">
<path d="M14.6294 11.4518L8.555 0.755641C8.08248 -0.0756387 7.30981 -0.0782791 6.83729 0.753L0.7625 11.4531C0.289978 12.2844 0.676744 12.974 1.62136 12.974H13.7705C14.7151 12.974 15.1019 12.2831 14.6294 11.4518ZM2.87867 11.2384L7.69614 2.76057L12.5132 11.2384H2.87867ZM7.70004 9.27174C7.26693 9.27174 6.96419 9.57671 6.96419 10.0251C6.96419 10.4736 7.2587 10.7785 7.68358 10.7785H7.70004C8.14138 10.7785 8.42767 10.4568 8.42767 10.0251C8.41944 9.57671 8.13358 9.27174 7.70004 9.27174ZM7.23402 8.63453H8.16607L8.34581 4.85659H7.05428L7.23402 8.63453Z" fill="#FF7400"/>
</svg>
