<svg width="104" height="104" viewBox="0 0 104 104" fill="none" xmlns="http://www.w3.org/2000/svg">
<g filter="url(#filter0_d_148_7)">
<rect x="77.0166" y="18.293" width="50.4369" height="50.5045" rx="7.62121" transform="rotate(90 77.0166 18.293)" fill="#FF7400"/>
<rect x="76.4722" y="18.8373" width="49.3481" height="49.4157" rx="7.07684" transform="rotate(90 76.4722 18.8373)" stroke="white" stroke-width="1.08874"/>
</g>
<path d="M68.939 50.8204H68.0583C68.0583 50.8204 68.0705 50.0458 68.0705 49.6338C68.0705 47.3003 66.1646 45.3819 63.8463 45.3819C61.5281 45.3819 59.6222 47.2893 59.6222 49.6338C59.6222 50.0458 59.6313 50.8204 59.6313 50.8204L42.9237 50.7971C42.9237 50.7971 42.9188 50.0458 42.9188 49.6338C42.9188 47.2893 41.0239 45.3819 38.6947 45.3819C36.3655 45.3819 34.4706 47.2917 34.4706 49.6338C34.4706 50.0458 34.4651 50.8204 34.4651 50.8204H34.1456C33.4411 50.8204 33.8183 49.9431 33.3269 48.534C33.0925 47.8609 33.7253 47.1468 33.6846 46.7275C33.6664 46.541 33.5085 46.2616 33.6336 46.1228C33.7587 45.9841 33.9895 46.044 33.9895 46.044C33.9895 46.044 34.6843 42.8363 35.3852 42.527C35.7879 42.3497 36.5604 43.1193 37.1235 42.9414C37.6998 42.7599 38.4111 41.4327 39.0439 41.2664C39.6434 41.1093 39.7138 42.0727 40.2647 41.9431C40.6825 41.8447 41.2601 40.8439 41.6009 40.7687C42.3959 40.5927 42.9255 40.4863 42.9255 40.4863C44.6716 38.9121 48.0929 36.1122 51.0841 34.8571C53.9817 33.6418 63.2269 33.5409 67.8944 35.727C68.4792 36.0009 69.8786 41.4302 70.2563 44.6177C70.5691 44.6177 70.7945 44.6844 70.9202 45.0499C71.0574 45.4473 71.2925 50.8204 68.939 50.8204ZM51.191 35.1646C49.9866 35.6696 46.6121 38.0813 44.6152 39.6445C44.4469 39.7759 44.3807 40.0009 44.45 40.2033C44.5192 40.4062 44.7087 40.5419 44.9219 40.5419H54.2824C54.5144 40.5419 54.7154 40.3812 54.7677 40.1537L56.0753 34.4756C53.9137 34.5771 51.9999 34.8253 51.1916 35.1646H51.191ZM57.0549 34.4707C57.0513 34.4707 57.0118 34.7893 57.0118 34.7929L56.4731 39.9887C56.4585 40.1299 56.5041 40.2711 56.5988 40.3763C56.6936 40.482 56.8278 40.5419 56.9693 40.5419H65.881C65.9053 40.5419 65.9247 40.5224 65.9247 40.4979C65.9247 35.8732 65.8239 35.4354 65.2682 35.3236C62.744 34.7055 58.9954 34.42 57.0555 34.4701L57.0549 34.4707Z" fill="#0F1829"/>
<path d="M67.4812 49.6332C67.4812 51.6537 65.8535 53.2921 63.8462 53.2921C61.8389 53.2921 60.2112 51.6543 60.2112 49.6332C60.2112 47.6121 61.8389 45.9744 63.8462 45.9744C65.8535 45.9744 67.4812 47.6121 67.4812 49.6332ZM63.8462 47.2845C62.5574 47.2845 61.5127 48.336 61.5127 49.6332C61.5127 50.9305 62.5574 51.982 63.8462 51.982C65.135 51.982 66.1796 50.9305 66.1796 49.6332C66.1796 48.336 65.135 47.2845 63.8462 47.2845ZM64.196 47.7925C64.196 48.0401 64.0393 48.4411 63.8462 48.4411C63.653 48.4411 63.4963 48.0395 63.4963 47.7925C63.4963 47.5455 63.653 47.5449 63.8462 47.5449C64.0393 47.5449 64.196 47.5449 64.196 47.7925ZM63.0542 47.9374C63.1987 48.1373 63.3062 48.5548 63.1502 48.6691C62.9941 48.7835 62.6327 48.5512 62.4881 48.3512C62.3436 48.1513 62.4705 48.0584 62.6266 47.9441C62.7827 47.8298 62.9096 47.7369 63.0542 47.9374ZM62.2148 48.7297C62.4487 48.8061 62.7797 49.08 62.7195 49.2652C62.66 49.4498 62.2325 49.4761 61.9986 49.3997C61.7648 49.3233 61.8134 49.1735 61.8729 48.9883C61.9324 48.8036 61.981 48.6532 62.2148 48.7297ZM61.9986 49.8674C62.2325 49.7909 62.66 49.8166 62.7195 50.0019C62.7791 50.1865 62.4487 50.461 62.2148 50.5374C61.981 50.6138 61.933 50.464 61.8729 50.2788C61.8134 50.0942 61.7648 49.9438 61.9986 49.8674ZM62.4881 50.9158C62.6327 50.7159 62.9935 50.4836 63.1502 50.5979C63.3062 50.7122 63.1987 51.1298 63.0542 51.3297C62.9096 51.5302 62.7833 51.4373 62.6266 51.323C62.4705 51.2086 62.3436 51.1163 62.4881 50.9158ZM63.4963 51.4746C63.4963 51.227 63.653 50.8259 63.8462 50.8259C64.0393 50.8259 64.196 51.2276 64.196 51.4746C64.196 51.7216 64.0393 51.7222 63.8462 51.7222C63.653 51.7222 63.4963 51.7222 63.4963 51.4746ZM64.6382 51.3297C64.4936 51.1298 64.3861 50.7122 64.5422 50.5979C64.6983 50.4836 65.0597 50.7159 65.2042 50.9158C65.3488 51.1163 65.2218 51.2086 65.0657 51.323C64.9097 51.4373 64.7827 51.5302 64.6382 51.3297ZM65.4775 50.5374C65.2437 50.461 64.9127 50.1871 64.9728 50.0019C65.0323 49.8172 65.4599 49.7909 65.6937 49.8674C65.9276 49.9438 65.879 50.0936 65.8195 50.2788C65.76 50.464 65.7114 50.6138 65.4775 50.5374ZM65.6937 49.3997C65.4599 49.4761 65.0323 49.4504 64.9728 49.2652C64.9133 49.0806 65.2437 48.8061 65.4775 48.7297C65.7114 48.6532 65.7593 48.803 65.8195 48.9883C65.879 49.1729 65.9276 49.3233 65.6937 49.3997ZM65.2042 48.3512C65.0597 48.5512 64.6989 48.7835 64.5422 48.6691C64.3861 48.5548 64.4936 48.1373 64.6382 47.9374C64.7827 47.7375 64.9091 47.8298 65.0657 47.9441C65.2218 48.0584 65.3488 48.1507 65.2042 48.3512ZM64.6801 49.6332C64.6801 50.0966 64.3072 50.472 63.8468 50.472C63.3864 50.472 63.0135 50.0966 63.0135 49.6332C63.0135 49.1698 63.3864 48.7945 63.8468 48.7945C64.3072 48.7945 64.6801 49.1698 64.6801 49.6332Z" fill="#0F1829"/>
<path d="M42.5473 49.6332C42.5473 51.6537 40.9196 53.2921 38.9123 53.2921C36.905 53.2921 35.2773 51.6543 35.2773 49.6332C35.2773 47.6121 36.905 45.9744 38.9123 45.9744C40.9196 45.9744 42.5473 47.6121 42.5473 49.6332ZM38.9123 47.2845C37.6235 47.2845 36.5789 48.336 36.5789 49.6332C36.5789 50.9305 37.6235 51.982 38.9123 51.982C40.2011 51.982 41.2458 50.9305 41.2458 49.6332C41.2458 48.336 40.2011 47.2845 38.9123 47.2845ZM39.2622 47.7925C39.2622 48.0401 39.1055 48.4411 38.9123 48.4411C38.7192 48.4411 38.5625 48.0395 38.5625 47.7925C38.5625 47.5455 38.7192 47.5449 38.9123 47.5449C39.1055 47.5449 39.2622 47.5449 39.2622 47.7925ZM38.1204 47.9374C38.2649 48.1373 38.3724 48.5548 38.2163 48.6691C38.0602 48.7835 37.6989 48.5512 37.5543 48.3512C37.4098 48.1513 37.5367 48.0584 37.6928 47.9441C37.8489 47.8298 37.9758 47.7369 38.1204 47.9374ZM37.281 48.7297C37.5148 48.8061 37.8458 49.08 37.7857 49.2652C37.7262 49.4498 37.2986 49.4761 37.0648 49.3997C36.831 49.3233 36.8795 49.1735 36.9391 48.9883C36.9986 48.8036 37.0472 48.6532 37.281 48.7297ZM37.0648 49.8674C37.2986 49.7909 37.7262 49.8166 37.7857 50.0019C37.8452 50.1865 37.5148 50.461 37.281 50.5374C37.0472 50.6138 36.9992 50.464 36.9391 50.2788C36.8795 50.0942 36.831 49.9438 37.0648 49.8674ZM37.5543 50.9158C37.6989 50.7159 38.0596 50.4836 38.2163 50.5979C38.3724 50.7122 38.2649 51.1298 38.1204 51.3297C37.9758 51.5302 37.8495 51.4373 37.6928 51.323C37.5367 51.2086 37.4098 51.1163 37.5543 50.9158ZM38.5625 51.4746C38.5625 51.227 38.7192 50.8259 38.9123 50.8259C39.1055 50.8259 39.2622 51.2276 39.2622 51.4746C39.2622 51.7216 39.1055 51.7222 38.9123 51.7222C38.7192 51.7222 38.5625 51.7222 38.5625 51.4746ZM39.7043 51.3297C39.5598 51.1298 39.4523 50.7122 39.6084 50.5979C39.7645 50.4836 40.1258 50.7159 40.2704 50.9158C40.4149 51.1163 40.288 51.2086 40.1319 51.323C39.9758 51.4373 39.8489 51.5302 39.7043 51.3297ZM40.5437 50.5374C40.3099 50.461 39.9789 50.1871 40.039 50.0019C40.0985 49.8172 40.5261 49.7909 40.7599 49.8674C40.9937 49.9438 40.9452 50.0936 40.8856 50.2788C40.8261 50.464 40.7775 50.6138 40.5437 50.5374ZM40.7599 49.3997C40.5261 49.4761 40.0985 49.4504 40.039 49.2652C39.9795 49.0806 40.3099 48.8061 40.5437 48.7297C40.7775 48.6532 40.8255 48.803 40.8856 48.9883C40.9452 49.1729 40.9937 49.3233 40.7599 49.3997ZM40.2704 48.3512C40.1258 48.5512 39.7651 48.7835 39.6084 48.6691C39.4523 48.5548 39.5598 48.1373 39.7043 47.9374C39.8489 47.7375 39.9752 47.8298 40.1319 47.9441C40.288 48.0584 40.4149 48.1507 40.2704 48.3512ZM39.7462 49.6332C39.7462 50.0966 39.3733 50.472 38.913 50.472C38.4526 50.472 38.0797 50.0966 38.0797 49.6332C38.0797 49.1698 38.4526 48.7945 38.913 48.7945C39.3733 48.7945 39.7462 49.1698 39.7462 49.6332Z" fill="#0F1829"/>
<defs>
<filter id="filter0_d_148_7" x="0.382349" y="0.873063" width="102.764" height="102.697" filterUnits="userSpaceOnUse" color-interpolation-filters="sRGB">
<feFlood flood-opacity="0" result="BackgroundImageFix"/>
<feColorMatrix in="SourceAlpha" type="matrix" values="0 0 0 0 0 0 0 0 0 0 0 0 0 0 0 0 0 0 127 0" result="hardAlpha"/>
<feOffset dy="8.70995"/>
<feGaussianBlur stdDeviation="13.0649"/>
<feComposite in2="hardAlpha" operator="out"/>
<feColorMatrix type="matrix" values="0 0 0 0 0 0 0 0 0 0 0 0 0 0 0 0 0 0 0.15 0"/>
<feBlend mode="normal" in2="BackgroundImageFix" result="effect1_dropShadow_148_7"/>
<feBlend mode="normal" in="SourceGraphic" in2="effect1_dropShadow_148_7" result="shape"/>
</filter>
</defs>
</svg>
