<svg width="94" height="50" viewBox="0 0 94 50" fill="none" xmlns="http://www.w3.org/2000/svg">
<path opacity="0.1" d="M54.4222 25.4906L50.3468 33.5961H50.262L50.0559 25.4906H46.647L46.514 25.7822L46.8063 25.9628C47.0884 26.1642 47.1674 26.3685 47.2039 26.9311L47.6658 36.7673H51.4636L57.5929 25.4906H54.4222ZM42.2908 31.3281C41.9093 32.4369 41.6096 33.1505 41.1667 33.6213C40.8188 33.9914 40.3598 34.2564 39.3029 34.2564C38.4741 34.2564 38.0122 33.913 38.0122 33.263C38.0063 32.8441 38.1189 32.2075 38.5618 30.9683C38.9448 29.8609 39.2445 29.1473 39.6889 28.6765C40.0324 28.3064 40.4928 28.0399 41.5512 28.0399C42.38 28.0399 42.8405 28.3834 42.839 29.0304C42.8478 29.4553 42.7352 30.0919 42.2908 31.3281ZM42.114 25.3514H41.7602C39.6625 25.3514 38.4639 25.9243 37.4801 26.9829C36.2566 28.2931 35.1076 31.8359 35.1295 33.7101C35.1529 35.6214 36.3735 36.9465 38.939 36.9465H39.3146C41.4182 36.9465 42.6168 36.3735 43.6006 35.315C44.8227 34.0018 45.9482 30.4605 45.9263 28.5877C45.9015 26.6779 44.6809 25.3514 42.114 25.3514ZM31.8142 29.5841C31.6227 30.0652 31.4122 30.1807 31.1359 30.2947C30.9503 30.3687 30.557 30.3954 30.1784 30.3954H28.7123L29.5104 28.0651H31.2821C31.8127 28.0651 32.0291 28.3449 32.0364 28.6632C32.0393 28.866 31.9472 29.2376 31.8142 29.5841ZM31.5511 25.4906H26.7432L26.6467 25.7822L26.8412 25.9762C27.0458 26.1805 27.0385 26.4233 26.8587 26.9444L23.4995 36.7673H26.5693L27.882 32.8678L28.9213 32.8692L30.0761 36.7673H33.1605L31.7104 32.7774C32.5524 32.6398 32.9748 32.3955 33.3973 32.015C33.9762 31.4791 34.3767 30.727 34.7085 29.6196C35.1938 28.0133 34.9 27.0954 34.5887 26.6246C34.1604 25.9762 33.2584 25.4906 31.5511 25.4906ZM63.7573 32.2445L64.608 29.8861H60.6948L61.3014 28.0858H65.5406L66.4718 25.4832H58.4685L58.3574 25.8148L58.5489 26.0058C58.755 26.2086 58.7462 26.4499 58.5679 26.974L55.235 36.7629H62.7135L63.6169 34.1424H59.252L59.8952 32.2445H63.7573ZM72.737 29.5841C72.5455 30.0652 72.3321 30.1807 72.0602 30.2947C71.8702 30.3687 71.4828 30.3954 71.1042 30.3954H69.6395L70.4303 28.0651H72.2049C72.7327 28.0651 72.9519 28.3449 72.9563 28.6632C72.9622 28.866 72.8671 29.2376 72.737 29.5841ZM72.4695 25.4906H67.6632L67.5696 25.7822L67.7626 25.9762C67.9687 26.1805 67.9584 26.4233 67.7816 26.9444L64.4194 36.7673H67.4936L68.8048 32.8692H69.8427L70.999 36.7673H74.0804L72.6332 32.7774C73.4738 32.6398 73.8962 32.3955 74.3172 32.015C74.8976 31.4791 75.2996 30.727 75.6314 29.6196C76.1167 28.0133 75.8229 27.0954 75.513 26.6246C75.0847 25.9762 74.1813 25.4906 72.4695 25.4906ZM78.7728 40.6239C70.3397 45.0372 59.0912 47.4682 47.0943 47.4682C35.0988 47.4682 23.8518 45.0372 15.4173 40.6239C7.30578 36.378 2.83562 30.8484 2.83562 25.0568C2.83562 19.2607 7.30578 13.7312 15.4173 9.48814C23.8518 5.07633 35.0988 2.64244 47.0943 2.64244C59.0912 2.64244 70.3397 5.07633 78.7728 9.48814C86.8857 13.7312 91.3515 19.2607 91.3515 25.0568C91.3515 30.8484 86.8857 36.378 78.7728 40.6239ZM79.9144 7.24966C71.132 2.65428 59.4771 0.124153 47.0943 0.124153C34.7115 0.124153 23.0551 2.65428 14.2756 7.24966C9.07455 9.97225 0.347656 15.906 0.347656 25.0568C0.347656 34.2031 9.07455 40.1384 14.2756 42.8609C23.0537 47.4563 34.7085 49.9865 47.0943 49.9865C59.4786 49.9865 71.1334 47.4563 79.9144 42.8609C85.1155 40.1384 93.8395 34.2046 93.8395 25.0568C93.8395 15.9045 85.1155 9.97225 79.9144 7.24966ZM77.5916 38.31C68.5183 43.0564 57.2318 44.8611 47.0943 44.8611C36.9553 44.8611 25.6717 43.0564 16.5955 38.31C11.7935 35.7946 5.40984 31.1608 5.40984 25.0568C5.40984 18.9469 11.792 14.3174 16.5955 11.8036C25.6717 7.05721 36.9553 5.25251 47.0943 5.25251C57.2318 5.25251 68.5183 7.05424 77.5916 11.8036C82.398 14.3174 88.7787 18.9469 88.7787 25.0568C88.7787 31.1637 82.3966 35.7946 77.5916 38.31ZM78.0623 10.8783C68.8501 6.05344 57.3795 4.20729 47.0943 4.20729C36.8077 4.20729 25.3399 6.05492 16.1233 10.8783C10.9486 13.5846 4.38074 18.4702 4.38074 25.0568C4.38074 31.6375 10.9486 36.526 16.1233 39.2353C25.3399 44.0557 36.8106 45.9033 47.0943 45.9033C57.3795 45.9033 68.8501 44.0586 78.0623 39.2353C83.24 36.526 89.8078 31.6375 89.8078 25.0568C89.8078 18.4702 83.2415 13.5846 78.0623 10.8783ZM23.8576 26.9444L15.4567 29.7425L14.4306 32.5939H21.8389L22.8037 29.9068H17.6684L23.498 27.9082L23.8576 26.9444ZM57.2859 14.4507H58.5036C59.3324 14.4507 59.7899 14.732 59.8002 15.3819C59.8075 15.8009 59.6964 16.3753 59.2666 17.6115C58.8866 18.7174 58.5825 19.3584 58.1513 19.8278C57.8048 20.1979 57.3444 20.3622 56.2875 20.3622H55.2701L57.2859 14.4507ZM54.6167 13.2293L51.2926 23.0522H56.1969C58.2989 23.0522 59.4991 22.58 60.4726 21.5229C61.6947 20.2142 62.8115 16.8091 62.7749 14.9348C62.7384 13.022 61.5192 11.777 58.9538 11.777H54.4983L54.4047 12.0671L54.5977 12.2581C54.8023 12.4639 54.795 12.7067 54.6167 13.2293ZM73.1229 15.8201H65.7146L64.7498 18.5042H69.8836L64.0525 20.5088L63.6929 21.4696L72.0938 18.6715L73.1229 15.8201ZM40.0119 23.0463H42.8039L45.2393 15.752L46.6631 23.0463H49.458L53.2674 11.7725L50.3468 11.777L48.312 17.9046L47.1498 11.777H43.2132L43.1168 12.0671L43.3097 12.2581C43.5173 12.4639 43.5071 12.7067 43.3302 13.2293L40.0119 23.0463ZM19.9941 23.0522L27.5911 23.0493L28.5091 20.3622H24.093L27.0107 11.777H23.2013L23.1063 12.0671L23.2963 12.2581C23.5039 12.4639 23.4951 12.7067 23.3168 13.2293L19.9941 23.0522ZM36.1572 14.8933H36.2566L36.3092 18.2984H34.2598L36.1572 14.8933ZM28.379 23.0463H31.611L33.0114 20.5547H36.3574L36.3911 23.0463H39.3234L38.6904 11.777H34.3007L34.2027 12.0671L34.3445 12.2107C34.5755 12.4402 34.4805 12.7703 33.6253 14.1442L28.379 23.0463Z" fill="#0F1829"/>
</svg>
