<svg width="104" height="104" viewBox="0 0 104 104" fill="none" xmlns="http://www.w3.org/2000/svg">
<g filter="url(#filter0_d_31_6)">
<rect x="77.6062" y="17.5916" width="50.8129" height="50.881" rx="7.67802" transform="rotate(90 77.6062 17.5916)" fill="#FF7400"/>
<rect x="77.0578" y="18.14" width="49.716" height="49.7841" rx="7.12959" transform="rotate(90 77.0578 18.14)" stroke="white" stroke-width="1.09686"/>
</g>
<ellipse cx="52.627" cy="36" rx="6.00804" ry="6" fill="white"/>
<path d="M40.9529 30.2364V31.0927H43.9013V30.2364C43.9013 29.4269 43.2435 28.77 42.433 28.77C41.6225 28.77 40.9529 29.4269 40.9529 30.2364Z" fill="#0F1829"/>
<path d="M47.7184 54.8708H59.6528V30.8346C59.6528 29.6967 58.7248 28.77 57.5854 28.77H44.4999C44.7936 29.1923 44.9698 29.6967 44.9698 30.2364V58.5308C44.9698 58.6481 45.0168 58.7419 45.0872 58.8241L46.4146 58.5308C47.319 58.3314 47.7419 57.5337 47.7419 56.8768C47.7419 56.4662 47.5892 56.0791 47.3073 55.7623C47.1663 55.5981 47.1311 55.3752 47.2133 55.1875C47.2956 54.9881 47.4952 54.8708 47.7067 54.8708H47.7184ZM52.2173 30.6117C55.0952 30.6117 57.4445 32.9579 57.4445 35.8319C57.4445 38.7059 55.0952 41.0521 52.2173 41.0521C49.3394 41.0521 46.9901 38.7059 46.9901 35.8319C46.9901 32.9579 49.3277 30.6117 52.2173 30.6117ZM47.5305 45.0405H56.3638C56.6574 45.0405 56.9041 45.2868 56.9041 45.5801C56.9041 45.8734 56.6574 46.1197 56.3638 46.1197H47.5305C47.2368 46.1197 46.9901 45.8734 46.9901 45.5801C46.9901 45.2868 47.2368 45.0405 47.5305 45.0405ZM55.0834 48.3016C55.0834 48.5949 54.8368 48.8412 54.5431 48.8412H49.3629C49.0693 48.8412 48.8226 48.5949 48.8226 48.3016C48.8226 48.0084 49.0693 47.762 49.3629 47.762H54.5431C54.8368 47.762 55.0834 48.0084 55.0834 48.3016ZM46.9901 51.0231C46.9901 50.7299 47.2368 50.4835 47.5305 50.4835H56.3638C56.6574 50.4835 56.9041 50.7299 56.9041 51.0231C56.9041 51.3164 56.6574 51.5628 56.3638 51.5628H47.5305C47.2368 51.5628 46.9901 51.3164 46.9901 51.0231Z" fill="#0F1829"/>
<path d="M52.2176 39.9728C54.5081 39.9728 56.3641 38.1193 56.3641 35.8319C56.3641 33.5444 54.5081 31.6909 52.2176 31.6909C49.927 31.6909 48.0711 33.5444 48.0711 35.8319C48.0711 38.1193 49.927 39.9728 52.2176 39.9728ZM51.6773 33.0048V32.5003C51.6773 32.2071 51.9239 31.9607 52.2176 31.9607C52.5113 31.9607 52.7579 32.2071 52.7579 32.5003V33.0048C53.5567 33.2159 54.144 33.8728 54.144 34.6471C54.144 34.9403 53.8973 35.1867 53.6037 35.1867C53.31 35.1867 53.0633 34.9403 53.0633 34.6471C53.0633 34.2951 52.6757 34.0019 52.2176 34.0019C51.7595 34.0019 51.3718 34.2951 51.3718 34.6471C51.3718 34.999 51.7595 35.2922 52.2176 35.2922C52.9694 35.2922 53.6624 35.6911 53.9678 36.3011C54.1792 36.7117 54.2027 37.1692 54.0383 37.5915C53.8621 38.049 53.4627 38.4243 52.9576 38.612C52.8871 38.6355 52.8284 38.6472 52.7579 38.6707V39.1751C52.7579 39.4684 52.5113 39.7147 52.2176 39.7147C51.9239 39.7147 51.6773 39.4684 51.6773 39.1751V38.6824C51.1604 38.5534 50.7141 38.2132 50.4674 37.744C50.3852 37.5915 50.3382 37.439 50.3147 37.2747C50.2677 36.9815 50.4674 36.6999 50.761 36.653C51.0547 36.6061 51.3366 36.8055 51.3836 37.0988C51.3836 37.1457 51.4071 37.2043 51.4306 37.2513C51.5598 37.5093 51.8769 37.6618 52.2176 37.6618C52.3351 37.6618 52.4643 37.6384 52.5817 37.6032C52.7932 37.5211 52.9576 37.3803 53.0281 37.2043C53.0633 37.1105 53.0868 36.9697 53.0046 36.7938C52.8754 36.5474 52.5582 36.3832 52.2176 36.3832C51.1604 36.3832 50.2912 35.609 50.2912 34.6588C50.2912 33.8728 50.8785 33.2276 51.6773 33.0165V33.0048Z" fill="#0F1829"/>
<path d="M61.8846 58.9999C62.7539 58.9999 63.4704 58.2961 63.4704 57.4163V55.95H48.6582C48.7639 56.2432 48.8226 56.5599 48.8226 56.8884C48.8226 57.733 48.4585 58.4955 47.8477 58.9999H61.8846Z" fill="#0F1829"/>
<defs>
<filter id="filter0_d_31_6" x="0.400572" y="0.0417862" width="103.53" height="103.462" filterUnits="userSpaceOnUse" color-interpolation-filters="sRGB">
<feFlood flood-opacity="0" result="BackgroundImageFix"/>
<feColorMatrix in="SourceAlpha" type="matrix" values="0 0 0 0 0 0 0 0 0 0 0 0 0 0 0 0 0 0 127 0" result="hardAlpha"/>
<feOffset dy="8.77488"/>
<feGaussianBlur stdDeviation="13.1623"/>
<feComposite in2="hardAlpha" operator="out"/>
<feColorMatrix type="matrix" values="0 0 0 0 0 0 0 0 0 0 0 0 0 0 0 0 0 0 0.15 0"/>
<feBlend mode="normal" in2="BackgroundImageFix" result="effect1_dropShadow_31_6"/>
<feBlend mode="normal" in="SourceGraphic" in2="effect1_dropShadow_31_6" result="shape"/>
</filter>
</defs>
</svg>
