<svg width="55" height="56" viewBox="0 0 55 56" fill="none" xmlns="http://www.w3.org/2000/svg">
<path d="M27.2014 52.5407C13.6871 52.5407 2.61511 41.4144 2.61511 27.9001C2.61511 24.8607 3.15785 21.9841 4.18907 19.2704L18.5718 48.1987C18.7346 48.5786 19.006 48.9043 19.4402 48.9043C19.8744 48.9043 20.1458 48.5786 20.3086 48.1987L26.9301 33.3818C26.9843 33.2189 27.0929 33.0561 27.2557 33.0561C27.4185 33.0561 27.4728 33.2189 27.5814 33.3818L34.2029 48.1987C34.3657 48.5786 34.637 48.9043 35.0712 48.9043C35.5054 48.9043 35.7768 48.5786 35.9396 48.1987L50.3224 19.2704C51.3536 21.9841 51.8963 24.8607 51.8963 27.9001C51.7878 41.4144 40.7158 52.5407 27.2014 52.5407ZM27.2014 22.3098C27.0386 22.3098 26.9843 22.147 26.8758 21.9841L19.1688 4.6163C21.6654 3.69364 24.3792 3.20517 27.2014 3.20517C30.0237 3.20517 32.7374 3.69364 35.2341 4.6163L27.5271 21.9841C27.4185 22.2012 27.3643 22.3098 27.2014 22.3098ZM19.3316 40.1661C19.1688 40.1661 19.1145 40.0033 19.006 39.8404L6.52287 14.6571C8.74813 11.2378 11.7332 8.36124 15.3696 6.35309L24.3792 26.3804C24.4877 26.706 24.7591 26.8146 25.0305 26.8146H29.3724C29.6981 26.8146 29.9152 26.7603 30.078 26.3804L39.0876 6.35309C42.6697 8.36124 45.709 11.2378 47.9343 14.6571L35.3426 39.8404C35.2883 40.0033 35.1798 40.1661 35.017 40.1661C34.8541 40.1661 34.7999 40.0033 34.6913 39.8404L29.9694 29.0941C29.8066 28.7142 29.5895 28.6599 29.2639 28.6599H24.9219C24.5963 28.6599 24.3792 28.7142 24.2163 29.0941L19.6573 39.8404C19.603 40.0033 19.4945 40.1661 19.3316 40.1661ZM27.2014 55.0373C42.2355 55.0373 54.3387 42.9341 54.3387 27.9001C54.3387 12.866 42.2355 0.762817 27.2014 0.762817C12.1674 0.762817 0.064209 12.866 0.064209 27.9001C0.064209 42.9341 12.1674 55.0373 27.2014 55.0373Z" fill="#00095B"/>
</svg>
